<svg width="18" height="18" viewBox="0 0 18 18" fill="none" xmlns="http://www.w3.org/2000/svg">
<rect width="18" height="18" rx="9" fill="white"/>
<path d="M16.0888 9.01687C16.0888 12.9246 12.9209 16.0925 9.01316 16.0925C5.10538 16.0925 1.9375 12.9246 1.9375 9.01687C1.9375 5.10909 5.10538 1.94121 9.01316 1.94121C12.9209 1.94121 16.0888 5.10909 16.0888 9.01687Z" fill="white"/>
<path d="M15.9404 9.36974L16.8566 9.42636L16.8487 9.55413L15.9325 9.49751L15.9404 9.36974ZM16.7867 9.10004L16.9036 9.10726L16.8561 9.87524L16.7392 9.86801L16.7867 9.10004Z" fill="#363633"/>
<path d="M15.8895 9.9769L16.8192 10.1469L16.7962 10.2728L15.8665 10.1028L15.8895 9.9769ZM15.8738 10.0626L15.989 10.0837L15.8915 10.6169L15.7763 10.5958L15.8738 10.0626ZM16.2945 10.1395L16.4043 10.1596L16.3149 10.6486L16.2051 10.6285L16.2945 10.1395ZM16.6883 10.2115L16.8035 10.2326L16.7073 10.7591L16.5921 10.738L16.6883 10.2115Z" fill="#363633"/>
<path d="M15.6383 11.025C15.6599 10.9538 15.6914 10.8969 15.7328 10.8545C15.7742 10.812 15.8256 10.7787 15.8869 10.7547L15.945 10.8634C15.8963 10.8799 15.8559 10.9037 15.8237 10.9347C15.7924 10.966 15.7684 11.009 15.7518 11.0638C15.7354 11.1176 15.7341 11.1642 15.7478 11.2034C15.7612 11.2436 15.7883 11.2698 15.8291 11.2823C15.863 11.2925 15.8928 11.293 15.9184 11.2837C15.944 11.2744 15.9674 11.2583 15.9886 11.2353C16.0104 11.2135 16.0313 11.1885 16.0512 11.1604C16.072 11.1326 16.0932 11.1049 16.1149 11.0773C16.1374 11.05 16.1618 11.026 16.1879 11.0055C16.2149 10.9853 16.2462 10.9715 16.2816 10.9642C16.3167 10.9578 16.3573 10.9616 16.4034 10.9756C16.4546 10.9912 16.4944 11.0165 16.5226 11.0517C16.5514 11.088 16.5689 11.1303 16.5751 11.1787C16.5819 11.2282 16.5771 11.2799 16.5607 11.3337C16.5428 11.3928 16.515 11.4422 16.4773 11.482C16.4404 11.522 16.3989 11.5512 16.3525 11.5693L16.2945 11.4606C16.3339 11.4432 16.3662 11.4212 16.3914 11.3947C16.4162 11.369 16.4347 11.3362 16.4469 11.2963C16.4617 11.2476 16.4625 11.2057 16.4495 11.1704C16.4374 11.1354 16.4122 11.1121 16.374 11.1005C16.3436 11.0912 16.3164 11.0915 16.2926 11.1014C16.2693 11.1123 16.2472 11.1289 16.2263 11.151C16.2053 11.1731 16.1845 11.198 16.1637 11.2259C16.1435 11.2549 16.1221 11.283 16.0996 11.3103C16.0771 11.3376 16.0518 11.3613 16.0239 11.3813C15.996 11.4013 15.9637 11.4142 15.9268 11.4201C15.8905 11.4271 15.8484 11.4233 15.8007 11.4088C15.7207 11.3845 15.6666 11.3377 15.6384 11.2684C15.6098 11.2 15.6098 11.1188 15.6383 11.025Z" fill="#363633"/>
<path d="M15.4009 11.7204L16.2422 12.0874L16.191 12.2048L15.3497 11.8378L15.4009 11.7204ZM16.2883 11.7569L16.3957 11.8037L16.088 12.509L15.9807 12.4622L16.2883 11.7569Z" fill="#363633"/>
<path d="M15.1372 12.2866L15.951 12.7673L15.8859 12.8775L15.0721 12.3968L15.1372 12.2866ZM15.0929 12.3616L15.1937 12.4212L14.9181 12.8879L14.8172 12.8283L15.0929 12.3616ZM15.4611 12.5791L15.5572 12.6359L15.3044 13.0639L15.2083 13.0071L15.4611 12.5791ZM15.8058 12.7828L15.9066 12.8424L15.6344 13.3032L15.5336 13.2436L15.8058 12.7828Z" fill="#363633"/>
<path d="M14.663 13.0533L14.7549 13.1259L14.5919 13.3321C14.5485 13.3869 14.5223 13.4443 14.5131 13.5042C14.5047 13.5646 14.5124 13.6229 14.5364 13.6789C14.5599 13.7356 14.599 13.7857 14.6539 13.829C14.708 13.8718 14.7653 13.8981 14.8259 13.9078C14.8865 13.9175 14.9449 13.911 15.0011 13.8883C15.0572 13.8656 15.1067 13.8271 15.1495 13.773L15.3117 13.5679L15.4036 13.6405L15.2397 13.8478C15.1969 13.9019 15.1482 13.9444 15.0937 13.9754C15.0386 14.007 14.981 14.0264 14.9211 14.0334C14.8606 14.0411 14.8006 14.0365 14.7411 14.0195C14.681 14.0033 14.6243 13.974 14.5709 13.9318C14.5182 13.8901 14.4766 13.8417 14.4462 13.7864C14.416 13.7324 14.3974 13.6754 14.3904 13.6155C14.3834 13.5556 14.3889 13.4951 14.407 13.4342C14.4245 13.374 14.4544 13.3172 14.4966 13.2637L14.663 13.0533ZM14.7154 12.9871L15.4568 13.5732L15.3774 13.6737L14.636 13.0875L14.7154 12.9871Z" fill="#363633"/>
<path d="M13.8595 13.9947L14.1849 14.9627L14.1148 15.0233L13.2052 14.5602L13.3103 14.4694L14.0731 14.8667L14.0371 14.8979L13.7565 14.0838L13.8595 13.9947ZM13.8602 14.2767L13.9332 14.3612L13.5572 14.6862L13.4841 14.6017L13.8602 14.2767Z" fill="#363633"/>
<path d="M13.0917 14.6383L13.6049 15.432L13.5294 15.4808L13.4168 15.3768L12.9842 14.7078L13.0917 14.6383ZM12.5428 14.9933L13.4507 15.329L13.5294 15.4808L12.6211 15.147L12.5428 14.9933ZM12.5428 14.9933L12.651 15.0904L13.088 15.7662L12.9805 15.8357L12.4673 15.0421L12.5428 14.9933Z" fill="#363633"/>
<path d="M12.1781 15.1977L12.2265 15.3044L11.9872 15.4131C11.9236 15.442 11.874 15.4809 11.8384 15.53C11.8032 15.5799 11.7835 15.6352 11.7792 15.696C11.774 15.7571 11.7859 15.8196 11.8148 15.8832C11.8434 15.946 11.8823 15.9956 11.9318 16.032C11.9812 16.0684 12.0361 16.0894 12.0964 16.0949C12.1567 16.1004 12.2183 16.0889 12.2811 16.0603L12.5192 15.9522L12.5676 16.0589L12.3271 16.1681C12.2643 16.1966 12.2015 16.2122 12.1389 16.2147C12.0754 16.2176 12.0154 16.2084 11.9589 16.1872C11.9015 16.1664 11.8503 16.1348 11.8052 16.0925C11.7592 16.0506 11.7221 15.9986 11.694 15.9366C11.6662 15.8754 11.6515 15.8133 11.6498 15.7503C11.6476 15.6884 11.6571 15.6293 11.6784 15.5728C11.6996 15.5163 11.7322 15.4651 11.7761 15.4192C11.8193 15.3737 11.8718 15.3368 11.9338 15.3087L12.1781 15.1977ZM12.255 15.1628L12.6458 16.0234L12.5292 16.0763L12.1384 15.2158L12.255 15.1628Z" fill="#363633"/>
<path d="M10.8775 15.7018L10.9038 15.8103L10.6259 15.8777C10.573 15.8906 10.5353 15.9161 10.5128 15.9542C10.4905 15.9933 10.4847 16.0349 10.4954 16.079C10.5027 16.109 10.5158 16.1343 10.5348 16.1549C10.554 16.1764 10.5782 16.1911 10.6072 16.199C10.6353 16.2071 10.6661 16.2071 10.6997 16.199L10.9816 16.1306L11.0079 16.2391L10.7445 16.303C10.7004 16.3137 10.6683 16.3336 10.6483 16.3628C10.6276 16.393 10.6226 16.4302 10.6333 16.4743C10.644 16.5184 10.6659 16.5486 10.6988 16.5649C10.7319 16.5821 10.771 16.5853 10.816 16.5743L11.074 16.5117L11.1004 16.6202L10.8397 16.6835C10.7797 16.6981 10.7271 16.6991 10.6821 16.6867C10.6364 16.6754 10.5991 16.6545 10.5702 16.6242C10.5405 16.594 10.5205 16.5578 10.5102 16.5154C10.4982 16.466 10.5014 16.4195 10.5197 16.3758C10.5372 16.3323 10.5694 16.2936 10.6163 16.2598L10.6154 16.3021C10.5511 16.2953 10.4974 16.2742 10.4543 16.2389C10.4105 16.2047 10.3815 16.1585 10.3674 16.1002C10.3556 16.0517 10.3569 16.0051 10.3713 15.9605C10.3857 15.9159 10.4126 15.8763 10.4518 15.8415C10.4903 15.8079 10.5418 15.7832 10.6062 15.7676L10.8775 15.7018ZM10.9609 15.6815L11.1837 16.6L11.0593 16.6302L10.8365 15.7117L10.9609 15.6815Z" fill="#363633"/>
<path d="M9.75753 15.8979C9.82703 15.8904 9.89098 15.899 9.94936 15.9237C10.0069 15.9494 10.0545 15.9877 10.0919 16.0384C10.1295 16.09 10.152 16.1506 10.1596 16.2201L10.2237 16.8118L10.0964 16.8255L10.0326 16.2366C10.0272 16.1869 10.0122 16.1452 9.9875 16.1113C9.96283 16.0775 9.93182 16.0525 9.89446 16.0365C9.85621 16.0206 9.81496 16.015 9.77074 16.0198C9.7247 16.0248 9.68561 16.039 9.65347 16.0626C9.62041 16.0863 9.59592 16.1172 9.57997 16.1555C9.56312 16.1939 9.55734 16.2374 9.56262 16.2861L9.62659 16.8765L9.49797 16.8904L9.43371 16.2974C9.42618 16.2279 9.43527 16.1643 9.461 16.1068C9.48672 16.0492 9.52495 16.0017 9.57568 15.9642C9.62651 15.9276 9.68713 15.9055 9.75753 15.8979Z" fill="#363633"/>
<path d="M9.17973 15.9493L9.19432 16.8943L9.06632 16.8963L9.05173 15.9513L9.17973 15.9493Z" fill="#363633"/>
<path d="M8.80871 15.9528L8.74677 16.8958L8.61903 16.8875L8.68097 15.9444L8.80871 15.9528ZM8.72174 15.947L8.71406 16.0639L8.20855 16.0307L8.21622 15.9138L8.72174 15.947Z" fill="#363633"/>
<path d="M7.81189 15.8476L7.64337 16.7499L7.51753 16.7264L7.68606 15.8241L7.81189 15.8476ZM7.9758 16.7206L7.9543 16.8357L7.19794 16.6944L7.21944 16.5793L7.9758 16.7206Z" fill="#363633"/>
<path d="M6.63689 15.5331L6.31443 16.3925L6.19458 16.3476L6.51704 15.4882L6.63689 15.5331ZM6.64692 16.4213L6.60577 16.5309L5.88538 16.2606L5.92652 16.151L6.64692 16.4213Z" fill="#363633"/>
<path d="M5.68942 15.0884C5.74825 15.1209 5.79718 15.1619 5.83622 15.2114C5.87482 15.2617 5.90245 15.3169 5.91912 15.3769C5.93535 15.4377 5.93995 15.4998 5.93291 15.5634C5.92507 15.6264 5.90493 15.6874 5.87248 15.7462C5.83959 15.8058 5.79878 15.8554 5.75004 15.8949C5.70008 15.9347 5.64567 15.9638 5.58682 15.9821C5.52717 16 5.46638 16.0059 5.40446 15.9997C5.34174 15.9931 5.28097 15.9736 5.22214 15.9411C5.16332 15.9087 5.11478 15.8679 5.07654 15.8188C5.0375 15.7693 5.00965 15.7145 4.99298 15.6545C4.97631 15.5945 4.97149 15.5328 4.97853 15.4693C4.98557 15.4057 5.00554 15.3442 5.03843 15.2846C5.07088 15.2257 5.11209 15.1764 5.16206 15.1366C5.21202 15.0967 5.26683 15.0679 5.32648 15.05C5.38533 15.0316 5.44633 15.0254 5.50949 15.0312C5.57141 15.0373 5.63139 15.0564 5.68942 15.0884ZM5.63261 15.1971C5.57298 15.1642 5.51346 15.149 5.45403 15.1514C5.39337 15.1543 5.33677 15.1723 5.28422 15.2055C5.23124 15.2395 5.18764 15.2875 5.15344 15.3496C5.128 15.3957 5.11231 15.442 5.10637 15.4885C5.09998 15.5357 5.10241 15.5811 5.11365 15.6247C5.1249 15.6682 5.14464 15.7076 5.17287 15.7429C5.20067 15.779 5.23683 15.8093 5.28135 15.8338C5.34017 15.8663 5.3997 15.8815 5.45992 15.8795C5.51935 15.877 5.57533 15.8591 5.62788 15.8259C5.67963 15.7922 5.72261 15.7444 5.75681 15.6824C5.78225 15.6363 5.79877 15.5894 5.80639 15.5418C5.81277 15.4945 5.81074 15.4493 5.8003 15.4062C5.78862 15.3635 5.76888 15.3241 5.74108 15.288C5.71249 15.2515 5.67633 15.2212 5.63261 15.1971Z" fill="#363633"/>
<path d="M4.8231 14.5482L4.22352 15.2788L4.12456 15.1976L4.72415 14.467L4.8231 14.5482ZM4.75573 14.493L4.68143 14.5835L4.28982 14.2621L4.36412 14.1716L4.75573 14.493Z" fill="#363633"/>
<path d="M4.29637 14.1158L3.34621 14.4899L3.28217 14.4231L3.69836 13.4911L3.79442 13.5914L3.4364 14.3734L3.40344 14.339L4.2022 14.0174L4.29637 14.1158ZM4.01479 14.1308L3.93412 14.208L3.59038 13.849L3.67105 13.7717L4.01479 14.1308Z" fill="#363633"/>
<path d="M3.47409 13.1644C3.51876 13.2239 3.54599 13.2829 3.5558 13.3414C3.5656 13.3999 3.56206 13.461 3.54518 13.5247L3.42316 13.5073C3.43859 13.4582 3.44331 13.4116 3.43732 13.3673C3.4306 13.3235 3.41008 13.2787 3.37576 13.233C3.34199 13.188 3.30522 13.1594 3.26546 13.1472C3.22515 13.1343 3.18792 13.1407 3.15378 13.1663C3.12546 13.1875 3.10748 13.2112 3.09986 13.2373C3.09223 13.2635 3.09141 13.2919 3.0974 13.3226C3.10212 13.3531 3.10993 13.3847 3.12083 13.4174C3.131 13.4506 3.1408 13.4841 3.15024 13.5179C3.15896 13.5522 3.16386 13.586 3.16495 13.6192C3.16531 13.653 3.15796 13.6863 3.14289 13.7192C3.12727 13.7513 3.10022 13.7818 3.06172 13.8107C3.01887 13.8428 2.97493 13.8599 2.92989 13.8619C2.88359 13.8637 2.8391 13.8528 2.79643 13.8292C2.75249 13.8054 2.71363 13.771 2.67986 13.726C2.64282 13.6766 2.6194 13.6249 2.60959 13.571C2.59906 13.5176 2.60015 13.4669 2.61286 13.4187L2.73488 13.4362C2.72562 13.4783 2.72426 13.5173 2.73079 13.5533C2.73679 13.5885 2.75231 13.6228 2.77737 13.6562C2.80787 13.6969 2.84119 13.7224 2.87733 13.7328C2.91274 13.7437 2.94642 13.7371 2.97838 13.7132C3.0038 13.6941 3.0196 13.672 3.02577 13.647C3.03067 13.6217 3.0304 13.5941 3.02495 13.5642C3.01951 13.5342 3.0117 13.5026 3.00153 13.4694C2.99009 13.436 2.98001 13.4021 2.9713 13.3678C2.96258 13.3335 2.95841 13.2992 2.95877 13.2649C2.95913 13.2305 2.96785 13.1968 2.98492 13.1635C3.00071 13.1301 3.02859 13.0984 3.06853 13.0685C3.13536 13.0184 3.20508 13.0024 3.27771 13.0205C3.3498 13.038 3.41526 13.0859 3.47409 13.1644Z" fill="#363633"/>
<path d="M3.04943 12.5581L2.25573 13.0191L2.19143 12.9084L2.98513 12.4474L3.04943 12.5581ZM2.49487 13.2519L2.3936 13.3107L2.00714 12.6453L2.10841 12.5865L2.49487 13.2519Z" fill="#363633"/>
<path d="M2.23114 11.7161C2.24085 11.7406 2.2439 11.7643 2.2403 11.7872C2.2367 11.8101 2.22779 11.8308 2.21357 11.8491C2.19818 11.8669 2.17909 11.8804 2.15631 11.8894C2.13352 11.8984 2.11084 11.9016 2.08825 11.8988C2.06534 11.8952 2.04471 11.8863 2.02637 11.8721C2.00719 11.8582 1.99275 11.839 1.98304 11.8146C1.97333 11.7901 1.97086 11.7666 1.97565 11.7442C1.97925 11.7213 1.98833 11.7011 2.00287 11.6836C2.01709 11.6653 2.03559 11.6516 2.05837 11.6426C2.08116 11.6335 2.10443 11.6306 2.12819 11.6339C2.15078 11.6367 2.17124 11.6451 2.18957 11.6594C2.20758 11.6727 2.22143 11.6916 2.23114 11.7161Z" fill="#363633"/>
<path d="M2.23657 10.5121L2.12672 10.5322L2.07528 10.2509C2.06549 10.1973 2.04218 10.1582 2.00537 10.1335C1.96767 10.1091 1.92649 10.1009 1.88184 10.1091C1.85147 10.1146 1.82546 10.1263 1.80379 10.1441C1.78124 10.1621 1.76518 10.1853 1.75563 10.2138C1.74591 10.2414 1.74415 10.2722 1.75036 10.3061L1.80252 10.5915L1.69267 10.6116L1.64393 10.345C1.63577 10.3003 1.61771 10.2672 1.58976 10.2455C1.56074 10.2231 1.52391 10.216 1.47926 10.2242C1.4346 10.2324 1.40319 10.2524 1.38504 10.2843C1.36598 10.3164 1.36062 10.3553 1.36895 10.4008L1.41671 10.662L1.30686 10.6821L1.25861 10.4182C1.24751 10.3575 1.24944 10.305 1.26442 10.2607C1.27835 10.2157 1.30129 10.1797 1.33326 10.1526C1.36507 10.1246 1.4024 10.1067 1.44527 10.0989C1.49528 10.0897 1.54158 10.0956 1.58415 10.1164C1.62656 10.1363 1.66329 10.1707 1.69436 10.2195L1.65221 10.2161C1.66271 10.1524 1.68682 10.1 1.72454 10.0589C1.7612 10.0171 1.809 9.99086 1.86795 9.98008C1.91707 9.9711 1.96348 9.97507 2.00718 9.992C2.05089 10.0089 2.08896 10.038 2.1214 10.0791C2.15279 10.1195 2.17444 10.1723 2.18636 10.2375L2.23657 10.5121ZM2.252 10.5965L1.32229 10.7665L1.29926 10.6406L2.22897 10.4706L2.252 10.5965Z" fill="#363633"/>
<path d="M2.11338 9.74916L1.17029 9.8111L1.1619 9.68336L2.10499 9.62142L2.11338 9.74916ZM2.10767 9.66219L1.9908 9.66986L1.9576 9.16435L2.07447 9.15667L2.10767 9.66219Z" fill="#363633"/>
<path d="M2.10359 8.61952C2.09955 8.68931 2.08052 8.75096 2.0465 8.80446C2.01162 8.85701 1.96608 8.89757 1.90986 8.92614C1.85273 8.95466 1.78927 8.9669 1.71948 8.96285L1.12535 8.92843L1.13276 8.80063L1.72417 8.8349C1.77402 8.83779 1.81767 8.82986 1.85514 8.81111C1.8926 8.79236 1.92232 8.7659 1.94431 8.7317C1.96635 8.6966 1.97866 8.65685 1.98123 8.61243C1.98391 8.56621 1.97628 8.5253 1.95833 8.4897C1.94044 8.4532 1.91395 8.42392 1.87885 8.40188C1.8438 8.37894 1.8018 8.36604 1.75286 8.36321L1.16009 8.32886L1.16757 8.1997L1.76306 8.23421C1.83285 8.23825 1.89402 8.25771 1.94657 8.29258C1.99911 8.32746 2.03967 8.37301 2.06824 8.42923C2.09591 8.48539 2.10769 8.54883 2.10359 8.61952Z" fill="#363633"/>
<path d="M2.1408 8.03615L1.21175 7.86262L1.23525 7.73679L2.1643 7.91031L2.1408 8.03615ZM2.1568 7.95047L2.04168 7.92897L2.14119 7.39617L2.25632 7.41767L2.1568 7.95047ZM1.73645 7.87196L1.62668 7.85146L1.71795 7.36284L1.82772 7.38334L1.73645 7.87196ZM1.34288 7.79845L1.22775 7.77695L1.32602 7.25084L1.44114 7.27234L1.34288 7.79845Z" fill="#363633"/>
<path d="M2.39404 6.99114C2.37213 7.06229 2.34041 7.11902 2.29888 7.16133C2.25735 7.20364 2.20585 7.2367 2.14437 7.26052L2.08672 7.15157C2.13545 7.13523 2.17597 7.11161 2.20829 7.08071C2.23973 7.04954 2.26387 7.00663 2.2807 6.95196C2.29727 6.89817 2.29878 6.85161 2.28524 6.81229C2.27196 6.77211 2.24494 6.74573 2.20416 6.73318C2.17032 6.72276 2.14058 6.72215 2.11494 6.73135C2.08931 6.74056 2.06584 6.75661 2.04455 6.7795C2.02265 6.80125 2.00168 6.82615 1.98165 6.85418C1.96075 6.88194 1.93942 6.90957 1.91765 6.93707C1.89502 6.9643 1.87059 6.98812 1.84435 7.00854C1.81724 7.02869 1.78597 7.04234 1.75052 7.04947C1.71534 7.05574 1.67476 7.05179 1.62877 7.03763C1.57758 7.02187 1.53794 6.99636 1.50984 6.96111C1.48115 6.92473 1.4638 6.88234 1.4578 6.83394C1.45121 6.78441 1.45619 6.73275 1.47276 6.67895C1.49092 6.61995 1.51894 6.57063 1.55679 6.53099C1.59378 6.49108 1.63547 6.46212 1.68187 6.4441L1.73952 6.55305C1.7 6.57033 1.66762 6.59219 1.64238 6.61861C1.61741 6.64417 1.59878 6.67691 1.58649 6.71682C1.57153 6.76541 1.57048 6.80737 1.58336 6.84268C1.59537 6.87773 1.62046 6.90113 1.65864 6.91288C1.68901 6.92223 1.71614 6.92204 1.74004 6.9123C1.76334 6.90142 1.7855 6.88497 1.80653 6.86295C1.82756 6.84093 1.84853 6.81604 1.86943 6.78827C1.88972 6.75937 1.91119 6.73131 1.93382 6.70408C1.95646 6.67685 1.98176 6.6533 2.00973 6.63341C2.03771 6.61352 2.07015 6.60072 2.10706 6.59498C2.14338 6.58812 2.1854 6.59203 2.23312 6.60672C2.31295 6.63131 2.36687 6.67831 2.39489 6.74773C2.42318 6.81629 2.42289 6.89743 2.39404 6.99114Z" fill="#363633"/>
<path d="M2.72621 6.12177C2.69828 6.18388 2.66123 6.2364 2.61505 6.27935C2.56803 6.32192 2.5153 6.35395 2.45686 6.37546C2.39879 6.39613 2.338 6.40514 2.2745 6.40247C2.21099 6.3998 2.1486 6.38469 2.08733 6.35714C2.02523 6.32922 1.9721 6.29239 1.92796 6.24666C1.88381 6.20093 1.85062 6.14968 1.82837 6.09289C1.80566 6.0349 1.79486 5.97479 1.79596 5.91257C1.7966 5.84916 1.81088 5.78639 1.8388 5.72429C1.86933 5.65639 1.90773 5.60198 1.954 5.56107C2.00026 5.52015 2.05221 5.48876 2.10982 5.46688L2.15426 5.58391C2.11134 5.59746 2.07224 5.6202 2.03699 5.65213C2.0021 5.68323 1.9733 5.72404 1.95059 5.77455C1.93011 5.82009 1.91959 5.86563 1.91903 5.91117C1.91764 5.95633 1.92552 5.99969 1.94267 6.04125C1.95982 6.0828 1.98515 6.12057 2.01865 6.15455C2.05252 6.18769 2.09347 6.21506 2.1415 6.23666C2.18952 6.25825 2.23718 6.27072 2.28445 6.27405C2.3321 6.27656 2.37716 6.27044 2.41963 6.25569C2.46209 6.24094 2.50017 6.21824 2.53386 6.1876C2.56672 6.15658 2.59338 6.1183 2.61386 6.07276C2.63806 6.01893 2.6504 5.96824 2.65088 5.92067C2.65053 5.87274 2.64118 5.82822 2.62283 5.78712L2.73862 5.74212C2.76216 5.80048 2.77341 5.86179 2.7724 5.92604C2.77176 5.98946 2.75636 6.0547 2.72621 6.12177Z" fill="#363633"/>
<path d="M3.15391 5.33372C3.11785 5.3904 3.07388 5.43668 3.022 5.47254C2.96936 5.50792 2.91258 5.53205 2.85165 5.54493C2.78996 5.55733 2.72764 5.55803 2.66469 5.54704C2.60223 5.53527 2.54266 5.51136 2.48597 5.47529C2.42852 5.43874 2.38162 5.39491 2.34527 5.3438C2.30864 5.29144 2.28301 5.23532 2.26839 5.17544C2.25425 5.11479 2.25219 5.05375 2.26221 4.99234C2.27272 4.93015 2.29601 4.87072 2.33207 4.81404C2.36814 4.75736 2.41187 4.71147 2.46325 4.67637C2.51513 4.6405 2.57153 4.61613 2.63245 4.60324C2.69338 4.59036 2.75532 4.58941 2.81827 4.60041C2.88122 4.61141 2.94142 4.63518 2.99886 4.67173C3.05555 4.7078 3.1022 4.75201 3.13883 4.80437C3.17546 4.85674 3.20085 4.91324 3.21499 4.97389C3.22962 5.03377 3.23206 5.09505 3.22231 5.15772C3.21229 5.21913 3.18949 5.2778 3.15391 5.33372ZM3.04904 5.27022C3.08559 5.21277 3.10449 5.15431 3.10574 5.09485C3.10671 5.03413 3.09226 4.97651 3.06239 4.92199C3.03174 4.86698 2.98655 4.82047 2.9268 4.78245C2.88237 4.75419 2.83715 4.73563 2.79112 4.72679C2.74433 4.71747 2.69886 4.71705 2.65471 4.72555C2.61056 4.73405 2.57 4.75128 2.53303 4.77726C2.49529 4.80275 2.46278 4.83694 2.43548 4.87983C2.39942 4.93652 2.38052 4.99498 2.37878 5.05521C2.37753 5.11467 2.39184 5.17167 2.42172 5.22619C2.45208 5.27994 2.49714 5.32583 2.55689 5.36384C2.60131 5.39211 2.64706 5.41153 2.69413 5.42211C2.74093 5.43144 2.78615 5.43224 2.82981 5.42451C2.87319 5.41552 2.91375 5.39828 2.95149 5.3728C2.98972 5.34654 3.02223 5.31235 3.04904 5.27022Z" fill="#363633"/>
<path d="M3.3063 4.45657L3.22128 4.38416L3.38816 4.18821C3.41112 4.16125 3.4259 4.13269 3.4325 4.10254C3.43969 4.07169 3.43826 4.04186 3.42823 4.01304C3.41878 3.98353 3.40023 3.957 3.37258 3.93345C3.34493 3.9099 3.31579 3.89582 3.28514 3.89119C3.25509 3.88587 3.22541 3.88921 3.19611 3.90122C3.16739 3.91254 3.14155 3.93168 3.11859 3.95864L2.95171 4.15459L2.86669 4.08219L3.03887 3.88001C3.07654 3.83577 3.11908 3.80403 3.16649 3.78477C3.21448 3.76482 3.2636 3.75896 3.31385 3.76717C3.36399 3.7741 3.41153 3.79669 3.45646 3.83495C3.5007 3.87263 3.53058 3.91596 3.54609 3.96495C3.56151 4.01266 3.56354 4.06209 3.55218 4.11323C3.54072 4.1631 3.51615 4.21015 3.47848 4.25439L3.3063 4.45657ZM3.53062 4.76029L2.81107 4.14751L2.89406 4.05005L3.61361 4.66283L3.53062 4.76029Z" fill="#363633"/>
<path d="M4.06478 4.15068L3.4212 3.45855L3.51495 3.37137L4.15853 4.06351L4.06478 4.15068ZM4.12861 4.09133L4.04885 4.00556L4.44579 3.63648L4.52554 3.72225L4.12861 4.09133ZM3.83742 3.77817L3.76138 3.6964L4.1254 3.35791L4.20144 3.43969L3.83742 3.77817ZM3.56478 3.48496L3.48503 3.3992L3.87697 3.03475L3.95672 3.12052L3.56478 3.48496Z" fill="#363633"/>
<path d="M5.05497 3.3226L4.5159 2.54629L4.61993 2.47405L5.159 3.25036L5.05497 3.3226ZM4.4223 2.75056L4.35706 2.65659L4.60874 2.48182L4.67399 2.57578L4.4223 2.75056Z" fill="#363633"/>
<path d="M5.61791 2.98496C5.55603 3.0194 5.48959 3.03351 5.4186 3.0273C5.3484 3.02064 5.28057 2.99397 5.21511 2.94728C5.1492 2.89979 5.09219 2.83281 5.04407 2.74634C4.99595 2.65987 4.96891 2.57673 4.96295 2.49693C4.95778 2.41668 4.97109 2.34538 5.00288 2.28301C5.03423 2.21985 5.08045 2.17128 5.14153 2.13728C5.20421 2.10241 5.27064 2.0883 5.34084 2.09495C5.4106 2.10081 5.47781 2.12731 5.54248 2.17444C5.60795 2.22113 5.66496 2.28811 5.71352 2.37538C5.76164 2.46185 5.7885 2.54561 5.79411 2.62665C5.80008 2.70645 5.78738 2.77793 5.75603 2.84109C5.72504 2.90301 5.67899 2.95097 5.61791 2.98496ZM5.55659 2.88038C5.60023 2.8561 5.63168 2.82301 5.65097 2.78111C5.6706 2.73797 5.6767 2.68731 5.66925 2.62911C5.6618 2.57092 5.63865 2.50691 5.5998 2.4371C5.56096 2.36728 5.51899 2.31427 5.4739 2.27806C5.42838 2.24105 5.38233 2.21992 5.33577 2.21466C5.28876 2.20861 5.24344 2.21772 5.19981 2.242C5.15697 2.26584 5.12573 2.29933 5.10609 2.34246C5.08602 2.38481 5.0797 2.43507 5.08715 2.49327C5.09495 2.55023 5.11827 2.61362 5.15712 2.68343C5.19597 2.75325 5.23776 2.80688 5.2825 2.84432C5.32802 2.88133 5.37429 2.90286 5.4213 2.90891C5.46786 2.91417 5.51296 2.90466 5.55659 2.88038Z" fill="#363633"/>
<path d="M6.63834 2.0928L6.10681 1.67987L6.24747 1.63246L6.67798 1.97165L6.61474 1.99297L6.75334 1.46193L6.89143 1.41539L6.71576 2.0667L6.63834 2.0928ZM6.74036 2.46368L6.59072 2.01975L6.71202 1.97886L6.86167 2.42279L6.74036 2.46368Z" fill="#363633"/>
<path d="M7.2953 2.28985L7.10406 1.36429L7.22943 1.33838L7.42067 2.26395L7.2953 2.28985ZM7.38066 2.27222L7.35696 2.15752L7.88776 2.04785L7.91146 2.16254L7.38066 2.27222ZM7.29413 1.85344L7.27153 1.74408L7.75832 1.6435L7.78092 1.75286L7.29413 1.85344ZM7.21311 1.46135L7.18942 1.34665L7.71355 1.23835L7.73725 1.35305L7.21311 1.46135Z" fill="#363633"/>
<path d="M8.03607 2.13713L8.34885 1.16501L8.44118 1.15788L8.89827 2.07048L8.75978 2.08119L8.3818 1.30862L8.42933 1.30495L8.17185 2.12663L8.03607 2.13713ZM8.2029 1.90979L8.19429 1.79845L8.68989 1.76014L8.69849 1.87148L8.2029 1.90979Z" fill="#363633"/>
<path d="M9.16218 1.66843L9.16799 1.56101L9.42364 1.57483C9.47894 1.57782 9.52231 1.56607 9.55375 1.53959C9.58518 1.5131 9.6022 1.47583 9.6048 1.42778C9.60725 1.38246 9.59432 1.34402 9.56603 1.31249C9.53863 1.281 9.49729 1.26377 9.44199 1.26078L9.18497 1.24688L9.191 1.13537L9.45209 1.14949C9.51193 1.15272 9.56342 1.16733 9.60657 1.1933C9.64976 1.21837 9.68207 1.25148 9.70348 1.29265C9.7258 1.33386 9.73557 1.3803 9.73277 1.43198C9.72988 1.48546 9.71512 1.53149 9.68848 1.57006C9.66275 1.60867 9.62707 1.63811 9.58142 1.65837C9.53582 1.67773 9.4831 1.68579 9.42327 1.68255L9.16218 1.66843ZM9.0543 2.07448L9.10533 1.13074L9.23316 1.13765L9.18213 2.08139L9.0543 2.07448ZM9.59824 2.10389L9.27843 1.66245L9.40173 1.62683L9.76007 2.11264L9.59824 2.10389Z" fill="#363633"/>
<path d="M10.5146 2.23755L10.4634 1.24448L10.587 1.27796L10.622 2.08605L10.5865 2.07643L11.0207 1.39551L11.1101 1.41973L11.1412 2.22675L11.107 2.21748L11.5452 1.53763L11.6674 1.57076L11.1232 2.40247L11.0351 2.37861L11.0024 1.57255L11.0366 1.58181L10.6027 2.26142L10.5146 2.23755Z" fill="#363633"/>
<path d="M11.4693 2.51396L12.2123 1.81332L12.2966 1.85161L12.2567 2.87151L12.1303 2.81408L12.1719 1.95501L12.2153 1.97472L11.5933 2.57027L11.4693 2.51396ZM11.7251 2.3953L11.7713 2.29362L12.2239 2.49914L12.1777 2.60082L11.7251 2.3953Z" fill="#363633"/>
<path d="M12.6559 2.63115L12.7126 2.53975L12.9302 2.67481C12.9772 2.70402 13.0209 2.71457 13.0612 2.70647C13.1015 2.69836 13.1343 2.67387 13.1597 2.63299C13.1836 2.59442 13.1908 2.55451 13.1811 2.51325C13.1723 2.47247 13.1443 2.43748 13.0973 2.40827L12.8786 2.2725L12.9375 2.17762L13.1596 2.31555C13.2105 2.34716 13.2487 2.38472 13.274 2.42824C13.2998 2.47099 13.3122 2.51556 13.3112 2.56195C13.311 2.60882 13.2972 2.65423 13.2699 2.6982C13.2416 2.74371 13.2066 2.77696 13.1647 2.79797C13.1235 2.81946 13.0781 2.82811 13.0283 2.82392C12.979 2.81897 12.9289 2.80069 12.878 2.76908L12.6559 2.63115ZM12.3661 2.9353L12.8646 2.13237L12.9734 2.19989L12.4748 3.00283L12.3661 2.9353ZM12.8288 3.22265L12.7607 2.6818L12.8859 2.70987L12.9665 3.30813L12.8288 3.22265Z" fill="#363633"/>
<path d="M13.4563 3.16113L13.5243 3.07771L13.7228 3.23942C13.7657 3.27439 13.8077 3.29043 13.8487 3.28754C13.8897 3.28464 13.9254 3.26453 13.9558 3.22723C13.9845 3.19203 13.9966 3.15336 13.9923 3.11121C13.9887 3.06963 13.9655 3.03135 13.9225 2.99637L13.723 2.83381L13.7935 2.74723L13.9962 2.91238C14.0427 2.95022 14.0757 2.99234 14.0953 3.03874C14.1154 3.08444 14.122 3.13022 14.1151 3.1761C14.1089 3.22256 14.0894 3.26584 14.0568 3.30597C14.0229 3.3475 13.9839 3.37601 13.9397 3.3915C13.8961 3.40756 13.8499 3.41034 13.8011 3.39984C13.7529 3.38864 13.7055 3.36411 13.6591 3.32627L13.4563 3.16113ZM13.1301 3.42581L13.727 2.69305L13.8262 2.7739L13.2293 3.50666L13.1301 3.42581ZM13.5524 3.76985L13.5538 3.22473L13.6745 3.26855L13.678 3.8722L13.5524 3.76985Z" fill="#363633"/>
<path d="M13.7356 3.91973L14.6871 3.54899L14.7509 3.61612L14.3313 4.54657L14.2357 4.44588L14.5965 3.66517L14.6294 3.69972L13.8294 4.01844L13.7356 3.91973ZM14.0172 3.9057L14.0982 3.82877L14.4406 4.18908L14.3597 4.26601L14.0172 3.9057Z" fill="#363633"/>
<path d="M14.4235 4.66057L15.1918 4.1102L15.2442 4.18327L15.1457 4.30071L14.498 4.76464L14.4235 4.66057ZM14.8041 5.19199L15.0963 4.26912L15.2442 4.18327L14.954 5.10646L14.8041 5.19199ZM14.8041 5.19199L14.896 5.0793L15.5503 4.61062L15.6248 4.71469L14.8565 5.26506L14.8041 5.19199Z" fill="#363633"/>
<path d="M15.0964 5.68156L15.9065 5.25013L15.9667 5.36312L15.1565 5.79455L15.0964 5.68156ZM15.6761 5.0087L15.7795 4.95365L16.1412 5.6328L16.0378 5.68785L15.6761 5.0087Z" fill="#363633"/>
<path d="M15.8441 6.3842L16.2368 5.83753L16.2894 5.97631L15.9666 6.41926L15.943 6.35687L16.4788 6.47542L16.5305 6.61166L15.8731 6.4606L15.8441 6.3842ZM15.4773 6.50009L15.9153 6.33387L15.9607 6.45356L15.5227 6.61978L15.4773 6.50009Z" fill="#363633"/>
<path d="M16.2082 7.79014C16.2038 7.76417 16.2058 7.74036 16.2142 7.71871C16.2225 7.69707 16.2356 7.67878 16.2533 7.66385C16.2721 7.64966 16.2936 7.64055 16.3178 7.63651C16.342 7.63247 16.3648 7.63418 16.3863 7.64163C16.408 7.64998 16.4262 7.66304 16.4412 7.68079C16.457 7.6984 16.4671 7.72019 16.4714 7.74616C16.4758 7.77213 16.4732 7.79556 16.4638 7.81646C16.4555 7.83811 16.4424 7.85595 16.4245 7.86998C16.4067 7.88492 16.3857 7.8944 16.3616 7.89844C16.3374 7.90248 16.314 7.9004 16.2915 7.8922C16.27 7.88474 16.2518 7.87214 16.2368 7.85438C16.2221 7.83752 16.2125 7.8161 16.2082 7.79014Z" fill="#363633"/>
<circle cx="9.02889" cy="9.0296" r="4.64803" fill="#363633"/>
<path d="M8.90625 10.1842L8.85754 9.23301L8.04777 9.74749L7.81641 9.29881L8.7175 8.9638L7.97471 8.38351L8.33393 8.03054L8.93669 8.75441L9.27764 7.875L9.74037 8.10233L9.21067 8.89201L10.1848 8.93987L10.1057 9.43043L9.16196 9.18515L9.41768 10.1064L8.90625 10.1842Z" fill="white"/>
</svg>
