<svg width="449" height="71" viewBox="0 0 449 71" fill="none" xmlns="http://www.w3.org/2000/svg">
<path d="M35.208 70.96C30.28 70.96 25.704 70.096 21.48 68.368C17.256 66.576 13.544 64.112 10.344 60.976C7.208 57.776 4.776 54.064 3.048 49.84C1.384 45.616 0.552 41.072 0.552 36.208C0.552 31.344 1.384 26.8 3.048 22.576C4.776 18.352 7.208 14.672 10.344 11.536C13.544 8.4 17.224 5.936 21.384 4.144C25.608 2.352 30.216 1.456 35.208 1.456C40.584 1.456 45.32 2.352 49.416 4.144C53.512 5.872 57.128 8.272 60.264 11.344L51.432 20.176C49.576 18.128 47.304 16.528 44.616 15.376C41.928 14.224 38.792 13.648 35.208 13.648C32.072 13.648 29.192 14.192 26.568 15.28C24.008 16.304 21.768 17.84 19.848 19.888C17.928 21.872 16.456 24.272 15.432 27.088C14.408 29.84 13.896 32.88 13.896 36.208C13.896 39.6 14.408 42.672 15.432 45.424C16.456 48.176 17.928 50.576 19.848 52.624C21.768 54.608 24.008 56.144 26.568 57.232C29.192 58.32 32.072 58.864 35.208 58.864C38.984 58.864 42.216 58.288 44.904 57.136C47.656 55.984 49.96 54.352 51.816 52.24L60.648 61.072C57.512 64.208 53.864 66.64 49.704 68.368C45.544 70.096 40.712 70.96 35.208 70.96ZM88.9538 70.96C84.2818 70.96 80.0578 69.904 76.2818 67.792C72.5698 65.616 69.5938 62.704 67.3538 59.056C65.1778 55.344 64.0898 51.216 64.0898 46.672C64.0898 42.128 65.1778 38.064 67.3538 34.48C69.5298 30.832 72.5058 27.952 76.2818 25.84C80.0578 23.664 84.2498 22.576 88.8578 22.576C93.5938 22.576 97.8178 23.664 101.53 25.84C105.306 27.952 108.282 30.832 110.458 34.48C112.634 38.064 113.722 42.128 113.722 46.672C113.722 51.216 112.634 55.344 110.458 59.056C108.282 62.704 105.306 65.616 101.53 67.792C97.8178 69.904 93.6258 70.96 88.9538 70.96ZM88.8578 59.248C91.2258 59.248 93.3058 58.736 95.0978 57.712C96.9538 56.624 98.3618 55.152 99.3218 53.296C100.346 51.376 100.858 49.2 100.858 46.768C100.858 44.336 100.346 42.192 99.3218 40.336C98.2978 38.48 96.8898 37.04 95.0978 36.016C93.3058 34.928 91.2258 34.384 88.8578 34.384C86.5538 34.384 84.5058 34.928 82.7138 36.016C80.9218 37.04 79.5138 38.48 78.4898 40.336C77.4658 42.192 76.9538 44.336 76.9538 46.768C76.9538 49.2 77.4658 51.376 78.4898 53.296C79.5138 55.152 80.9218 56.624 82.7138 57.712C84.5058 58.736 86.5538 59.248 88.8578 59.248ZM121.818 70V0.591995H134.394V70H121.818ZM167.329 70.96C162.657 70.96 158.433 69.904 154.657 67.792C150.945 65.616 147.969 62.704 145.729 59.056C143.553 55.344 142.465 51.216 142.465 46.672C142.465 42.128 143.553 38.064 145.729 34.48C147.905 30.832 150.881 27.952 154.657 25.84C158.433 23.664 162.625 22.576 167.233 22.576C171.969 22.576 176.193 23.664 179.905 25.84C183.681 27.952 186.657 30.832 188.833 34.48C191.009 38.064 192.097 42.128 192.097 46.672C192.097 51.216 191.009 55.344 188.833 59.056C186.657 62.704 183.681 65.616 179.905 67.792C176.193 69.904 172.001 70.96 167.329 70.96ZM167.233 59.248C169.601 59.248 171.681 58.736 173.473 57.712C175.329 56.624 176.737 55.152 177.697 53.296C178.721 51.376 179.233 49.2 179.233 46.768C179.233 44.336 178.721 42.192 177.697 40.336C176.673 38.48 175.265 37.04 173.473 36.016C171.681 34.928 169.601 34.384 167.233 34.384C164.929 34.384 162.881 34.928 161.089 36.016C159.297 37.04 157.889 38.48 156.865 40.336C155.841 42.192 155.329 44.336 155.329 46.768C155.329 49.2 155.841 51.376 156.865 53.296C157.889 55.152 159.297 56.624 161.089 57.712C162.881 58.736 164.929 59.248 167.233 59.248ZM200.193 70V23.632H212.769V70H200.193ZM212.769 44.368L207.873 41.104C208.449 35.408 210.113 30.928 212.865 27.664C215.617 24.336 219.585 22.672 224.769 22.672C227.009 22.672 229.025 23.056 230.817 23.824C232.609 24.528 234.241 25.712 235.713 27.376L227.841 36.4C227.137 35.632 226.273 35.056 225.249 34.672C224.289 34.288 223.169 34.096 221.889 34.096C219.201 34.096 216.993 34.96 215.265 36.688C213.601 38.352 212.769 40.912 212.769 44.368ZM243.162 70V2.512H252.378L279.738 46.288H274.458L301.722 2.512H310.938V70H297.978V24.88L300.474 25.648L281.466 56.176H272.634L253.626 25.648L256.218 24.88V70H243.162ZM319.733 70L346.901 2.512H357.557L384.629 70H370.708L349.781 14.608H354.581L333.365 70H319.733ZM334.133 57.424V46.48H370.421V57.424H334.133ZM433.469 70L414.077 39.952H412.157L385.853 2.512H401.309L420.605 30.832H422.525L448.733 70H433.469ZM384.701 70L409.949 33.904L419.549 40.336L399.485 70H384.701ZM423.197 37.936L413.597 31.504L432.797 2.512H447.581L423.197 37.936Z" fill="black"/>
</svg>
