<svg width="244" height="70" viewBox="0 0 244 70" fill="none" xmlns="http://www.w3.org/2000/svg">
<g id="Frame" clip-path="url(#clip0_420_184)">
<path id="Vector" d="M-2.73529e-06 48.6685C2.74011 48.6957 5.48023 48.7503 8.21351 48.7571C18.0943 48.7775 27.9683 48.7844 37.8491 48.7912C55.5813 48.798 73.3066 48.8048 91.0387 48.8116C98.1521 48.8116 105.265 48.8048 112.386 48.7912C115.795 48.7912 119.198 48.7775 122.608 48.7639C124.774 48.7503 126.934 48.7298 129.1 48.6753C129.619 48.6616 129.803 48.7639 129.797 49.3366C129.776 55.738 129.776 62.1326 129.797 68.5341C129.797 69.0794 129.646 69.2158 129.107 69.2158C86.2077 69.2022 43.3088 69.2022 0.409989 69.2022C0.273325 69.2022 0.136661 69.1885 -0.00683594 69.1817V48.6753L-2.73529e-06 48.6685Z" fill="#92D402"/>
<path id="Vector_2" d="M232.67 69.9998C232.049 69.7612 231.372 69.8089 230.737 69.6726C228.079 69.1136 226.309 67.5047 225.414 64.9959C224.061 61.2123 224.02 57.3606 225.161 53.5156C226.131 50.2433 228.4 48.389 231.762 47.8777C234.556 47.455 237.31 47.6936 239.982 48.6617C240.317 48.7844 240.508 48.9139 240.501 49.3298C240.474 50.7069 240.474 52.0772 240.501 53.4542C240.501 53.8701 240.358 53.9383 239.975 53.911C238.731 53.8019 237.543 53.4202 236.313 53.277C235.281 53.1543 234.242 53.1543 233.224 53.3656C231.632 53.686 230.784 54.7632 230.491 56.7334C230.21 58.5945 230.34 60.4352 230.764 62.2554C231.167 64.0006 232.944 65.0573 234.693 64.6278C234.85 64.5869 234.946 64.5323 234.953 64.3687C234.96 64.2324 234.96 64.096 234.96 63.9597C234.953 63.2984 235.151 62.5281 234.878 61.9963C234.584 61.4373 233.695 61.5532 233.074 61.3691C232.766 61.2805 232.677 61.1578 232.684 60.8578C232.698 59.6171 232.705 58.3831 232.684 57.1424C232.677 56.7538 232.841 56.6993 233.176 56.6993C235.568 56.7129 237.966 56.7129 240.358 56.6993C240.754 56.6993 240.857 56.822 240.857 57.2038C240.843 60.8033 240.843 64.4028 240.857 68.0024C240.857 68.3569 240.72 68.5068 240.419 68.6705C239.23 69.3045 237.959 69.6658 236.627 69.8567C236.504 69.8771 236.34 69.8089 236.285 69.9998H232.691H232.67Z" fill="white"/>
<path id="Vector_3" d="M166.183 19.818C165.835 20.9702 165.486 22.1155 165.145 23.2676C163.641 28.3806 162.131 33.5003 160.649 38.6201C160.498 39.1246 160.28 39.2882 159.74 39.2882C156.61 39.261 153.48 39.261 150.344 39.2882C149.804 39.2882 149.606 39.1178 149.463 38.6065C147.782 32.8254 146.073 27.058 144.365 21.2837C144.283 21.0042 144.324 20.4589 143.955 20.5338C143.559 20.6088 143.791 21.1065 143.798 21.4269C143.825 23.1926 143.846 24.9583 143.88 26.724C143.996 32.4709 144.112 38.2247 144.256 43.9717C144.269 44.5648 144.071 44.6671 143.566 44.6603C140.183 44.6466 136.801 44.6466 133.411 44.6603C132.94 44.6603 132.783 44.5512 132.783 44.0535C132.796 29.6077 132.796 15.1618 132.783 0.715965C132.783 0.238754 132.899 0.0955913 133.391 0.0955913C138.044 0.116043 142.691 0.116043 147.344 0.0955913C147.816 0.0955913 147.966 0.266024 148.082 0.675062C150.255 8.43315 152.442 16.1844 154.628 23.9357C154.656 24.0243 154.69 24.1061 154.717 24.1947C154.772 24.3924 154.779 24.6447 155.038 24.6719C155.387 24.706 155.339 24.3584 155.387 24.1811C157.341 17.2888 159.282 10.3965 161.223 3.49742C161.503 2.50891 161.803 1.52041 162.049 0.518264C162.138 0.15013 162.309 0.0546875 162.664 0.0546875C167.318 0.0615048 171.964 0.0683221 176.618 0.0546875C177.055 0.0546875 177.171 0.218303 177.185 0.600071C177.26 2.65889 177.369 4.71772 177.417 6.78336C177.615 15.3118 177.602 23.8402 177.581 32.3687C177.568 36.1045 177.595 39.8404 177.39 43.5695C177.328 44.6534 177.335 44.6534 176.262 44.6534C173.037 44.6534 169.819 44.6398 166.593 44.6671C165.978 44.6671 165.773 44.5375 165.794 43.8899C165.944 39.036 166.06 34.1821 166.177 29.3213C166.252 26.2536 166.306 23.179 166.375 20.1112C166.375 20.0226 166.354 19.9339 166.341 19.8453L166.183 19.818Z" fill="#92D402"/>
<path id="Vector_4" d="M4.708 0.218187C5.16583 0.218187 5.62365 0.204553 6.08148 0.204553C14.4863 0.204553 22.8912 0.21137 31.2892 0.190918C31.9315 0.190918 32.0681 0.368168 32.0613 0.981724C32.034 4.30857 32.0203 7.63541 32.0681 10.9554C32.0818 11.6644 31.7675 11.719 31.2413 11.7258C28.754 11.7326 26.2668 11.7599 23.7863 11.7735C21.463 11.7871 19.1329 11.8008 16.8096 11.7871C16.3654 11.7871 16.1673 11.8417 16.1673 12.3666C16.1878 19.0885 16.1878 25.8035 16.1673 32.5254C16.1673 33.0367 16.3518 33.1185 16.8028 33.1185C21.6407 33.1048 26.4718 33.1185 31.3097 33.098C31.9042 33.098 32.0681 33.2275 32.0613 33.8411C32.0271 37.1884 32.0271 40.5357 32.0613 43.883C32.0613 44.4488 31.9315 44.5988 31.3507 44.5988C22.9458 44.5783 14.541 44.5852 6.14298 44.5852C5.66465 44.5852 5.1795 44.5715 4.70117 44.5647C4.70117 29.7916 4.70117 15.0117 4.70117 0.238639L4.708 0.218187Z" fill="white"/>
<path id="Vector_5" d="M109.092 29.26C109.051 32.1233 108.819 34.5093 108.211 36.8545C107.063 41.2994 104.261 44.1081 99.7785 45.1716C95.8631 46.1056 91.934 46.0919 88.0322 45.0625C83.7683 43.9377 81.0829 41.2312 80.0032 36.9499C78.7664 32.0483 78.7664 27.1671 80.0716 22.2791C81.2537 17.8411 84.1578 15.2437 88.5926 14.2552C92.0912 13.4712 95.6103 13.4575 99.1294 14.1461C104.247 15.1482 107.384 18.2978 108.436 23.4926C108.607 24.3243 108.757 25.1628 108.839 26.0014C108.962 27.2285 109.024 28.4692 109.079 29.2532L109.092 29.26ZM91.1208 30.5349C91.155 31.5097 91.1003 32.955 91.3122 34.3866C91.401 34.9866 91.5855 35.5456 92.0843 35.9478C93.615 37.2022 96.3072 36.3977 96.8949 34.5162C97.1341 33.7594 97.1272 32.9823 97.2092 32.2051C97.4621 29.7713 97.3391 27.3512 96.8471 24.9651C96.5396 23.4858 95.3779 22.7291 93.7585 22.879C92.18 23.0222 91.442 23.8062 91.3122 25.4014C91.1892 26.9558 91.1277 28.5101 91.1208 30.5349Z" fill="white"/>
<path id="Vector_6" d="M48.2287 45.8463C46.0147 45.8122 43.9579 45.6077 41.9558 45.0555C37.7534 43.8965 35.1021 41.156 34.0361 36.977C32.8198 32.2321 32.772 27.4464 33.9883 22.6947C35.3891 17.2136 39.1952 14.4731 44.5729 13.8527C45.6252 13.73 46.6912 13.805 47.7367 13.7095C50.1556 13.4914 52.4721 14.0095 54.7475 14.6094C58.3418 15.557 60.7676 17.8885 61.8746 21.4404C63.5624 26.8533 63.576 32.3208 61.9634 37.7541C60.7266 41.9059 57.7815 44.2374 53.6406 45.2123C51.8229 45.6418 49.9711 45.8258 48.2355 45.8463H48.2287ZM44.9009 29.3552C44.9009 31.2982 45.0171 32.9889 45.4407 34.6386C45.7551 35.8658 46.2949 36.3157 47.5385 36.4589C47.928 36.4998 48.3175 36.4861 48.707 36.4452C49.9506 36.3089 50.5793 35.7771 50.8458 34.5773C51.1738 33.0979 51.3788 31.5913 51.3856 30.0847C51.3993 28.3735 51.2694 26.6488 50.8526 24.9785C50.6066 23.9832 50.06 23.2197 49.0008 22.9606C47.0192 22.4766 45.4544 23.5469 45.1811 25.5648C44.9966 26.901 44.8736 28.2508 44.9009 29.3552Z" fill="white"/>
<path id="Vector_7" d="M181.838 24.5695C181.838 21.7472 181.838 19.0203 181.831 16.2933C181.831 15.9388 181.995 15.8298 182.282 15.7207C184.086 14.9981 185.986 14.6504 187.886 14.33C191.863 13.6551 195.846 13.5255 199.816 14.3777C204.463 15.3798 206.95 18.2567 207.066 23.0084C207.183 27.6578 207.114 32.314 207.128 36.9702C207.128 39.2881 207.114 41.5991 207.142 43.917C207.142 44.4215 207.032 44.5783 206.506 44.5715C204.456 44.5374 202.406 44.5306 200.363 44.5715C199.673 44.5851 199.215 44.4079 198.819 43.8284C198.272 43.0308 198.211 43.0376 197.377 43.5216C194.603 45.1373 191.63 45.9554 188.405 45.635C186.348 45.4305 184.36 44.9805 182.679 43.6716C180.745 42.1718 179.802 40.1266 179.535 37.7678C179.289 35.5795 179.508 33.4116 180.342 31.3528C181.285 29.0281 183.157 27.7464 185.487 27.051C187.838 26.3489 190.277 26.2057 192.696 25.9398C193.68 25.8307 194.657 25.6739 195.635 25.5649C195.956 25.5308 196.038 25.3876 196.085 25.1013C196.393 23.3765 195.853 22.7357 194.077 22.6539C190.12 22.4698 186.28 23.0016 182.556 24.3514C182.344 24.4264 182.118 24.4741 181.831 24.5559L181.838 24.5695ZM196.209 34.4205C196.209 33.6161 196.209 32.8185 196.209 32.014C196.209 31.7413 196.209 31.5164 195.819 31.5573C194.521 31.7073 193.195 31.7209 191.924 32.0549C190.1 32.5321 189.273 34.1069 189.737 36.0976C190.106 37.6724 191.5 38.4427 193.339 38.1087C194.227 37.9451 195.033 37.5497 195.881 37.2633C196.215 37.1475 196.209 36.9429 196.209 36.6839C196.209 35.9272 196.209 35.1704 196.209 34.4137V34.4205Z" fill="#92D402"/>
<path id="Vector_8" d="M207.483 44.4899C208.789 42.2334 210.06 40.0314 211.324 37.8294C212.827 35.232 214.296 32.6142 215.847 30.0372C216.203 29.4441 216.134 29.0419 215.82 28.5034C213.333 24.2221 210.873 19.9272 208.399 15.6391C208.29 15.4482 208.187 15.2437 208.023 14.9438C208.303 14.9438 208.502 14.9438 208.693 14.9438C212.513 14.9438 216.339 14.9574 220.159 14.9301C220.685 14.9301 220.911 15.1006 221.102 15.5709C221.963 17.6639 222.872 19.7431 223.774 21.8224C223.856 22.0201 223.876 22.3269 224.156 22.3337C224.457 22.3405 224.45 22.0337 224.532 21.8292C225.441 19.6818 226.357 17.5343 227.252 15.3732C227.382 15.0528 227.525 14.9097 227.894 14.9097C231.926 14.9233 235.951 14.9165 239.982 14.9233C240.05 14.9233 240.112 14.9438 240.262 14.9642C239.729 15.8982 239.217 16.8117 238.691 17.7184C236.572 21.3929 234.468 25.0674 232.329 28.7351C232.103 29.1237 232.11 29.3964 232.329 29.785C235.021 34.448 237.693 39.1247 240.365 43.8014C240.474 43.9991 240.577 44.1968 240.672 44.3945C240.508 44.599 240.31 44.5104 240.146 44.5104C236.21 44.5104 232.274 44.5104 228.338 44.524C227.901 44.524 227.703 44.3945 227.532 43.9923C226.569 41.7153 225.564 39.4588 224.566 37.1954C224.484 37.0045 224.484 36.7046 224.177 36.6909C223.828 36.6773 223.815 37.0113 223.726 37.2159C222.701 39.4928 221.69 41.7698 220.678 44.0536C220.555 44.3331 220.466 44.5581 220.063 44.5581C215.943 44.5376 211.822 44.5445 207.702 44.5445C207.661 44.5445 207.62 44.524 207.477 44.4831L207.483 44.4899Z" fill="#92D402"/>
<path id="Vector_9" d="M64.4507 19.2793C64.4507 13.8664 64.4507 8.45345 64.4507 3.04733C64.4507 2.20199 64.519 1.35664 64.5395 0.50448C64.5532 0.136346 64.7035 0 65.093 0C68.7556 0.0136346 72.4114 0.0204519 76.074 0C76.6479 0 76.5659 0.313596 76.5659 0.65446C76.5659 5.46747 76.5659 10.2873 76.5659 15.1003C76.5659 21.454 76.5659 27.8009 76.5523 34.1547C76.5523 34.6455 76.6206 35 77.1536 35.1295C78.5134 35.4499 78.8756 36.2953 78.7867 37.6656C78.6501 39.8812 78.7389 42.1104 78.7594 44.3329C78.7594 44.7556 78.6501 44.9124 78.2127 45.001C75.5 45.5191 72.8008 45.785 70.1086 44.851C66.4733 43.5966 64.5532 41.1219 64.5122 37.3042C64.4438 31.2982 64.4917 25.2922 64.4917 19.2861H64.437L64.4507 19.2793Z" fill="white"/>
<path id="Vector_10" d="M110.506 29.6689C110.506 24.924 110.52 20.1792 110.493 15.4343C110.493 14.8549 110.657 14.7185 111.224 14.7253C113.274 14.7594 115.324 14.7799 117.367 14.7253C118.105 14.7049 118.611 14.889 118.911 15.5571C119.116 16.007 119.383 16.0206 119.834 15.857C121.925 15.0935 123.968 14.2004 126.175 13.805C127.692 13.5323 129.195 13.5869 130.678 14.0436C131.02 14.1459 131.211 14.2754 131.204 14.6981C131.184 17.6568 131.177 20.6155 131.204 23.5674C131.204 24.14 130.91 24.0719 130.555 24.031C128.573 23.806 126.612 23.8742 124.678 24.44C123.171 24.8854 122.417 25.883 122.417 27.4328C122.417 32.9343 122.403 38.4359 122.437 43.9375C122.437 44.5715 122.253 44.6737 121.672 44.6737C118.173 44.6465 114.675 44.6465 111.176 44.6737C110.616 44.6737 110.5 44.5033 110.506 43.9852C110.527 39.2199 110.52 34.4478 110.52 29.6825L110.506 29.6689Z" fill="white"/>
<path id="Vector_11" d="M170.038 60.0056C169.853 60.292 169.929 60.551 169.929 60.7896C169.929 63.4484 169.915 66.1071 169.929 68.7659C169.929 69.2363 169.819 69.3999 169.32 69.3931C167.892 69.359 166.464 69.3658 165.043 69.3931C164.605 69.3999 164.448 69.2635 164.4 68.8204C164.209 67.0684 164.148 65.3027 164.12 63.5438C164.038 59.0308 164.011 54.5177 164.277 50.0115C164.38 48.239 164.359 48.239 166.157 48.239C167.195 48.239 168.227 48.2594 169.266 48.2322C169.642 48.2254 169.826 48.3617 170.004 48.6889C171.548 51.5727 173.113 54.4495 174.671 57.3264C174.787 57.5446 174.917 57.7559 175.047 57.9809C175.279 57.8241 175.17 57.6264 175.17 57.4696C175.176 54.6268 175.183 51.784 175.17 48.9412C175.17 48.4708 175.272 48.3072 175.771 48.3208C177.24 48.3549 178.716 48.3481 180.192 48.3208C180.602 48.3208 180.739 48.4094 180.739 48.8526C180.725 55.5471 180.725 62.2417 180.739 68.9295C180.739 69.3862 180.575 69.4544 180.178 69.4476C178.73 69.4272 177.281 69.4203 175.832 69.4476C175.395 69.4544 175.183 69.2976 174.985 68.9295C173.502 66.1685 171.999 63.4143 170.496 60.6601C170.38 60.442 170.311 60.1897 170.045 60.0193L170.038 60.0056Z" fill="white"/>
<path id="Vector_12" d="M211.945 59.774C211.945 62.7531 211.931 65.7323 211.959 68.7114C211.959 69.2432 211.836 69.4136 211.282 69.3932C209.834 69.3523 208.385 69.3659 206.929 69.3932C206.492 69.4 206.328 69.3045 206.328 68.8273C206.342 62.1532 206.342 55.4859 206.328 48.8117C206.328 48.3959 206.437 48.2595 206.868 48.2664C208.317 48.2936 209.765 48.2936 211.221 48.2664C211.672 48.2595 211.904 48.4027 212.123 48.8049C213.64 51.6545 215.191 54.4837 216.735 57.3197C216.824 57.4833 216.844 57.7969 217.097 57.7424C217.371 57.6879 217.241 57.3947 217.248 57.2106C217.254 54.436 217.268 51.6614 217.248 48.8867C217.248 48.3822 217.357 48.2255 217.89 48.2391C219.359 48.28 220.835 48.2664 222.311 48.2459C222.687 48.2459 222.878 48.28 222.871 48.7436C222.851 55.4586 222.858 62.1805 222.871 68.8955C222.871 69.3182 222.755 69.4409 222.331 69.4341C220.856 69.4068 219.386 69.4068 217.91 69.4341C217.459 69.4409 217.227 69.3113 217.008 68.8955C215.464 65.9845 213.886 63.0872 212.321 60.1898C212.239 60.033 212.143 59.883 212.054 59.7331L211.945 59.7671V59.774Z" fill="white"/>
<path id="Vector_13" d="M148.41 58.7103C148.41 55.4107 148.424 52.1043 148.396 48.8048C148.396 48.2594 148.54 48.123 149.087 48.123C153.364 48.1435 157.649 48.1435 161.926 48.123C162.48 48.123 162.623 48.273 162.61 48.8116C162.569 50.141 162.582 51.4703 162.61 52.7997C162.616 53.2428 162.5 53.386 162.036 53.3792C159.664 53.3587 157.293 53.3792 154.922 53.3587C154.423 53.3587 154.198 53.461 154.259 53.9996C154.321 54.5858 154.02 55.3562 154.376 55.7243C154.731 56.0993 155.51 55.8402 156.098 55.8402C157.778 55.8539 159.459 55.8607 161.14 55.8402C161.557 55.8402 161.694 55.9493 161.687 56.3788C161.66 57.8241 161.66 59.2693 161.687 60.7146C161.701 61.185 161.537 61.2872 161.099 61.2804C159.049 61.26 156.999 61.2872 154.956 61.26C154.458 61.26 154.253 61.3554 154.3 61.894C154.348 62.5348 154.341 63.1756 154.3 63.8165C154.273 64.2528 154.437 64.3482 154.854 64.3482C157.204 64.3278 159.548 64.3482 161.899 64.3278C162.364 64.3278 162.534 64.4164 162.521 64.9209C162.48 66.2025 162.493 67.491 162.521 68.7726C162.528 69.2089 162.418 69.3521 161.954 69.3521C157.628 69.3317 153.296 69.3317 148.97 69.3521C148.499 69.3521 148.403 69.1953 148.41 68.7658C148.424 65.4185 148.417 62.0712 148.417 58.7239L148.41 58.7103Z" fill="white"/>
<path id="Vector_14" d="M132.892 58.7789C132.892 55.4997 132.906 52.2206 132.878 48.9415C132.878 48.3961 133.022 48.2598 133.562 48.2598C137.819 48.2802 142.083 48.2802 146.34 48.2598C146.852 48.2598 147.016 48.3757 146.996 48.9006C146.955 50.1822 146.962 51.4707 146.996 52.7524C147.009 53.25 146.845 53.3523 146.374 53.3523C144.023 53.3318 141.68 53.3523 139.329 53.3318C138.837 53.3318 138.693 53.4682 138.728 53.9454C138.769 54.5385 138.769 55.1384 138.728 55.7315C138.693 56.2019 138.878 56.311 139.322 56.3042C141.393 56.2837 143.463 56.311 145.54 56.2837C146.046 56.2837 146.21 56.386 146.196 56.9245C146.155 58.3016 146.162 59.6787 146.196 61.049C146.21 61.5126 146.06 61.6149 145.622 61.608C143.504 61.5876 141.386 61.608 139.267 61.5876C138.823 61.5876 138.687 61.6967 138.693 62.1534C138.721 64.3554 138.693 66.5574 138.714 68.7594C138.714 69.2025 138.611 69.3525 138.147 69.3457C136.582 69.3184 135.017 69.3116 133.452 69.3457C132.974 69.3525 132.892 69.182 132.899 68.7594C132.913 65.4325 132.906 62.1125 132.906 58.7857L132.892 58.7789Z" fill="white"/>
<path id="Vector_15" d="M4.70786 0.218194C4.70786 14.9913 4.70786 29.7644 4.70786 44.5443C3.39589 44.5443 2.08391 44.5443 0.778769 44.5715C0.368777 44.5783 0.279945 44.4215 0.286778 44.0534C0.300445 43.2967 0.266279 42.54 0.259446 41.7901C0.238946 35.0341 0.218446 28.2782 0.20478 21.5222C0.18428 14.6504 0.170614 7.77858 0.129615 0.906741C0.122781 0.320454 0.273112 0.163656 0.847101 0.190925C2.13174 0.238646 3.42322 0.218194 4.70786 0.218194Z" fill="#92D402"/>
<path id="Vector_16" d="M196.632 66.6391C196.632 67.2595 196.591 67.8798 196.645 68.4934C196.693 68.9979 196.475 69.2569 196.044 69.4001C195.764 69.4955 195.477 69.6455 195.19 69.6523C193.147 69.7273 191.104 69.8705 189.061 69.6455C186.006 69.2978 184.148 67.5185 183.239 64.7098C182.043 61.0148 182.016 57.2858 183.082 53.5499C184.066 50.0935 186.457 48.3483 189.915 47.8506C192.074 47.537 194.179 47.7347 196.242 48.4164C196.577 48.5255 196.768 48.6482 196.762 49.0709C196.727 50.4207 196.734 51.7774 196.762 53.1272C196.768 53.5567 196.618 53.5976 196.242 53.5567C194.876 53.3999 193.502 53.1954 192.122 53.209C189.956 53.2226 188.862 54.218 188.596 56.3518C188.384 58.0697 188.377 59.7809 188.596 61.492C188.862 63.5577 190.058 64.6075 192.163 64.6348C193.509 64.6552 194.814 64.3689 196.133 64.1644C196.536 64.1031 196.666 64.1644 196.645 64.5734C196.618 65.262 196.639 65.9505 196.639 66.6391H196.632Z" fill="white"/>
<path id="Vector_17" d="M204.189 58.8468C204.189 62.1464 204.176 65.446 204.203 68.7524C204.203 69.2773 204.06 69.4068 203.547 69.4C202.098 69.3659 200.65 69.3727 199.194 69.4C198.757 69.4068 198.593 69.3046 198.6 68.8342C198.613 62.1873 198.613 55.5404 198.6 48.8868C198.6 48.4232 198.743 48.3073 199.187 48.3141C200.657 48.3414 202.133 48.3482 203.609 48.3141C204.128 48.3005 204.203 48.505 204.196 48.9549C204.183 52.2545 204.189 55.5541 204.189 58.8605V58.8468Z" fill="white"/>
<path id="Vector_18" d="M244 8.87608C244 11.2349 242.127 13.1164 239.763 13.1233C237.358 13.1369 235.465 11.2553 235.472 8.85563C235.472 6.49684 237.351 4.61527 239.715 4.60164C242.107 4.588 244.006 6.47639 244.006 8.86926L244 8.87608ZM239.749 5.14702C237.699 5.1402 235.998 6.80362 235.984 8.83518C235.971 10.8531 237.665 12.5779 239.688 12.612C241.697 12.646 243.453 10.9417 243.487 8.93062C243.514 6.85134 241.84 5.15384 239.756 5.1402L239.749 5.14702Z" fill="#92D402"/>
<path id="Vector_19" d="M238.014 8.72633C238.014 8.05824 238.034 7.39696 238.007 6.72886C237.993 6.31983 238.137 6.13576 238.554 6.14258C239.08 6.14939 239.613 6.11531 240.139 6.14258C240.795 6.18348 241.376 6.42209 241.594 7.10381C241.793 7.73101 241.635 8.29002 241.075 8.67861C240.897 8.80814 240.898 8.86268 241.041 9.01947C241.547 9.55122 241.526 10.2875 241.765 10.9215C241.84 11.1192 241.765 11.2555 241.547 11.2146C241.205 11.1465 240.727 11.4669 240.549 10.9079C240.433 10.5602 240.365 10.1989 240.255 9.85119C240.18 9.60576 240.071 9.37397 239.791 9.29217C239.415 9.18309 239.087 9.12855 239.162 9.71484C239.196 9.98753 239.155 10.267 239.169 10.5397C239.196 10.9692 239.182 11.2487 238.581 11.2487C237.952 11.2487 238.007 10.9147 238.007 10.5193C238.014 9.92618 238.007 9.32625 238.007 8.73315L238.014 8.72633ZM239.169 7.70374C239.189 8.03097 239.039 8.41955 239.627 8.37183C240.125 8.33093 240.508 8.17413 240.494 7.64238C240.488 7.1379 240.078 7.00837 239.627 6.97429C238.984 6.92656 239.203 7.39696 239.162 7.69692L239.169 7.70374Z" fill="#92D402"/>
</g>
<defs>
<clipPath id="clip0_420_184">
<rect width="244" height="70" fill="white"/>
</clipPath>
</defs>
</svg>
