<svg width="159" height="159" viewBox="0 0 159 159" fill="none" xmlns="http://www.w3.org/2000/svg">
<rect width="159" height="159" rx="79.5" fill="white"/>
<path d="M142.126 79.6489C142.126 114.168 114.143 142.15 79.6247 142.15C45.106 142.15 17.123 114.168 17.123 79.6489C17.123 45.1302 45.106 17.1472 79.6247 17.1472C114.143 17.1472 142.126 45.1302 142.126 79.6489Z" fill="white"/>
<path d="M137.643 82.5707L145.735 83.0709L145.666 84.1995L137.573 83.6993L137.643 82.5707ZM145.118 80.1883L146.151 80.2521L145.731 87.0359L144.699 86.9721L145.118 80.1883Z" fill="#363633"/>
<path d="M137.238 87.5598L145.45 89.0612L145.247 90.1736L137.035 88.6721L137.238 87.5598ZM137.1 88.3171L138.117 88.5032L137.256 93.2129L136.238 93.0269L137.1 88.3171ZM140.815 88.9965L141.786 89.1739L140.996 93.4931L140.026 93.3157L140.815 88.9965ZM144.294 89.6325L145.312 89.8186L144.462 94.4691L143.444 94.2831L144.294 89.6325Z" fill="#363633"/>
<path d="M135.113 96.4672C135.304 95.8379 135.583 95.3358 135.948 94.9606C136.314 94.5855 136.767 94.2917 137.31 94.0793L137.823 95.0398C137.393 95.1857 137.036 95.3957 136.751 95.6698C136.474 95.9461 136.263 96.326 136.116 96.8094C135.971 97.2852 135.959 97.6965 136.08 98.0433C136.199 98.3979 136.439 98.6299 136.799 98.7395C137.098 98.8304 137.361 98.8348 137.587 98.7526C137.813 98.6704 138.02 98.5279 138.208 98.325C138.4 98.1321 138.585 97.9115 138.761 97.6632C138.944 97.4173 139.132 97.1725 139.323 96.9289C139.522 96.6876 139.737 96.4763 139.968 96.2951C140.207 96.1162 140.483 95.9946 140.796 95.9304C141.106 95.8739 141.465 95.9074 141.872 96.0309C142.324 96.1685 142.675 96.3924 142.925 96.7029C143.179 97.0233 143.334 97.3972 143.389 97.8245C143.448 98.2618 143.406 98.7183 143.262 99.194C143.103 99.7158 142.857 100.152 142.524 100.504C142.199 100.858 141.832 101.115 141.422 101.275L140.91 100.315C141.258 100.161 141.543 99.967 141.765 99.7327C141.985 99.5061 142.149 99.2163 142.256 98.8633C142.386 98.4336 142.394 98.063 142.279 97.7515C142.172 97.4423 141.95 97.2364 141.612 97.1339C141.343 97.0523 141.104 97.0549 140.893 97.1417C140.687 97.2386 140.492 97.3846 140.307 97.5798C140.122 97.7751 139.938 97.9957 139.754 98.2416C139.576 98.4976 139.387 98.7462 139.188 98.9874C138.989 99.2287 138.766 99.4377 138.52 99.6142C138.273 99.7908 137.987 99.9051 137.661 99.9569C137.341 100.019 136.97 99.9856 136.548 99.8574C135.842 99.643 135.364 99.2296 135.114 98.6172C134.862 98.0126 134.862 97.2959 135.113 96.4672Z" fill="#363633"/>
<path d="M133.148 102.265L140.58 105.506L140.128 106.543L132.696 103.301L133.148 102.265ZM140.987 102.587L141.936 103L139.218 109.23L138.27 108.817L140.987 102.587Z" fill="#363633"/>
<path d="M130.989 106.921L138.177 111.167L137.602 112.141L130.414 107.895L130.989 106.921ZM130.597 107.584L131.488 108.11L129.053 112.232L128.162 111.706L130.597 107.584ZM133.849 109.505L134.699 110.007L132.465 113.787L131.616 113.286L133.849 109.505ZM136.894 111.304L137.785 111.83L135.381 115.901L134.49 115.375L136.894 111.304Z" fill="#363633"/>
<path d="M127.037 113.34L127.848 113.982L126.408 115.803C126.025 116.287 125.793 116.794 125.713 117.323C125.638 117.857 125.707 118.371 125.919 118.866C126.126 119.367 126.471 119.809 126.956 120.192C127.434 120.57 127.941 120.802 128.476 120.888C129.011 120.974 129.527 120.917 130.023 120.716C130.519 120.515 130.956 120.176 131.334 119.698L132.767 117.886L133.578 118.527L132.131 120.358C131.753 120.836 131.323 121.212 130.841 121.485C130.354 121.765 129.846 121.936 129.316 121.997C128.782 122.066 128.252 122.025 127.726 121.875C127.196 121.731 126.695 121.473 126.223 121.1C125.757 120.732 125.39 120.304 125.122 119.816C124.855 119.339 124.69 118.836 124.629 118.306C124.567 117.777 124.616 117.243 124.775 116.705C124.93 116.173 125.194 115.671 125.567 115.199L127.037 113.34ZM127.499 112.755L134.048 117.933L133.347 118.82L126.798 113.642L127.499 112.755Z" fill="#363633"/>
<path d="M120.351 121.224L123.225 129.774L122.606 130.309L114.572 126.219L115.5 125.417L122.238 128.926L121.92 129.202L119.441 122.011L120.351 121.224ZM120.357 123.715L121.002 124.461L117.68 127.332L117.035 126.586L120.357 123.715Z" fill="#363633"/>
<path d="M113.93 126.646L118.463 133.657L117.796 134.088L116.801 133.17L112.98 127.26L113.93 126.646ZM109.081 129.782L117.101 132.747L117.796 134.088L109.773 131.139L109.081 129.782ZM109.081 129.782L110.036 130.639L113.897 136.609L112.947 137.223L108.414 130.213L109.081 129.782Z" fill="#363633"/>
<path d="M106.262 131.364L106.69 132.306L104.576 133.266C104.014 133.521 103.575 133.865 103.261 134.298C102.95 134.739 102.776 135.228 102.738 135.765C102.693 136.305 102.798 136.856 103.053 137.419C103.305 137.973 103.649 138.412 104.086 138.733C104.522 139.054 105.007 139.24 105.54 139.288C106.073 139.337 106.617 139.235 107.172 138.983L109.275 138.028L109.703 138.97L107.578 139.935C107.023 140.187 106.469 140.324 105.915 140.347C105.354 140.372 104.824 140.291 104.325 140.104C103.819 139.92 103.366 139.641 102.968 139.267C102.562 138.897 102.234 138.438 101.986 137.89C101.74 137.35 101.61 136.801 101.595 136.244C101.576 135.698 101.66 135.175 101.847 134.676C102.035 134.177 102.323 133.725 102.711 133.32C103.092 132.918 103.557 132.592 104.104 132.343L106.262 131.364ZM106.941 131.055L110.393 138.657L109.363 139.124L105.912 131.523L106.941 131.055Z" fill="#363633"/>
<path d="M95.338 135.622L95.5706 136.58L93.1157 137.176C92.648 137.29 92.3148 137.515 92.116 137.852C91.9191 138.197 91.868 138.564 91.9625 138.954C92.0268 139.219 92.1429 139.442 92.3109 139.624C92.4808 139.814 92.6938 139.944 92.9501 140.014C93.1986 140.086 93.4709 140.086 93.767 140.014L96.2571 139.409L96.4897 140.368L94.1633 140.933C93.7736 141.027 93.4904 141.203 93.3135 141.461C93.1308 141.728 93.0867 142.056 93.1812 142.446C93.2758 142.836 93.4685 143.102 93.7592 143.246C94.0519 143.398 94.397 143.426 94.7944 143.329L97.0741 142.776L97.3067 143.735L95.0037 144.294C94.4737 144.422 94.0097 144.432 93.6117 144.322C93.2078 144.222 92.8784 144.038 92.6235 143.77C92.3609 143.503 92.1841 143.183 92.0933 142.809C91.9874 142.372 92.0156 141.961 92.1778 141.575C92.3321 141.191 92.6166 140.85 93.031 140.551L93.0226 140.925C92.455 140.864 91.9807 140.678 91.5997 140.366C91.2128 140.064 90.9569 139.656 90.8321 139.141C90.7281 138.713 90.7397 138.301 90.8669 137.907C90.9941 137.513 91.2309 137.163 91.5773 136.856C91.9178 136.559 92.3726 136.341 92.9415 136.203L95.338 135.622ZM96.0745 135.443L98.0432 143.556L96.9443 143.823L94.9756 135.71L96.0745 135.443Z" fill="#363633"/>
<path d="M85.856 137.283C86.47 137.217 87.0348 137.293 87.5505 137.511C88.0592 137.738 88.4789 138.076 88.8098 138.524C89.1416 138.98 89.3407 139.515 89.4072 140.129L89.9736 145.356L88.8494 145.477L88.2856 140.275C88.2381 139.836 88.1054 139.468 87.8874 139.169C87.6695 138.87 87.3956 138.649 87.0656 138.507C86.7277 138.367 86.3634 138.317 85.9727 138.36C85.5661 138.404 85.2208 138.53 84.9368 138.738C84.6448 138.947 84.4284 139.221 84.2876 139.559C84.1388 139.898 84.0877 140.282 84.1343 140.713L84.6994 145.927L83.5632 146.05L82.9956 140.812C82.9291 140.198 83.0094 139.637 83.2366 139.128C83.4639 138.619 83.8015 138.2 84.2497 137.869C84.6987 137.546 85.2341 137.351 85.856 137.283Z" fill="#363633"/>
<path d="M81.0472 137.72L81.1761 146.067L80.0454 146.085L79.9165 137.737L81.0472 137.72Z" fill="#363633"/>
<path d="M78.0185 137.756L77.4713 146.087L76.343 146.013L76.8901 137.682L78.0185 137.756ZM77.2502 137.706L77.1824 138.738L72.717 138.445L72.7848 137.413L77.2502 137.706Z" fill="#363633"/>
<path d="M69.5827 136.875L68.094 144.845L66.9825 144.637L68.4711 136.667L69.5827 136.875ZM71.0305 144.586L70.8406 145.603L64.1594 144.355L64.3493 143.338L71.0305 144.586Z" fill="#363633"/>
<path d="M59.7378 134.245L56.8895 141.836L55.8307 141.439L58.6791 133.847L59.7378 134.245ZM59.8264 142.09L59.463 143.059L53.0995 140.671L53.4629 139.702L59.8264 142.09Z" fill="#363633"/>
<path d="M51.7914 130.508C52.3111 130.795 52.7433 131.157 53.0882 131.594C53.4291 132.039 53.6732 132.526 53.8205 133.056C53.9639 133.593 54.0044 134.142 53.9423 134.703C53.873 135.26 53.6951 135.799 53.4085 136.318C53.1179 136.845 52.7574 137.283 52.3269 137.632C51.8856 137.983 51.4049 138.24 50.8851 138.402C50.3582 138.561 49.8213 138.612 49.2743 138.558C48.7203 138.5 48.1835 138.327 47.6638 138.04C47.1442 137.754 46.7155 137.394 46.3776 136.96C46.0328 136.523 45.7868 136.039 45.6395 135.509C45.4923 134.979 45.4497 134.433 45.5119 133.872C45.5741 133.311 45.7505 132.767 46.041 132.241C46.3276 131.721 46.6917 131.285 47.133 130.933C47.5744 130.582 48.0586 130.327 48.5854 130.168C49.1053 130.006 49.6442 129.951 50.202 130.002C50.749 130.057 51.2788 130.225 51.7914 130.508ZM51.2896 131.468C50.7629 131.177 50.2371 131.043 49.7122 131.065C49.1763 131.09 48.6763 131.249 48.2122 131.542C47.7441 131.843 47.3591 132.267 47.0569 132.815C46.8322 133.222 46.6936 133.631 46.6411 134.042C46.5847 134.459 46.6062 134.86 46.7055 135.245C46.8048 135.629 46.9792 135.978 47.2286 136.289C47.4741 136.608 47.7935 136.876 48.1868 137.092C48.7064 137.379 49.2322 137.513 49.7642 137.496C50.2891 137.474 50.7837 137.316 51.2478 137.023C51.705 136.725 52.0846 136.303 52.3867 135.755C52.6114 135.348 52.7574 134.934 52.8247 134.513C52.8811 134.095 52.8631 133.696 52.7708 133.315C52.6677 132.938 52.4933 132.59 52.2477 132.271C51.9952 131.949 51.6758 131.681 51.2896 131.468Z" fill="#363633"/>
<path d="M44.6154 126.062L39.3191 132.515L38.445 131.798L43.7413 125.344L44.6154 126.062ZM44.0203 125.573L43.364 126.373L39.9048 123.534L40.5611 122.734L44.0203 125.573Z" fill="#363633"/>
<path d="M40.2351 122.499L31.8419 125.805L31.2763 125.214L34.9526 116.982L35.8011 117.868L32.6386 124.776L32.3475 124.472L39.4032 121.63L40.2351 122.499ZM37.7478 122.632L37.0352 123.315L33.9988 120.143L34.7114 119.461L37.7478 122.632Z" fill="#363633"/>
<path d="M33.2158 114.385C33.6104 114.911 33.851 115.432 33.9376 115.949C34.0242 116.465 33.9929 117.005 33.8437 117.568L32.7659 117.414C32.9022 116.981 32.9439 116.569 32.891 116.177C32.8317 115.791 32.6504 115.396 32.3473 114.991C32.0489 114.594 31.7241 114.341 31.3729 114.233C31.0168 114.12 30.688 114.176 30.3864 114.402C30.1362 114.59 29.9774 114.799 29.9101 115.03C29.8427 115.261 29.8355 115.512 29.8884 115.783C29.9301 116.052 29.9991 116.331 30.0953 116.62C30.1851 116.914 30.2717 117.21 30.3551 117.508C30.4321 117.811 30.4754 118.109 30.4851 118.403C30.4883 118.701 30.4233 118.996 30.2902 119.286C30.1522 119.57 29.9132 119.839 29.5732 120.094C29.1947 120.378 28.8065 120.529 28.4087 120.547C27.9997 120.563 27.6068 120.466 27.2298 120.258C26.8417 120.048 26.4984 119.744 26.2001 119.346C25.8729 118.91 25.666 118.453 25.5794 117.977C25.4864 117.505 25.496 117.057 25.6083 116.632L26.6861 116.786C26.6043 117.158 26.5923 117.503 26.65 117.821C26.703 118.132 26.8401 118.435 27.0614 118.73C27.3309 119.089 27.6252 119.315 27.9444 119.406C28.2572 119.502 28.5547 119.445 28.837 119.233C29.0616 119.065 29.2011 118.87 29.2556 118.648C29.2989 118.425 29.2965 118.182 29.2484 117.917C29.2003 117.652 29.1313 117.373 29.0415 117.08C28.9405 116.785 28.8515 116.485 28.7745 116.182C28.6975 115.879 28.6606 115.576 28.6638 115.273C28.667 114.97 28.744 114.671 28.8948 114.378C29.0343 114.083 29.2805 113.803 29.6334 113.538C30.2236 113.095 30.8396 112.954 31.4811 113.115C32.1179 113.269 32.6961 113.692 33.2158 114.385Z" fill="#363633"/>
<path d="M29.6854 109.339L22.6743 113.411L22.1064 112.434L29.1174 108.361L29.6854 109.339ZM24.7868 115.468L23.8922 115.987L20.4784 110.11L21.373 109.59L24.7868 115.468Z" fill="#363633"/>
<path d="M22.6583 102.325C22.7441 102.541 22.771 102.75 22.7392 102.953C22.7074 103.155 22.6287 103.337 22.5031 103.499C22.3672 103.657 22.1985 103.775 21.9973 103.855C21.796 103.935 21.5956 103.963 21.3961 103.938C21.1937 103.907 21.0115 103.828 20.8495 103.702C20.6801 103.58 20.5525 103.41 20.4667 103.194C20.3809 102.978 20.3592 102.771 20.4014 102.573C20.4333 102.371 20.5134 102.192 20.6419 102.038C20.7675 101.876 20.9309 101.755 21.1322 101.675C21.3334 101.595 21.539 101.569 21.7489 101.598C21.9484 101.623 22.1292 101.698 22.2911 101.823C22.4501 101.941 22.5725 102.109 22.6583 102.325Z" fill="#363633"/>
<path d="M22.8759 92.2877L21.9056 92.4651L21.4512 89.98C21.3647 89.5067 21.1589 89.1612 20.8337 88.9434C20.5007 88.7271 20.1369 88.655 19.7425 88.7271C19.4742 88.7762 19.2444 88.8793 19.0531 89.0366C18.8538 89.1953 18.712 89.4006 18.6276 89.6525C18.5418 89.8964 18.5262 90.1683 18.581 90.4681L19.0419 92.9886L18.0715 93.166L17.641 90.8112C17.5689 90.4167 17.4094 90.1238 17.1624 89.9326C16.9061 89.7348 16.5808 89.672 16.1863 89.7441C15.7919 89.8163 15.5145 89.9933 15.3541 90.2754C15.1858 90.5589 15.1384 90.9018 15.212 91.3042L15.6338 93.6117L14.6635 93.7891L14.2373 91.4579C14.1392 90.9214 14.1563 90.4577 14.2886 90.0666C14.4116 89.6691 14.6143 89.3508 14.8967 89.1117C15.1777 88.8646 15.5075 88.7065 15.8861 88.6373C16.3279 88.5565 16.7368 88.6081 17.1129 88.7921C17.4875 88.9682 17.812 89.2716 18.0864 89.7025L17.7141 89.6727C17.8068 89.1095 18.0198 88.6467 18.353 88.2841C18.6768 87.9151 19.0991 87.683 19.6198 87.5878C20.0537 87.5085 20.4636 87.5436 20.8497 87.6931C21.2358 87.8427 21.5721 88.0991 21.8586 88.4625C22.1359 88.8195 22.3271 89.2859 22.4324 89.8618L22.8759 92.2877ZM23.0122 93.0332L14.7998 94.5346L14.5964 93.4222L22.8088 91.9208L23.0122 93.0332Z" fill="#363633"/>
<path d="M21.8226 85.9101L13.492 86.4573L13.4179 85.3289L21.7485 84.7818L21.8226 85.9101ZM21.7722 85.1419L20.7399 85.2097L20.4466 80.7443L21.4789 80.6765L21.7722 85.1419Z" fill="#363633"/>
<path d="M21.753 76.3224C21.7173 76.9389 21.5492 77.4834 21.2487 77.956C20.9406 78.4202 20.5383 78.7784 20.0417 79.0308C19.537 79.2827 18.9765 79.3908 18.36 79.3551L13.1119 79.051L13.1773 77.9221L18.4014 78.2248C18.8417 78.2503 19.2274 78.1803 19.5583 78.0147C19.8892 77.8491 20.1518 77.6153 20.346 77.3133C20.5407 77.0032 20.6494 76.6521 20.6722 76.2597C20.6958 75.8514 20.6284 75.49 20.4699 75.1756C20.3118 74.8531 20.0778 74.5946 19.7678 74.3999C19.4582 74.1972 19.0872 74.0833 18.6549 74.0582L13.4187 73.7549L13.4848 72.614L18.745 72.9187C19.3615 72.9545 19.9018 73.1263 20.3659 73.4344C20.8301 73.7425 21.1883 74.1448 21.4407 74.6414C21.6851 75.1376 21.7892 75.6979 21.753 76.3224Z" fill="#363633"/>
<path d="M22.0328 71.5673L13.8262 70.0345L14.0338 68.9229L22.2404 70.4558L22.0328 71.5673ZM22.1741 70.8105L21.1572 70.6206L22.0362 65.9142L23.0532 66.1041L22.1741 70.8105ZM18.4611 70.117L17.4914 69.9359L18.2976 65.6197L19.2672 65.8008L18.4611 70.117ZM14.9845 69.4676L13.9675 69.2777L14.8355 64.6304L15.8525 64.8204L14.9845 69.4676Z" fill="#363633"/>
<path d="M24.1792 62.687C23.9857 63.3155 23.7055 63.8166 23.3387 64.1903C22.9718 64.5641 22.5169 64.8561 21.9738 65.0665L21.4646 64.1042C21.895 63.9598 22.253 63.7511 22.5384 63.4782C22.8162 63.2029 23.0294 62.8238 23.1781 62.341C23.3244 61.8658 23.3378 61.4545 23.2181 61.1072C23.1009 60.7522 22.8621 60.5193 22.5019 60.4083C22.203 60.3163 21.9403 60.3109 21.7139 60.3922C21.4874 60.4736 21.2802 60.6153 21.092 60.8175C20.8986 61.0097 20.7134 61.2296 20.5365 61.4772C20.3519 61.7224 20.1634 61.9665 19.9712 62.2094C19.7712 62.4499 19.5554 62.6603 19.3236 62.8407C19.0842 63.0187 18.8079 63.1393 18.4948 63.2023C18.1841 63.2576 17.8256 63.2228 17.4194 63.0977C16.9672 62.9584 16.617 62.7331 16.3688 62.4218C16.1153 62.1004 15.9621 61.7259 15.9091 61.2984C15.8509 60.8609 15.8949 60.4045 16.0412 59.9293C16.2017 59.4082 16.4491 58.9725 16.7835 58.6223C17.1103 58.2698 17.4785 58.014 17.8884 57.8549L18.3976 58.8172C18.0485 58.9699 17.7625 59.1629 17.5396 59.3964C17.319 59.6221 17.1544 59.9113 17.0459 60.2639C16.9137 60.6931 16.9045 61.0637 17.0182 61.3756C17.1243 61.6852 17.3459 61.8919 17.6832 61.9957C17.9514 62.0783 18.1911 62.0766 18.4022 61.9906C18.608 61.8945 18.8038 61.7492 18.9896 61.5547C19.1753 61.3601 19.3605 61.1403 19.5451 60.895C19.7244 60.6397 19.9141 60.3918 20.114 60.1513C20.3139 59.9108 20.5374 59.7027 20.7845 59.5271C21.0316 59.3514 21.3182 59.2383 21.6443 59.1876C21.965 59.127 22.3362 59.1615 22.7577 59.2913C23.4629 59.5085 23.9392 59.9237 24.1867 60.5369C24.4366 61.1425 24.4341 61.8592 24.1792 62.687Z" fill="#363633"/>
<path d="M26.9674 55.3741C26.7207 55.9227 26.3934 56.3866 25.9854 56.766C25.5702 57.142 25.1044 57.425 24.5881 57.615C24.0752 57.7976 23.5382 57.8771 22.9773 57.8535C22.4163 57.83 21.8652 57.6965 21.3239 57.4531C20.7754 57.2065 20.3061 56.8812 19.9162 56.4773C19.5262 56.0733 19.233 55.6205 19.0365 55.1189C18.8359 54.6067 18.7405 54.0758 18.7502 53.5262C18.7558 52.966 18.882 52.4116 19.1286 51.863C19.3983 51.2632 19.7375 50.7826 20.1462 50.4212C20.5549 50.0598 21.0137 49.7824 21.5226 49.5892L21.9152 50.623C21.536 50.7427 21.1907 50.9435 20.8792 51.2256C20.5711 51.5003 20.3167 51.8608 20.1161 52.3069C19.9352 52.7092 19.8423 53.1115 19.8373 53.5137C19.825 53.9127 19.8946 54.2957 20.0461 54.6628C20.1976 55.0299 20.4213 55.3635 20.7173 55.6636C21.0165 55.9564 21.3782 56.1981 21.8024 56.3889C22.2267 56.5796 22.6476 56.6897 23.0652 56.7192C23.4861 56.7414 23.8841 56.6873 24.2592 56.557C24.6344 56.4267 24.9707 56.2262 25.2683 55.9555C25.5585 55.6815 25.7941 55.3434 25.975 54.9411C26.1887 54.4657 26.2977 54.0179 26.302 53.5977C26.2989 53.1743 26.2163 52.781 26.0542 52.418L27.077 52.0205C27.2849 52.536 27.3844 53.0776 27.3754 53.6451C27.3698 54.2053 27.2337 54.7816 26.9674 55.3741Z" fill="#363633"/>
<path d="M30.5304 48.8144C30.2118 49.3151 29.8234 49.7238 29.3652 50.0406C28.9002 50.3531 28.3986 50.5663 27.8605 50.6801C27.3155 50.7896 26.765 50.7958 26.2089 50.6987C25.6572 50.5948 25.131 50.3835 24.6303 50.0649C24.1228 49.742 23.7085 49.3549 23.3874 48.9034C23.0639 48.4409 22.8375 47.9452 22.7083 47.4162C22.5834 46.8805 22.5652 46.3413 22.6537 45.7988C22.7466 45.2495 22.9523 44.7246 23.2709 44.2239C23.5894 43.7232 23.9757 43.3178 24.4296 43.0078C24.8878 42.691 25.386 42.4756 25.9242 42.3618C26.4624 42.248 27.0095 42.2396 27.5656 42.3368C28.1216 42.4339 28.6534 42.6439 29.1608 42.9668C29.6615 43.2854 30.0737 43.676 30.3972 44.1385C30.7208 44.601 30.945 45.1001 31.0699 45.6359C31.1991 46.1648 31.2207 46.7061 31.1346 47.2597C31.0461 47.8022 30.8447 48.3204 30.5304 48.8144ZM29.6041 48.2535C29.9269 47.746 30.0939 47.2296 30.1049 46.7043C30.1135 46.168 29.9858 45.659 29.7219 45.1774C29.4513 44.6915 29.0521 44.2807 28.5243 43.9449C28.1318 43.6952 27.7323 43.5313 27.3258 43.4532C26.9124 43.3708 26.5108 43.3671 26.1208 43.4422C25.7308 43.5173 25.3726 43.6695 25.046 43.899C24.7126 44.1241 24.4254 44.4261 24.1843 44.805C23.8657 45.3058 23.6988 45.8221 23.6834 46.3542C23.6724 46.8795 23.7988 47.3829 24.0627 47.8645C24.3309 48.3393 24.7289 48.7446 25.2567 49.0804C25.6491 49.3301 26.0533 49.5017 26.4691 49.5952C26.8824 49.6776 27.2819 49.6846 27.6676 49.6163C28.0507 49.5369 28.409 49.3847 28.7424 49.1595C29.08 48.9276 29.3673 48.6256 29.6041 48.2535Z" fill="#363633"/>
<path d="M31.6188 41.4195L30.8678 40.7799L32.3419 39.0489C32.5447 38.8108 32.6753 38.5586 32.7336 38.2922C32.7971 38.0197 32.7845 37.7562 32.6958 37.5016C32.6123 37.2409 32.4485 37.0066 32.2043 36.7986C31.96 36.5906 31.7026 36.4662 31.4319 36.4253C31.1665 36.3783 30.9043 36.4078 30.6454 36.5139C30.3917 36.6139 30.1635 36.7829 29.9607 37.0211L28.4866 38.752L27.7356 38.1125L29.2565 36.3266C29.5893 35.9358 29.9651 35.6554 30.3838 35.4853C30.8077 35.3091 31.2416 35.2572 31.6855 35.3298C32.1284 35.391 32.5484 35.5906 32.9452 35.9285C33.336 36.2613 33.5999 36.6441 33.737 37.0768C33.8732 37.4983 33.8911 37.9349 33.7908 38.3867C33.6895 38.8272 33.4725 39.2428 33.1397 39.6336L31.6188 41.4195ZM33.6003 44.1023L27.2442 38.6895L27.9774 37.8286L34.3334 43.2414L33.6003 44.1023Z" fill="#363633"/>
<path d="M38.0574 38.9834L32.3724 32.8695L33.2005 32.0995L38.8855 38.2134L38.0574 38.9834ZM38.6212 38.4591L37.9167 37.7015L41.423 34.4413L42.1274 35.1989L38.6212 38.4591ZM36.049 35.6929L35.3773 34.9705L38.5928 31.9806L39.2646 32.703L36.049 35.6929ZM33.6407 33.1029L32.9362 32.3453L36.3984 29.126L37.1029 29.8836L33.6407 33.1029Z" fill="#363633"/>
<path d="M46.4665 31.9506L41.7047 25.0932L42.6236 24.4551L47.3854 31.3125L46.4665 31.9506ZM40.878 26.8976L40.3016 26.0676L42.5248 24.5237L43.1012 25.3537L40.878 26.8976Z" fill="#363633"/>
<path d="M51.1699 29.1344C50.6233 29.4385 50.0365 29.5632 49.4094 29.5083C48.7893 29.4495 48.1901 29.2139 47.6118 28.8015C47.0297 28.382 46.5261 27.7904 46.101 27.0265C45.676 26.2627 45.4371 25.5283 45.3844 24.8234C45.3388 24.1145 45.4564 23.4847 45.7372 22.9338C46.0141 22.3759 46.4224 21.9468 46.962 21.6465C47.5156 21.3384 48.1024 21.2138 48.7225 21.2726C49.3387 21.3243 49.9324 21.5584 50.5037 21.9747C51.0819 22.3872 51.5855 22.9788 52.0145 23.7497C52.4395 24.5136 52.6768 25.2534 52.7264 25.9692C52.7791 26.6741 52.667 27.3055 52.39 27.8634C52.1162 28.4105 51.7095 28.8341 51.1699 29.1344ZM50.6283 28.2105C51.0137 27.996 51.2916 27.7037 51.4619 27.3336C51.6354 26.9526 51.6892 26.5051 51.6234 25.991C51.5577 25.4769 51.3532 24.9116 51.01 24.2949C50.6669 23.6782 50.2961 23.2099 49.8979 22.89C49.4957 22.5631 49.089 22.3765 48.6777 22.33C48.2625 22.2766 47.8621 22.3571 47.4767 22.5715C47.0983 22.7821 46.8223 23.0779 46.6489 23.4589C46.4716 23.833 46.4158 24.277 46.4816 24.7911C46.5505 25.2942 46.7565 25.8541 47.0996 26.4708C47.4428 27.0875 47.812 27.5612 48.2071 27.892C48.6093 28.2189 49.018 28.4091 49.4332 28.4625C49.8445 28.509 50.2429 28.425 50.6283 28.2105Z" fill="#363633"/>
<path d="M59.6506 21.4872L54.9555 17.8397L56.198 17.4208L60.0008 20.4171L59.4422 20.6054L60.6665 15.9145L61.8863 15.5034L60.3346 21.2566L59.6506 21.4872ZM60.5519 24.7633L59.23 20.8419L60.3015 20.4807L61.6234 24.4021L60.5519 24.7633Z" fill="#363633"/>
<path d="M65.0826 23.3283L63.3934 15.1524L64.5007 14.9236L66.19 23.0995L65.0826 23.3283ZM65.8366 23.1725L65.6273 22.1594L70.316 21.1906L70.5254 22.2037L65.8366 23.1725ZM65.0723 19.4734L64.8727 18.5073L69.1727 17.6189L69.3723 18.5849L65.0723 19.4734ZM64.3567 16.0098L64.1473 14.9967L68.7772 14.04L68.9865 15.0532L64.3567 16.0098Z" fill="#363633"/>
<path d="M71.2381 22.0352L74.0009 13.4482L74.8165 13.3851L78.8541 21.4465L77.6308 21.541L74.292 14.7167L74.7118 14.6842L72.4374 21.9425L71.2381 22.0352ZM72.7117 20.027L72.6356 19.0435L77.0134 18.7051L77.0894 19.6886L72.7117 20.027Z" fill="#363633"/>
<path d="M80.7607 17.9L80.812 16.951L83.0703 17.0731C83.5587 17.0995 83.9418 16.9958 84.2195 16.7618C84.4972 16.5278 84.6475 16.1987 84.6705 15.7742C84.6921 15.3738 84.578 15.0343 84.328 14.7558C84.086 14.4777 83.7208 14.3254 83.2323 14.299L80.962 14.1762L81.0153 13.1912L83.3216 13.3159C83.8501 13.3445 84.305 13.4735 84.6861 13.703C85.0677 13.9244 85.353 14.2169 85.5422 14.5805C85.7394 14.9445 85.8256 15.3548 85.8009 15.8113C85.7754 16.2837 85.645 16.6903 85.4097 17.031C85.1824 17.3721 84.8672 17.6321 84.464 17.8111C84.0612 17.9821 83.5955 18.0533 83.067 18.0247L80.7607 17.9ZM79.8078 21.4867L80.2585 13.1503L81.3877 13.2114L80.9369 21.5477L79.8078 21.4867ZM84.6126 21.7465L81.7875 17.8471L82.8768 17.5325L86.042 21.8238L84.6126 21.7465Z" fill="#363633"/>
<path d="M92.0575 22.8215L91.6054 14.0493L92.6969 14.3451L93.0059 21.4832L92.6924 21.3982L96.5284 15.3834L97.318 15.5974L97.5922 22.726L97.2903 22.6442L101.161 16.6389L102.241 16.9315L97.4333 24.2783L96.6553 24.0675L96.3664 16.9473L96.6682 17.0291L92.8354 23.0323L92.0575 22.8215Z" fill="#363633"/>
<path d="M99.9992 25.09L106.562 18.901L107.306 19.2392L106.954 28.2483L105.837 27.741L106.205 20.1526L106.588 20.3266L101.094 25.5874L99.9992 25.09ZM102.259 24.0418L102.667 23.1436L106.665 24.959L106.257 25.8572L102.259 24.0418Z" fill="#363633"/>
<path d="M110.13 25.9322L110.632 25.1249L112.553 26.3178C112.969 26.5759 113.354 26.6691 113.71 26.5975C114.066 26.5259 114.356 26.3095 114.581 25.9484C114.792 25.6078 114.855 25.2552 114.77 24.8908C114.692 24.5306 114.445 24.2214 114.029 23.9634L112.097 22.7641L112.618 21.926L114.58 23.1444C115.03 23.4236 115.366 23.7554 115.59 24.1398C115.818 24.5175 115.928 24.9111 115.919 25.3209C115.917 25.7349 115.795 26.1361 115.554 26.5245C115.304 26.9264 114.995 27.2202 114.624 27.4058C114.261 27.5956 113.86 27.672 113.42 27.635C112.985 27.5913 112.542 27.4298 112.093 27.1506L110.13 25.9322ZM107.57 28.6189L111.974 21.5263L112.935 22.1227L108.531 29.2153L107.57 28.6189ZM111.658 31.1571L111.056 26.3796L112.162 26.6276L112.874 31.9122L111.658 31.1571Z" fill="#363633"/>
<path d="M116.865 30.3783L117.465 29.6415L119.219 31.0698C119.598 31.3788 119.969 31.5205 120.331 31.4949C120.693 31.4693 121.009 31.2917 121.277 30.9622C121.53 30.6513 121.638 30.3097 121.6 29.9373C121.568 29.5701 121.363 29.2319 120.983 28.923L119.221 27.487L119.844 26.7222L121.634 28.181C122.045 28.5153 122.336 28.8873 122.509 29.2972C122.687 29.7008 122.746 30.1053 122.685 30.5106C122.63 30.9209 122.458 31.3033 122.169 31.6577C121.87 32.0245 121.525 32.2764 121.135 32.4132C120.75 32.5551 120.342 32.5797 119.911 32.4869C119.485 32.388 119.066 32.1713 118.656 31.837L116.865 30.3783ZM113.983 32.7163L119.256 26.2436L120.133 26.9577L114.86 33.4305L113.983 32.7163ZM117.714 35.7553L117.726 30.9401L118.792 31.3272L118.824 36.6595L117.714 35.7553Z" fill="#363633"/>
<path d="M119.041 36.8059L127.446 33.531L128.01 34.1239L124.303 42.3429L123.458 41.4535L126.646 34.5572L126.936 34.8624L119.87 37.6778L119.041 36.8059ZM121.529 36.682L122.244 36.0024L125.269 39.1851L124.554 39.8647L121.529 36.682Z" fill="#363633"/>
<path d="M124.838 43.0125L131.625 38.1509L132.087 38.7964L131.217 39.8337L125.496 43.9318L124.838 43.0125ZM128.2 47.7067L130.78 39.5546L132.087 38.7964L129.523 46.9511L128.2 47.7067ZM128.2 47.7067L129.011 46.7113L134.791 42.5713L135.449 43.4905L128.662 48.3521L128.2 47.7067Z" fill="#363633"/>
<path d="M130.551 51.6754L137.707 47.8644L138.239 48.8625L131.082 52.6734L130.551 51.6754ZM135.672 45.7318L136.585 45.2455L139.78 51.2447L138.867 51.7309L135.672 45.7318Z" fill="#363633"/>
<path d="M136.999 57.5174L140.468 52.6884L140.933 53.9143L138.082 57.8271L137.873 57.276L142.606 58.3231L143.063 59.5265L137.255 58.1922L136.999 57.5174ZM133.759 58.5411L137.628 57.0728L138.029 58.13L134.161 59.5983L133.759 58.5411Z" fill="#363633"/>
<path d="M140.058 69.3346C140.02 69.1053 140.038 68.895 140.112 68.7038C140.185 68.5126 140.301 68.351 140.458 68.2191C140.624 68.0938 140.813 68.0133 141.027 67.9776C141.241 67.9419 141.442 67.957 141.632 68.0229C141.823 68.0966 141.985 68.212 142.117 68.3688C142.257 68.5243 142.346 68.7168 142.384 68.9462C142.422 69.1756 142.4 69.3826 142.317 69.5672C142.243 69.7584 142.127 69.916 141.969 70.04C141.812 70.1719 141.627 70.2557 141.413 70.2913C141.2 70.327 140.994 70.3086 140.794 70.2362C140.605 70.1703 140.444 70.059 140.312 69.9021C140.181 69.7532 140.097 69.564 140.058 69.3346Z" fill="#363633"/>
<circle cx="79.7617" cy="79.7614" r="41.0576" fill="#363633"/>
<path d="M71.1488 96.5908C70.1129 91.5412 65.6331 83.4619 56 79.1115M56 79.1115C65.6331 74.7611 70.1129 67.4586 71.1488 62.409M56 79.1115L103 79.1115" stroke="white" stroke-width="3"/>
</svg>
