<svg width="115" height="33" viewBox="0 0 115 33" fill="none" xmlns="http://www.w3.org/2000/svg">
<g clip-path="url(#clip0_420_164)">
<path d="M-0.000197402 22.9438C1.29125 22.9567 2.5827 22.9824 3.87092 22.9856C8.52786 22.9952 13.1816 22.9985 17.8385 23.0017C26.1959 23.0049 34.55 23.0081 42.9074 23.0113C46.26 23.0113 49.6126 23.0081 52.9685 23.0017C54.5755 23.0017 56.1794 22.9952 57.7864 22.9888C58.8074 22.9824 59.825 22.9727 60.846 22.947C61.0907 22.9406 61.1777 22.9888 61.1745 23.2588C61.1648 26.2766 61.1648 29.2912 61.1745 32.309C61.1745 32.5661 61.1036 32.6304 60.8492 32.6304C40.6305 32.624 20.4118 32.624 0.193037 32.624C0.128625 32.624 0.0642139 32.6176 -0.00341797 32.6143V22.947L-0.000197402 22.9438Z" fill="#92D402"/>
<path d="M109.66 33C109.367 32.8875 109.049 32.91 108.749 32.8457C107.496 32.5822 106.662 31.8237 106.24 30.641C105.603 28.8573 105.583 27.0415 106.121 25.2289C106.578 23.6862 107.648 22.812 109.232 22.571C110.549 22.3717 111.847 22.4842 113.106 22.9406C113.264 22.9984 113.354 23.0595 113.351 23.2556C113.338 23.9048 113.338 24.5507 113.351 25.1999C113.351 25.396 113.284 25.4281 113.103 25.4153C112.517 25.3639 111.957 25.1839 111.377 25.1164C110.891 25.0585 110.401 25.0585 109.921 25.1582C109.171 25.3092 108.772 25.817 108.633 26.7458C108.501 27.6232 108.562 28.4909 108.762 29.349C108.952 30.1718 109.789 30.6699 110.614 30.4675C110.688 30.4482 110.733 30.4225 110.736 30.3453C110.739 30.2811 110.739 30.2168 110.739 30.1525C110.736 29.8408 110.83 29.4776 110.701 29.2269C110.562 28.9634 110.144 29.018 109.85 28.9312C109.706 28.8895 109.664 28.8316 109.667 28.6902C109.673 28.1053 109.677 27.5236 109.667 26.9386C109.664 26.7555 109.741 26.7297 109.899 26.7297C111.026 26.7362 112.156 26.7362 113.284 26.7297C113.47 26.7297 113.519 26.7876 113.519 26.9676C113.512 28.6645 113.512 30.3614 113.519 32.0583C113.519 32.2255 113.454 32.2962 113.313 32.3733C112.752 32.6722 112.153 32.8425 111.525 32.9325C111.467 32.9422 111.39 32.91 111.364 33H109.67H109.66Z" fill="white"/>
<path d="M78.3242 9.3427C78.1599 9.88584 77.9957 10.4258 77.8346 10.9689C77.1261 13.3793 76.4144 15.7929 75.7155 18.2065C75.6447 18.4444 75.5416 18.5215 75.2872 18.5215C73.8121 18.5087 72.3371 18.5087 70.8589 18.5215C70.6045 18.5215 70.5111 18.4412 70.4434 18.2001C69.6512 15.4748 68.846 12.7558 68.0409 10.0337C68.0022 9.90191 68.0216 9.6448 67.8477 9.68016C67.6609 9.71551 67.7704 9.95012 67.7736 10.1012C67.7865 10.9336 67.7961 11.766 67.8122 12.5983C67.867 15.3076 67.9217 18.0201 67.9894 20.7294C67.9958 21.009 67.9024 21.0573 67.6641 21.054C66.0699 21.0476 64.4757 21.0476 62.8783 21.054C62.6561 21.054 62.582 21.0026 62.582 20.768C62.5885 13.9578 62.5885 7.14763 62.582 0.337441C62.582 0.11247 62.6368 0.044979 62.8687 0.044979C65.0619 0.0546206 67.2519 0.0546206 69.4451 0.044979C69.6673 0.044979 69.7381 0.125326 69.7929 0.318158C70.817 3.97554 71.8476 7.62971 72.8782 11.2839C72.8911 11.3257 72.9072 11.3642 72.92 11.406C72.9458 11.4992 72.949 11.6181 73.0714 11.631C73.2357 11.647 73.2131 11.4831 73.2357 11.3996C74.1567 8.15036 75.0714 4.90113 75.986 1.6487C76.1181 1.18269 76.2598 0.716678 76.3757 0.244239C76.4176 0.07069 76.4981 0.0256958 76.6656 0.0256958C78.8588 0.0289097 81.0488 0.0321235 83.242 0.0256958C83.4481 0.0256958 83.5028 0.102829 83.5093 0.282805C83.5447 1.25339 83.5962 2.22398 83.6188 3.19778C83.7122 7.21833 83.7057 11.2389 83.6961 15.2594C83.6896 17.0206 83.7025 18.7818 83.6059 20.5398C83.5769 21.0508 83.5801 21.0508 83.0745 21.0508C81.5544 21.0508 80.0375 21.0444 78.5174 21.0572C78.2275 21.0572 78.1309 20.9962 78.1406 20.6909C78.2114 18.4026 78.2662 16.1143 78.3209 13.8228C78.3564 12.3766 78.3821 10.9271 78.4143 9.4809C78.4143 9.43912 78.4047 9.39734 78.3982 9.35556L78.3242 9.3427Z" fill="#92D402"/>
<path d="M2.21904 0.102821C2.43482 0.102821 2.6506 0.0963936 2.86637 0.0963936C6.82767 0.0963936 10.789 0.0996074 14.747 0.0899658C15.0498 0.0899658 15.1142 0.173526 15.111 0.462775C15.0981 2.03114 15.0916 3.59951 15.1142 5.16466C15.1206 5.49891 14.9725 5.52462 14.7245 5.52783C13.5522 5.53104 12.3799 5.5439 11.2109 5.55033C10.1159 5.55676 9.01766 5.56318 7.92267 5.55676C7.71333 5.55676 7.61993 5.58247 7.61993 5.82993C7.62959 8.99881 7.62959 12.1645 7.61993 15.3333C7.61993 15.5744 7.70689 15.613 7.91944 15.613C10.1996 15.6065 12.4765 15.613 14.7567 15.6033C15.0369 15.6033 15.1142 15.6644 15.111 15.9536C15.0949 17.5316 15.0949 19.1096 15.111 20.6877C15.111 20.9544 15.0498 21.0251 14.776 21.0251C10.8147 21.0155 6.85344 21.0187 2.89536 21.0187C2.66992 21.0187 2.44126 21.0123 2.21582 21.009C2.21582 14.0446 2.21582 7.07692 2.21582 0.112463L2.21904 0.102821Z" fill="white"/>
<path d="M51.4161 13.7939C51.3968 15.1438 51.2873 16.2686 51.0007 17.3742C50.4596 19.4696 49.1392 20.7937 47.0265 21.2951C45.1811 21.7354 43.3293 21.729 41.4904 21.2437C39.4807 20.7134 38.215 19.4375 37.7062 17.4192C37.1233 15.1084 37.1233 12.8073 37.7384 10.5029C38.2956 8.4107 39.6643 7.18621 41.7544 6.7202C43.4034 6.35061 45.062 6.34418 46.7206 6.66878C49.1328 7.14122 50.611 8.62603 51.107 11.075C51.1875 11.4671 51.2583 11.8624 51.297 12.2577C51.355 12.8362 51.3839 13.4211 51.4097 13.7907L51.4161 13.7939ZM42.9461 14.3949C42.9622 14.8545 42.9364 15.5358 43.0362 16.2108C43.0781 16.4936 43.1651 16.7571 43.4002 16.9467C44.1216 17.5381 45.3905 17.1588 45.6674 16.2718C45.7802 15.9151 45.7769 15.5487 45.8156 15.1823C45.9347 14.035 45.8768 12.894 45.6449 11.7692C45.5 11.0718 44.9525 10.715 44.1892 10.7857C43.4452 10.8532 43.0974 11.2228 43.0362 11.9749C42.9783 12.7076 42.9493 13.4404 42.9461 14.3949Z" fill="white"/>
<path d="M22.7306 21.6132C21.6871 21.5972 20.7177 21.5007 19.7741 21.2404C17.7935 20.6941 16.5439 19.4021 16.0415 17.432C15.4682 15.1951 15.4457 12.939 16.0189 10.6989C16.6792 8.11499 18.473 6.82301 21.0076 6.53055C21.5036 6.4727 22.006 6.50805 22.4987 6.46306C23.6388 6.36022 24.7306 6.60447 25.803 6.88729C27.497 7.33402 28.6403 8.43316 29.1621 10.1076C29.9576 12.6594 29.964 15.2369 29.2039 17.7984C28.621 19.7556 27.233 20.8548 25.2813 21.3143C24.4246 21.5168 23.5518 21.6036 22.7338 21.6132H22.7306ZM21.1622 13.8389C21.1622 14.7548 21.2169 15.5519 21.4166 16.3296C21.5648 16.9081 21.8192 17.1202 22.4053 17.1877C22.5889 17.207 22.7725 17.2006 22.956 17.1813C23.5422 17.117 23.8385 16.8664 23.9641 16.3007C24.1187 15.6033 24.2153 14.893 24.2185 14.1828C24.2249 13.3761 24.1637 12.563 23.9673 11.7756C23.8514 11.3064 23.5937 10.9464 23.0945 10.8243C22.1606 10.5961 21.423 11.1007 21.2942 12.052C21.2073 12.6819 21.1493 13.3182 21.1622 13.8389Z" fill="white"/>
<path d="M85.7024 11.5828C85.7024 10.2522 85.7024 8.96669 85.6992 7.68115C85.6992 7.51403 85.7765 7.4626 85.9117 7.41118C86.762 7.07051 87.6573 6.9066 88.5526 6.75555C90.427 6.43738 92.3046 6.37632 94.1757 6.77805C96.3657 7.25049 97.538 8.60674 97.5927 10.8468C97.6475 13.0387 97.6153 15.2337 97.6217 17.4288C97.6217 18.5215 97.6153 19.611 97.6282 20.7037C97.6282 20.9416 97.5766 21.0155 97.3286 21.0123C96.3625 20.9962 95.3963 20.993 94.4334 21.0123C94.1081 21.0187 93.8923 20.9351 93.7055 20.662C93.4479 20.2859 93.4189 20.2892 93.026 20.5173C91.7184 21.279 90.3175 21.6647 88.7974 21.5136C87.828 21.4172 86.8908 21.2051 86.0985 20.588C85.1871 19.881 84.7427 18.9168 84.6171 17.8048C84.5011 16.7732 84.6042 15.7512 84.9971 14.7806C85.4415 13.6847 86.324 13.0804 87.4222 12.7526C88.5301 12.4216 89.6798 12.3541 90.8199 12.2288C91.2836 12.1773 91.7442 12.1034 92.2047 12.052C92.3561 12.0359 92.3947 11.9684 92.4173 11.8335C92.5622 11.0204 92.3078 10.7183 91.4704 10.6797C89.6057 10.5929 87.7958 10.8436 86.0406 11.4799C85.9407 11.5153 85.8344 11.5378 85.6992 11.5764L85.7024 11.5828ZM92.4753 16.2268C92.4753 15.8476 92.4753 15.4716 92.4753 15.0923C92.4753 14.9638 92.4753 14.8577 92.2917 14.877C91.6798 14.9477 91.055 14.9541 90.456 15.1116C89.5961 15.3366 89.2064 16.079 89.4254 17.0174C89.5993 17.7598 90.2563 18.123 91.1226 17.9655C91.5413 17.8884 91.9213 17.702 92.3207 17.567C92.4785 17.5124 92.4753 17.416 92.4753 17.2938C92.4753 16.9371 92.4753 16.5803 92.4753 16.2236V16.2268Z" fill="#92D402"/>
<path d="M97.7894 20.9737C98.4045 19.9099 99.0035 18.8719 99.5993 17.8338C100.308 16.6093 101 15.3752 101.731 14.1603C101.899 13.8807 101.867 13.6911 101.718 13.4372C100.546 11.4189 99.3868 9.39415 98.2209 7.37263C98.1694 7.28264 98.1211 7.18623 98.0438 7.04482C98.1758 7.04482 98.2692 7.04482 98.3594 7.04482C100.16 7.04482 101.963 7.05124 103.764 7.03839C104.011 7.03839 104.118 7.11874 104.208 7.34049C104.614 8.32715 105.042 9.30738 105.467 10.2876C105.506 10.3808 105.515 10.5254 105.648 10.5286C105.789 10.5319 105.786 10.3872 105.825 10.2908C106.253 9.27846 106.685 8.26609 107.106 7.24729C107.168 7.09624 107.235 7.02875 107.409 7.02875C109.309 7.03518 111.206 7.03196 113.106 7.03517C113.139 7.03517 113.168 7.04482 113.238 7.05446C112.987 7.49476 112.746 7.92542 112.498 8.35286C111.499 10.0851 110.507 11.8174 109.499 13.5465C109.393 13.7297 109.396 13.8582 109.499 14.0414C110.768 16.2397 112.027 18.4444 113.287 20.6491C113.338 20.7423 113.387 20.8355 113.432 20.9287C113.354 21.0251 113.261 20.9834 113.184 20.9834C111.329 20.9834 109.474 20.9834 107.619 20.9898C107.412 20.9898 107.319 20.9287 107.238 20.7391C106.784 19.6657 106.311 18.6019 105.841 17.5349C105.802 17.4449 105.802 17.3035 105.657 17.2971C105.493 17.2906 105.487 17.4481 105.445 17.5445C104.962 18.618 104.485 19.6914 104.008 20.768C103.95 20.8998 103.908 21.0059 103.718 21.0059C101.776 20.9962 99.8344 20.9994 97.8924 20.9994C97.8731 20.9994 97.8538 20.9898 97.7861 20.9705L97.7894 20.9737Z" fill="#92D402"/>
<path d="M30.3766 9.08882C30.3766 6.53701 30.3766 3.9852 30.3766 1.4366C30.3766 1.03808 30.4088 0.63956 30.4184 0.237826C30.4249 0.0642774 30.4957 0 30.6793 0C32.4055 0.00642774 34.1285 0.00964161 35.8547 0C36.1253 0 36.0866 0.147838 36.0866 0.308531C36.0866 2.57752 36.0866 4.84973 36.0866 7.11872C36.0866 10.114 36.0866 13.1062 36.0802 16.1015C36.0802 16.3329 36.1124 16.5 36.3636 16.5611C37.0045 16.7121 37.1752 17.1106 37.1333 17.7566C37.0689 18.8011 37.1108 19.8521 37.1204 20.8998C37.1204 21.099 37.0689 21.173 36.8628 21.2147C35.5842 21.459 34.3121 21.5843 33.0432 21.144C31.3298 20.5527 30.4249 19.3861 30.4055 17.5863C30.3733 14.7549 30.3959 11.9235 30.3959 9.09203H30.3701L30.3766 9.08882Z" fill="white"/>
<path d="M52.0831 13.9867C52.0831 11.7499 52.0895 9.51304 52.0767 7.27619C52.0767 7.00301 52.154 6.93873 52.4213 6.94194C53.3874 6.95801 54.3536 6.96765 55.3165 6.94194C55.6644 6.9323 55.9027 7.01908 56.0444 7.33404C56.141 7.54615 56.2666 7.55258 56.4792 7.47545C57.4647 7.11549 58.4276 6.69448 59.4679 6.50807C60.1828 6.37952 60.8914 6.40523 61.5902 6.62056C61.7512 6.66877 61.8414 6.72983 61.8382 6.92909C61.8285 8.32391 61.8253 9.71873 61.8382 11.1103C61.8382 11.3803 61.6997 11.3482 61.5322 11.3289C60.5983 11.2228 59.674 11.255 58.7626 11.5217C58.0519 11.7317 57.6965 12.202 57.6965 12.9326C57.6965 15.5262 57.6901 18.1198 57.7062 20.7134C57.7062 21.0123 57.6193 21.0605 57.3455 21.0605C55.6966 21.0476 54.0476 21.0476 52.3987 21.0605C52.1346 21.0605 52.0799 20.9801 52.0831 20.7359C52.0928 18.4894 52.0895 16.2397 52.0895 13.9932L52.0831 13.9867Z" fill="white"/>
<path d="M80.1405 28.2885C80.0536 28.4235 80.089 28.5456 80.089 28.6581C80.089 29.9115 80.0825 31.1649 80.089 32.4183C80.089 32.6401 80.0375 32.7172 79.8024 32.714C79.1293 32.6979 78.4562 32.7011 77.7863 32.714C77.5802 32.7172 77.5061 32.6529 77.4835 32.444C77.3934 31.618 77.3644 30.7856 77.3515 29.9565C77.3129 27.8289 77.3 25.7013 77.4256 23.5769C77.4739 22.7413 77.4642 22.7413 78.3112 22.7413C78.8008 22.7413 79.2871 22.751 79.7766 22.7381C79.9537 22.7349 80.0407 22.7992 80.1244 22.9534C80.8523 24.3129 81.5898 25.6692 82.3241 27.0254C82.3788 27.1283 82.44 27.2279 82.5012 27.334C82.6107 27.26 82.5592 27.1668 82.5592 27.0929C82.5624 25.7527 82.5656 24.4125 82.5592 23.0724C82.5592 22.8506 82.6075 22.7735 82.8426 22.7799C83.535 22.796 84.2306 22.7928 84.9263 22.7799C85.1195 22.7799 85.1839 22.8217 85.1839 23.0306C85.1775 26.1866 85.1775 29.3426 85.1839 32.4954C85.1839 32.7108 85.1066 32.7429 84.9198 32.7397C84.2371 32.73 83.5543 32.7268 82.8716 32.7397C82.6654 32.7429 82.5656 32.669 82.4722 32.4954C81.7733 31.1938 81.0648 29.8954 80.3563 28.597C80.3015 28.4942 80.2693 28.3752 80.1437 28.2949L80.1405 28.2885Z" fill="white"/>
<path d="M99.8924 28.1792C99.8924 29.5837 99.886 30.9881 99.8989 32.3926C99.8989 32.6433 99.8409 32.7236 99.58 32.714C98.8973 32.6947 98.2145 32.7011 97.5285 32.714C97.3224 32.7172 97.2451 32.6722 97.2451 32.4472C97.2516 29.3009 97.2516 26.1577 97.2451 23.0113C97.2451 22.8153 97.2966 22.751 97.4995 22.7542C98.1823 22.7671 98.8651 22.7671 99.551 22.7542C99.7636 22.751 99.8731 22.8185 99.9762 23.0081C100.691 24.3515 101.422 25.6853 102.15 27.0222C102.192 27.0994 102.202 27.2472 102.321 27.2215C102.45 27.1958 102.388 27.0576 102.392 26.9708C102.395 25.6628 102.401 24.3547 102.392 23.0467C102.392 22.8088 102.443 22.7349 102.694 22.7413C103.387 22.7606 104.082 22.7542 104.778 22.7446C104.955 22.7446 105.045 22.7606 105.042 22.9792C105.032 26.1448 105.036 29.3137 105.042 32.4794C105.042 32.6786 104.987 32.7365 104.788 32.7333C104.092 32.7204 103.4 32.7204 102.704 32.7333C102.491 32.7365 102.382 32.6754 102.279 32.4794C101.551 31.107 100.807 29.7412 100.07 28.3753C100.031 28.3013 99.9858 28.2306 99.9439 28.1599L99.8924 28.176V28.1792Z" fill="white"/>
<path d="M69.9474 27.6778C69.9474 26.1223 69.9538 24.5636 69.9409 23.0081C69.9409 22.751 70.0085 22.6867 70.2662 22.6867C72.2823 22.6963 74.3016 22.6963 76.3176 22.6867C76.5785 22.6867 76.6461 22.7574 76.6397 23.0113C76.6204 23.638 76.6268 24.2647 76.6397 24.8914C76.6429 25.1003 76.5882 25.1678 76.3692 25.1646C75.2516 25.155 74.1341 25.1646 73.0166 25.155C72.7815 25.155 72.6752 25.2032 72.7042 25.4571C72.7332 25.7335 72.5914 26.0966 72.7589 26.2702C72.9264 26.4469 73.2935 26.3248 73.5705 26.3248C74.3628 26.3312 75.155 26.3344 75.9473 26.3248C76.1437 26.3248 76.2081 26.3762 76.2049 26.5787C76.192 27.26 76.192 27.9414 76.2049 28.6227C76.2114 28.8445 76.1341 28.8927 75.928 28.8895C74.9618 28.8798 73.9956 28.8927 73.0327 28.8798C72.7976 28.8798 72.7009 28.9248 72.7235 29.1787C72.746 29.4808 72.7428 29.7829 72.7235 30.085C72.7106 30.2907 72.7879 30.3357 72.9844 30.3357C74.0922 30.3261 75.1969 30.3357 76.3048 30.3261C76.5238 30.3261 76.6043 30.3679 76.5978 30.6057C76.5785 31.2099 76.5849 31.8173 76.5978 32.4215C76.601 32.6272 76.5495 32.6947 76.3305 32.6947C74.2919 32.6851 72.2501 32.6851 70.2114 32.6947C69.9892 32.6947 69.9441 32.6208 69.9474 32.4183C69.9538 30.8403 69.9506 29.2623 69.9506 27.6843L69.9474 27.6778Z" fill="white"/>
<path d="M62.6334 27.71C62.6334 26.1641 62.6398 24.6182 62.627 23.0724C62.627 22.8153 62.6946 22.751 62.949 22.751C64.9554 22.7606 66.9651 22.7606 68.9715 22.751C69.213 22.751 69.2903 22.8056 69.2806 23.0531C69.2613 23.6573 69.2645 24.2647 69.2806 24.8689C69.2871 25.1035 69.2098 25.1517 68.9876 25.1517C67.8797 25.1421 66.775 25.1517 65.6672 25.1421C65.4353 25.1421 65.3677 25.2064 65.3838 25.4313C65.4031 25.7109 65.4031 25.9938 65.3838 26.2734C65.3677 26.4951 65.4546 26.5466 65.6639 26.5433C66.6398 26.5337 67.6156 26.5466 68.5947 26.5337C68.833 26.5337 68.9103 26.5819 68.9038 26.8358C68.8845 27.485 68.8877 28.1342 68.9038 28.7802C68.9103 28.9987 68.8394 29.0469 68.6333 29.0437C67.6349 29.0341 66.6366 29.0437 65.6382 29.0341C65.4288 29.0341 65.3644 29.0855 65.3677 29.3008C65.3805 30.3389 65.3677 31.377 65.3773 32.4151C65.3773 32.624 65.329 32.6947 65.11 32.6915C64.3725 32.6786 63.635 32.6754 62.8975 32.6915C62.672 32.6947 62.6334 32.6143 62.6366 32.4151C62.6431 30.8467 62.6398 29.2816 62.6398 27.7132L62.6334 27.71Z" fill="white"/>
<path d="M2.21892 0.102863C2.21892 7.06732 2.21892 14.0318 2.21892 20.9994C1.60057 20.9994 0.982221 20.9994 0.367093 21.0123C0.173859 21.0155 0.131991 20.9416 0.135212 20.768C0.141653 20.4113 0.12555 20.0546 0.12233 19.701C0.112668 16.5161 0.103006 13.3311 0.0965652 10.1462C0.0869035 6.90662 0.0804623 3.66704 0.0611389 0.427464C0.0579184 0.151071 0.128771 0.0771521 0.399298 0.0900076C1.00477 0.112505 1.61345 0.102863 2.21892 0.102863Z" fill="#92D402"/>
<path d="M92.6751 31.4155C92.6751 31.708 92.6557 32.0005 92.6815 32.2897C92.704 32.5275 92.601 32.6497 92.3981 32.7172C92.266 32.7622 92.1308 32.8329 91.9955 32.8361C91.0326 32.8714 90.0696 32.9389 89.1067 32.8329C87.6671 32.669 86.7911 31.8301 86.3627 30.506C85.7992 28.7641 85.7863 27.0061 86.2887 25.2449C86.7524 23.6155 87.8796 22.7927 89.5092 22.5581C90.5269 22.4103 91.5189 22.5035 92.4915 22.8249C92.6493 22.8763 92.7395 22.9342 92.7363 23.1334C92.7202 23.7698 92.7234 24.4093 92.7363 25.0457C92.7395 25.2481 92.6686 25.2674 92.4915 25.2481C91.8474 25.1742 91.2 25.0778 90.5495 25.0842C89.5286 25.0907 89.0133 25.5599 88.8877 26.5658C88.7878 27.3757 88.7846 28.1824 88.8877 28.9891C89.0133 29.9629 89.5769 30.4578 90.5688 30.4707C91.2033 30.4803 91.8184 30.3453 92.44 30.2489C92.63 30.22 92.6912 30.2489 92.6815 30.4417C92.6686 30.7663 92.6783 31.0909 92.6783 31.4155H92.6751Z" fill="white"/>
<path d="M96.2371 27.7421C96.2371 29.2976 96.2306 30.8531 96.2435 32.4119C96.2435 32.6593 96.1759 32.7204 95.9343 32.7172C95.2516 32.7011 94.5688 32.7043 93.8828 32.7172C93.6767 32.7204 93.5994 32.6722 93.6026 32.4504C93.6091 29.3169 93.6091 26.1834 93.6026 23.0467C93.6026 22.8281 93.6703 22.7735 93.8796 22.7767C94.572 22.7896 95.2677 22.7928 95.9633 22.7767C96.2081 22.7703 96.2435 22.8667 96.2403 23.0788C96.2338 24.6343 96.2371 26.1898 96.2371 27.7486V27.7421Z" fill="white"/>
<path d="M115 4.18444C115 5.29644 114.118 6.18347 113.003 6.18668C111.87 6.19311 110.978 5.30608 110.981 4.1748C110.981 3.0628 111.867 2.17577 112.981 2.16935C114.108 2.16292 115.003 3.05316 115.003 4.18123L115 4.18444ZM112.997 2.42646C112.031 2.42324 111.229 3.20743 111.223 4.16516C111.216 5.11646 112.015 5.92957 112.968 5.94564C113.915 5.96171 114.743 5.15824 114.759 4.21015C114.772 3.22992 113.983 2.42967 113 2.42324L112.997 2.42646Z" fill="#92D402"/>
<path d="M112.179 4.11374C112.179 3.79879 112.188 3.48704 112.175 3.17208C112.169 2.97925 112.237 2.89247 112.433 2.89569C112.681 2.8989 112.932 2.88283 113.18 2.89569C113.489 2.91497 113.763 3.02746 113.866 3.34884C113.96 3.64452 113.885 3.90806 113.621 4.09125C113.538 4.15231 113.538 4.17802 113.605 4.25194C113.844 4.50262 113.834 4.84972 113.947 5.14861C113.982 5.24181 113.947 5.30609 113.844 5.28681C113.683 5.25467 113.457 5.40572 113.373 5.14218C113.319 4.97827 113.286 4.80794 113.235 4.64403C113.2 4.52833 113.148 4.41906 113.016 4.3805C112.839 4.32907 112.684 4.30336 112.72 4.57976C112.736 4.70831 112.716 4.84008 112.723 4.96863C112.736 5.17111 112.729 5.30288 112.446 5.30288C112.15 5.30288 112.175 5.1454 112.175 4.95899C112.179 4.67939 112.175 4.39656 112.175 4.11696L112.179 4.11374ZM112.723 3.63166C112.733 3.78593 112.662 3.96912 112.939 3.94662C113.174 3.92734 113.354 3.85342 113.348 3.60274C113.344 3.36491 113.151 3.30385 112.939 3.28778C112.636 3.26528 112.739 3.48704 112.72 3.62845L112.723 3.63166Z" fill="#92D402"/>
</g>
<defs>
<clipPath id="clip0_420_164">
<rect width="115" height="33" fill="white"/>
</clipPath>
</defs>
</svg>
