<svg width="159" height="159" viewBox="0 0 159 159" fill="none" xmlns="http://www.w3.org/2000/svg">
<rect width="159" height="159" rx="79.5" fill="white"/>
<path d="M142.126 79.6489C142.126 114.168 114.143 142.15 79.6247 142.15C45.106 142.15 17.123 114.168 17.123 79.6489C17.123 45.1302 45.106 17.1472 79.6247 17.1472C114.143 17.1472 142.126 45.1302 142.126 79.6489Z" fill="white"/>
<path d="M137.643 82.5707L145.735 83.0709L145.666 84.1995L137.573 83.6993L137.643 82.5707ZM145.118 80.1883L146.151 80.2521L145.731 87.0359L144.699 86.9721L145.118 80.1883Z" fill="#363633"/>
<path d="M137.238 87.5598L145.45 89.0612L145.247 90.1736L137.035 88.6721L137.238 87.5598ZM137.1 88.3171L138.117 88.5032L137.256 93.2129L136.238 93.0269L137.1 88.3171ZM140.815 88.9965L141.786 89.1739L140.996 93.4931L140.026 93.3157L140.815 88.9965ZM144.294 89.6325L145.312 89.8186L144.462 94.4691L143.444 94.2831L144.294 89.6325Z" fill="#363633"/>
<path d="M135.113 96.4672C135.304 95.8379 135.583 95.3358 135.948 94.9606C136.314 94.5855 136.767 94.2917 137.31 94.0793L137.823 95.0398C137.393 95.1857 137.036 95.3957 136.751 95.6698C136.474 95.9461 136.263 96.326 136.116 96.8094C135.971 97.2852 135.959 97.6965 136.08 98.0433C136.199 98.3979 136.439 98.6299 136.799 98.7395C137.098 98.8304 137.361 98.8348 137.587 98.7526C137.813 98.6704 138.02 98.5279 138.208 98.325C138.4 98.1321 138.585 97.9115 138.761 97.6632C138.944 97.4173 139.132 97.1725 139.323 96.9289C139.522 96.6876 139.737 96.4763 139.968 96.2951C140.207 96.1162 140.483 95.9946 140.796 95.9304C141.106 95.8739 141.465 95.9074 141.872 96.0309C142.324 96.1685 142.675 96.3924 142.925 96.7029C143.179 97.0233 143.334 97.3972 143.389 97.8245C143.448 98.2618 143.406 98.7183 143.262 99.194C143.103 99.7158 142.857 100.152 142.524 100.504C142.199 100.858 141.832 101.115 141.422 101.275L140.91 100.315C141.258 100.161 141.543 99.967 141.765 99.7327C141.985 99.5061 142.149 99.2163 142.256 98.8633C142.386 98.4336 142.394 98.063 142.279 97.7515C142.172 97.4423 141.95 97.2364 141.612 97.1339C141.343 97.0523 141.104 97.0549 140.893 97.1417C140.687 97.2386 140.492 97.3846 140.307 97.5798C140.122 97.7751 139.938 97.9957 139.754 98.2416C139.576 98.4976 139.387 98.7462 139.188 98.9874C138.989 99.2287 138.766 99.4377 138.52 99.6142C138.273 99.7908 137.987 99.9051 137.661 99.9569C137.341 100.019 136.97 99.9856 136.548 99.8574C135.842 99.643 135.364 99.2296 135.114 98.6172C134.862 98.0126 134.862 97.2959 135.113 96.4672Z" fill="#363633"/>
<path d="M133.148 102.265L140.58 105.506L140.128 106.543L132.696 103.301L133.148 102.265ZM140.987 102.587L141.936 103L139.218 109.23L138.27 108.817L140.987 102.587Z" fill="#363633"/>
<path d="M130.989 106.921L138.177 111.167L137.602 112.141L130.414 107.895L130.989 106.921ZM130.597 107.584L131.488 108.11L129.053 112.232L128.162 111.706L130.597 107.584ZM133.849 109.505L134.699 110.007L132.465 113.787L131.616 113.286L133.849 109.505ZM136.894 111.304L137.785 111.83L135.381 115.901L134.49 115.375L136.894 111.304Z" fill="#363633"/>
<path d="M127.037 113.34L127.848 113.982L126.408 115.803C126.025 116.287 125.793 116.794 125.713 117.323C125.638 117.857 125.707 118.371 125.919 118.866C126.126 119.367 126.471 119.809 126.956 120.192C127.434 120.57 127.941 120.802 128.476 120.888C129.011 120.974 129.527 120.917 130.023 120.716C130.519 120.515 130.956 120.176 131.334 119.698L132.767 117.886L133.578 118.527L132.131 120.358C131.753 120.836 131.323 121.212 130.841 121.485C130.354 121.765 129.846 121.936 129.316 121.997C128.782 122.066 128.252 122.025 127.726 121.875C127.196 121.731 126.695 121.473 126.223 121.1C125.757 120.732 125.39 120.304 125.122 119.816C124.855 119.339 124.69 118.836 124.629 118.306C124.567 117.777 124.616 117.243 124.775 116.705C124.93 116.173 125.194 115.671 125.567 115.199L127.037 113.34ZM127.499 112.755L134.048 117.933L133.347 118.82L126.798 113.642L127.499 112.755Z" fill="#363633"/>
<path d="M120.352 121.224L123.226 129.774L122.607 130.309L114.572 126.219L115.501 125.417L122.239 128.926L121.92 129.202L119.442 122.011L120.352 121.224ZM120.358 123.715L121.003 124.461L117.681 127.332L117.036 126.586L120.358 123.715Z" fill="#363633"/>
<path d="M113.929 126.646L118.462 133.657L117.796 134.088L116.801 133.17L112.98 127.26L113.929 126.646ZM109.08 129.782L117.1 132.747L117.796 134.088L109.772 131.139L109.08 129.782ZM109.08 129.782L110.036 130.639L113.896 136.609L112.947 137.223L108.414 130.213L109.08 129.782Z" fill="#363633"/>
<path d="M106.262 131.364L106.69 132.306L104.576 133.266C104.014 133.521 103.575 133.865 103.261 134.298C102.95 134.739 102.776 135.228 102.738 135.765C102.693 136.305 102.798 136.856 103.053 137.419C103.305 137.973 103.649 138.412 104.086 138.733C104.522 139.054 105.007 139.24 105.54 139.288C106.073 139.337 106.617 139.235 107.172 138.983L109.275 138.028L109.703 138.97L107.578 139.935C107.023 140.187 106.469 140.324 105.915 140.347C105.354 140.372 104.824 140.291 104.325 140.104C103.819 139.92 103.366 139.641 102.968 139.267C102.562 138.897 102.234 138.438 101.986 137.89C101.74 137.35 101.61 136.801 101.595 136.244C101.576 135.698 101.66 135.175 101.847 134.676C102.035 134.177 102.323 133.725 102.711 133.32C103.092 132.918 103.557 132.592 104.104 132.343L106.262 131.364ZM106.941 131.055L110.393 138.657L109.363 139.124L105.912 131.523L106.941 131.055Z" fill="#363633"/>
<path d="M95.3385 135.622L95.5711 136.58L93.1161 137.176C92.6485 137.29 92.3153 137.515 92.1165 137.852C91.9196 138.197 91.8685 138.564 91.963 138.954C92.0273 139.219 92.1434 139.442 92.3114 139.624C92.4813 139.814 92.6943 139.944 92.9506 140.014C93.1991 140.086 93.4714 140.086 93.7675 140.014L96.2576 139.409L96.4902 140.368L94.1638 140.933C93.7741 141.027 93.4909 141.203 93.314 141.461C93.1313 141.728 93.0872 142.056 93.1817 142.446C93.2763 142.836 93.4689 143.102 93.7597 143.246C94.0524 143.398 94.3974 143.426 94.7949 143.329L97.0745 142.776L97.3071 143.735L95.0041 144.294C94.4742 144.422 94.0102 144.432 93.6122 144.322C93.2083 144.222 92.8789 144.038 92.624 143.77C92.3613 143.503 92.1846 143.183 92.0938 142.809C91.9879 142.372 92.0161 141.961 92.1782 141.575C92.3326 141.191 92.617 140.85 93.0315 140.551L93.023 140.925C92.4555 140.864 91.9812 140.678 91.6002 140.366C91.2132 140.064 90.9574 139.656 90.8326 139.141C90.7286 138.713 90.7402 138.301 90.8674 137.907C90.9946 137.513 91.2314 137.163 91.5778 136.856C91.9183 136.559 92.3731 136.341 92.942 136.203L95.3385 135.622ZM96.075 135.443L98.0436 143.556L96.9447 143.823L94.9761 135.71L96.075 135.443Z" fill="#363633"/>
<path d="M85.856 137.283C86.47 137.217 87.0348 137.293 87.5505 137.511C88.0592 137.738 88.4789 138.076 88.8098 138.524C89.1416 138.98 89.3407 139.515 89.4072 140.129L89.9736 145.356L88.8494 145.477L88.2856 140.275C88.2381 139.836 88.1054 139.468 87.8874 139.169C87.6695 138.87 87.3956 138.649 87.0656 138.507C86.7277 138.367 86.3634 138.317 85.9727 138.36C85.5661 138.404 85.2208 138.53 84.9368 138.738C84.6448 138.947 84.4284 139.221 84.2876 139.559C84.1388 139.898 84.0877 140.282 84.1343 140.713L84.6994 145.927L83.5632 146.05L82.9956 140.812C82.9291 140.198 83.0094 139.637 83.2366 139.128C83.4639 138.619 83.8015 138.2 84.2497 137.869C84.6987 137.546 85.2341 137.351 85.856 137.283Z" fill="#363633"/>
<path d="M81.0472 137.72L81.1761 146.067L80.0454 146.085L79.9165 137.737L81.0472 137.72Z" fill="#363633"/>
<path d="M78.019 137.756L77.4718 146.087L76.3435 146.013L76.8906 137.682L78.019 137.756ZM77.2507 137.706L77.1829 138.738L72.7175 138.445L72.7853 137.413L77.2507 137.706Z" fill="#363633"/>
<path d="M69.5822 136.875L68.0935 144.845L66.982 144.637L68.4706 136.667L69.5822 136.875ZM71.03 144.586L70.8401 145.603L64.1589 144.355L64.3488 143.338L71.03 144.586Z" fill="#363633"/>
<path d="M59.7383 134.245L56.8899 141.836L55.8312 141.439L58.6796 133.847L59.7383 134.245ZM59.8269 142.09L59.4634 143.059L53.0999 140.671L53.4634 139.702L59.8269 142.09Z" fill="#363633"/>
<path d="M51.791 130.508C52.3106 130.795 52.7428 131.157 53.0877 131.594C53.4286 132.039 53.6727 132.526 53.82 133.056C53.9634 133.593 54.004 134.142 53.9418 134.703C53.8726 135.26 53.6946 135.799 53.408 136.318C53.1175 136.845 52.7569 137.283 52.3265 137.632C51.8851 137.983 51.4045 138.24 50.8846 138.402C50.3577 138.561 49.8208 138.612 49.2738 138.558C48.7198 138.5 48.183 138.327 47.6633 138.04C47.1437 137.754 46.715 137.394 46.3772 136.96C46.0323 136.523 45.7863 136.039 45.639 135.509C45.4918 134.979 45.4492 134.433 45.5114 133.872C45.5736 133.311 45.75 132.767 46.0405 132.241C46.3272 131.721 46.6912 131.285 47.1326 130.933C47.5739 130.582 48.0581 130.327 48.5849 130.168C49.1048 130.006 49.6437 129.951 50.2015 130.002C50.7485 130.057 51.2783 130.225 51.791 130.508ZM51.2891 131.468C50.7624 131.177 50.2366 131.043 49.7117 131.065C49.1758 131.09 48.6758 131.249 48.2117 131.542C47.7436 131.843 47.3586 132.267 47.0564 132.815C46.8317 133.222 46.6932 133.631 46.6406 134.042C46.5843 134.459 46.6057 134.86 46.705 135.245C46.8043 135.629 46.9787 135.978 47.2281 136.289C47.4736 136.608 47.793 136.876 48.1863 137.092C48.7059 137.379 49.2317 137.513 49.7637 137.496C50.2886 137.474 50.7832 137.316 51.2473 137.023C51.7045 136.725 52.0841 136.303 52.3863 135.755C52.6109 135.348 52.7569 134.934 52.8242 134.513C52.8806 134.095 52.8626 133.696 52.7703 133.315C52.6672 132.938 52.4928 132.59 52.2473 132.271C51.9947 131.949 51.6753 131.681 51.2891 131.468Z" fill="#363633"/>
<path d="M44.6159 126.062L39.3196 132.515L38.4455 131.798L43.7418 125.344L44.6159 126.062ZM44.0208 125.573L43.3645 126.373L39.9053 123.534L40.5616 122.734L44.0208 125.573Z" fill="#363633"/>
<path d="M40.2346 122.499L31.8414 125.805L31.2758 125.214L34.9521 116.982L35.8007 117.868L32.6381 124.776L32.347 124.472L39.4027 121.63L40.2346 122.499ZM37.7473 122.632L37.0347 123.315L33.9984 120.143L34.7109 119.461L37.7473 122.632Z" fill="#363633"/>
<path d="M33.2153 114.385C33.6099 114.911 33.8505 115.432 33.9371 115.949C34.0237 116.465 33.9924 117.005 33.8432 117.568L32.7654 117.414C32.9017 116.981 32.9434 116.569 32.8905 116.177C32.8312 115.791 32.6499 115.396 32.3468 114.991C32.0484 114.594 31.7236 114.341 31.3724 114.233C31.0163 114.12 30.6875 114.176 30.386 114.402C30.1357 114.59 29.9769 114.799 29.9096 115.03C29.8422 115.261 29.835 115.512 29.8879 115.783C29.9296 116.052 29.9986 116.331 30.0948 116.62C30.1846 116.914 30.2713 117.21 30.3547 117.508C30.4316 117.811 30.475 118.109 30.4846 118.403C30.4878 118.701 30.4228 118.996 30.2897 119.286C30.1517 119.57 29.9128 119.839 29.5727 120.094C29.1942 120.378 28.806 120.529 28.4082 120.547C27.9992 120.563 27.6063 120.466 27.2293 120.258C26.8412 120.048 26.498 119.744 26.1996 119.346C25.8724 118.91 25.6655 118.453 25.5789 117.977C25.4859 117.505 25.4955 117.057 25.6078 116.632L26.6856 116.786C26.6038 117.158 26.5918 117.503 26.6495 117.821C26.7025 118.132 26.8396 118.435 27.0609 118.73C27.3304 119.089 27.6247 119.315 27.9439 119.406C28.2567 119.502 28.5542 119.445 28.8365 119.233C29.0611 119.065 29.2006 118.87 29.2551 118.648C29.2985 118.425 29.296 118.182 29.2479 117.917C29.1998 117.652 29.1308 117.373 29.041 117.08C28.94 116.785 28.851 116.485 28.774 116.182C28.697 115.879 28.6601 115.576 28.6633 115.273C28.6665 114.97 28.7435 114.671 28.8943 114.378C29.0338 114.083 29.28 113.803 29.6329 113.538C30.2232 113.095 30.8391 112.954 31.4807 113.115C32.1174 113.269 32.6956 113.692 33.2153 114.385Z" fill="#363633"/>
<path d="M29.6854 109.339L22.6743 113.411L22.1064 112.434L29.1174 108.361L29.6854 109.339ZM24.7868 115.468L23.8922 115.987L20.4784 110.11L21.373 109.59L24.7868 115.468Z" fill="#363633"/>
<path d="M22.6583 102.325C22.7441 102.541 22.771 102.75 22.7392 102.953C22.7074 103.155 22.6287 103.337 22.5031 103.499C22.3672 103.657 22.1985 103.775 21.9973 103.855C21.796 103.935 21.5956 103.963 21.3961 103.938C21.1937 103.907 21.0115 103.828 20.8495 103.702C20.6801 103.58 20.5525 103.41 20.4667 103.194C20.3809 102.978 20.3592 102.771 20.4014 102.573C20.4333 102.371 20.5134 102.192 20.6419 102.038C20.7675 101.876 20.9309 101.755 21.1322 101.675C21.3334 101.595 21.539 101.569 21.7489 101.598C21.9484 101.623 22.1292 101.698 22.2911 101.823C22.4501 101.941 22.5725 102.109 22.6583 102.325Z" fill="#363633"/>
<path d="M22.8754 92.2877L21.9051 92.4651L21.4508 89.98C21.3642 89.5067 21.1584 89.1612 20.8332 88.9434C20.5002 88.7271 20.1364 88.655 19.742 88.7271C19.4738 88.7762 19.244 88.8793 19.0526 89.0366C18.8533 89.1953 18.7115 89.4006 18.6271 89.6525C18.5413 89.8964 18.5258 90.1683 18.5806 90.4681L19.0414 92.9886L18.071 93.166L17.6405 90.8112C17.5684 90.4167 17.4089 90.1238 17.1619 89.9326C16.9057 89.7348 16.5803 89.672 16.1858 89.7441C15.7914 89.8163 15.514 89.9933 15.3536 90.2754C15.1853 90.5589 15.1379 90.9018 15.2115 91.3042L15.6333 93.6117L14.663 93.7891L14.2368 91.4579C14.1387 90.9214 14.1558 90.4577 14.2882 90.0666C14.4112 89.6691 14.6138 89.3508 14.8962 89.1117C15.1772 88.8646 15.507 88.7065 15.8857 88.6373C16.3274 88.5565 16.7363 88.6081 17.1124 88.7921C17.487 88.9682 17.8115 89.2716 18.086 89.7025L17.7136 89.6727C17.8063 89.1095 18.0193 88.6467 18.3525 88.2841C18.6764 87.9151 19.0986 87.683 19.6193 87.5878C20.0532 87.5085 20.4632 87.5436 20.8492 87.6931C21.2353 87.8427 21.5716 88.0991 21.8581 88.4625C22.1354 88.8195 22.3266 89.2859 22.4319 89.8618L22.8754 92.2877ZM23.0117 93.0332L14.7993 94.5346L14.5959 93.4222L22.8083 91.9208L23.0117 93.0332Z" fill="#363633"/>
<path d="M21.8226 85.9101L13.492 86.4573L13.4179 85.3289L21.7485 84.7818L21.8226 85.9101ZM21.7722 85.1419L20.7399 85.2097L20.4466 80.7443L21.4789 80.6765L21.7722 85.1419Z" fill="#363633"/>
<path d="M21.753 76.3224C21.7173 76.9389 21.5492 77.4834 21.2487 77.956C20.9406 78.4202 20.5383 78.7784 20.0417 79.0308C19.537 79.2827 18.9765 79.3908 18.36 79.3551L13.1119 79.051L13.1773 77.9221L18.4014 78.2248C18.8417 78.2503 19.2274 78.1803 19.5583 78.0147C19.8892 77.8491 20.1518 77.6153 20.346 77.3133C20.5407 77.0032 20.6494 76.6521 20.6722 76.2597C20.6958 75.8514 20.6284 75.49 20.4699 75.1756C20.3118 74.8531 20.0778 74.5946 19.7678 74.3999C19.4582 74.1972 19.0872 74.0833 18.6549 74.0582L13.4187 73.7549L13.4848 72.614L18.745 72.9187C19.3615 72.9545 19.9018 73.1263 20.3659 73.4344C20.8301 73.7425 21.1883 74.1448 21.4407 74.6414C21.6851 75.1376 21.7892 75.6979 21.753 76.3224Z" fill="#363633"/>
<path d="M22.0328 71.5673L13.8262 70.0345L14.0338 68.9229L22.2404 70.4558L22.0328 71.5673ZM22.1741 70.8105L21.1572 70.6206L22.0362 65.9142L23.0532 66.1041L22.1741 70.8105ZM18.4611 70.117L17.4914 69.9359L18.2976 65.6197L19.2672 65.8008L18.4611 70.117ZM14.9845 69.4676L13.9675 69.2777L14.8355 64.6304L15.8525 64.8204L14.9845 69.4676Z" fill="#363633"/>
<path d="M24.1792 62.687C23.9857 63.3155 23.7055 63.8166 23.3387 64.1903C22.9718 64.5641 22.5169 64.8561 21.9738 65.0665L21.4646 64.1042C21.895 63.9598 22.253 63.7511 22.5384 63.4782C22.8162 63.2029 23.0294 62.8238 23.1781 62.341C23.3244 61.8658 23.3378 61.4545 23.2181 61.1072C23.1009 60.7522 22.8621 60.5193 22.5019 60.4083C22.203 60.3163 21.9403 60.3109 21.7139 60.3922C21.4874 60.4736 21.2802 60.6153 21.092 60.8175C20.8986 61.0097 20.7134 61.2296 20.5365 61.4772C20.3519 61.7224 20.1634 61.9665 19.9712 62.2094C19.7712 62.4499 19.5554 62.6603 19.3236 62.8407C19.0842 63.0187 18.8079 63.1393 18.4948 63.2023C18.1841 63.2576 17.8256 63.2228 17.4194 63.0977C16.9672 62.9584 16.617 62.7331 16.3688 62.4218C16.1153 62.1004 15.9621 61.7259 15.9091 61.2984C15.8509 60.8609 15.8949 60.4045 16.0412 59.9293C16.2017 59.4082 16.4491 58.9725 16.7835 58.6223C17.1103 58.2698 17.4785 58.014 17.8884 57.8549L18.3976 58.8172C18.0485 58.9699 17.7625 59.1629 17.5396 59.3964C17.319 59.6221 17.1544 59.9113 17.0459 60.2639C16.9137 60.6931 16.9045 61.0637 17.0182 61.3756C17.1243 61.6852 17.3459 61.8919 17.6832 61.9957C17.9514 62.0783 18.1911 62.0766 18.4022 61.9906C18.608 61.8945 18.8038 61.7492 18.9896 61.5547C19.1753 61.3601 19.3605 61.1403 19.5451 60.895C19.7244 60.6397 19.9141 60.3918 20.114 60.1513C20.3139 59.9108 20.5374 59.7027 20.7845 59.5271C21.0316 59.3514 21.3182 59.2383 21.6443 59.1876C21.965 59.127 22.3362 59.1615 22.7577 59.2913C23.4629 59.5085 23.9392 59.9237 24.1867 60.5369C24.4366 61.1425 24.4341 61.8592 24.1792 62.687Z" fill="#363633"/>
<path d="M26.9678 55.3741C26.7212 55.9227 26.3939 56.3866 25.9859 56.766C25.5707 57.142 25.1049 57.425 24.5886 57.615C24.0757 57.7976 23.5387 57.8771 22.9778 57.8535C22.4168 57.83 21.8657 57.6965 21.3244 57.4531C20.7759 57.2065 20.3066 56.8812 19.9167 56.4773C19.5267 56.0733 19.2335 55.6205 19.037 55.1189C18.8364 54.6067 18.741 54.0758 18.7507 53.5262C18.7563 52.966 18.8825 52.4116 19.1291 51.863C19.3988 51.2632 19.738 50.7826 20.1467 50.4212C20.5554 50.0598 21.0142 49.7824 21.5231 49.5892L21.9157 50.623C21.5365 50.7427 21.1912 50.9435 20.8797 51.2256C20.5716 51.5003 20.3172 51.8608 20.1166 52.3069C19.9357 52.7092 19.8428 53.1115 19.8378 53.5137C19.8255 53.9127 19.8951 54.2957 20.0466 54.6628C20.1981 55.0299 20.4218 55.3635 20.7177 55.6636C21.017 55.9564 21.3787 56.1981 21.8029 56.3889C22.2272 56.5796 22.6481 56.6897 23.0657 56.7192C23.4866 56.7414 23.8846 56.6873 24.2597 56.557C24.6349 56.4267 24.9712 56.2262 25.2688 55.9555C25.559 55.6815 25.7946 55.3434 25.9755 54.9411C26.1892 54.4657 26.2982 54.0179 26.3025 53.5977C26.2994 53.1743 26.2168 52.781 26.0547 52.418L27.0775 52.0205C27.2854 52.536 27.3849 53.0776 27.3759 53.6451C27.3702 54.2053 27.2342 54.7816 26.9678 55.3741Z" fill="#363633"/>
<path d="M30.5304 48.8144C30.2118 49.3151 29.8234 49.7238 29.3652 50.0406C28.9002 50.3531 28.3986 50.5663 27.8605 50.6801C27.3155 50.7896 26.765 50.7958 26.2089 50.6987C25.6572 50.5948 25.131 50.3835 24.6303 50.0649C24.1228 49.742 23.7085 49.3549 23.3874 48.9034C23.0639 48.4409 22.8375 47.9452 22.7083 47.4162C22.5834 46.8805 22.5652 46.3413 22.6537 45.7988C22.7466 45.2495 22.9523 44.7246 23.2709 44.2239C23.5894 43.7232 23.9757 43.3178 24.4296 43.0078C24.8878 42.691 25.386 42.4756 25.9242 42.3618C26.4624 42.248 27.0095 42.2396 27.5656 42.3368C28.1216 42.4339 28.6534 42.6439 29.1608 42.9668C29.6615 43.2854 30.0737 43.676 30.3972 44.1385C30.7208 44.601 30.945 45.1001 31.0699 45.6359C31.1991 46.1648 31.2207 46.7061 31.1346 47.2597C31.0461 47.8022 30.8447 48.3204 30.5304 48.8144ZM29.6041 48.2535C29.9269 47.746 30.0939 47.2296 30.1049 46.7043C30.1135 46.168 29.9858 45.659 29.7219 45.1774C29.4513 44.6915 29.0521 44.2807 28.5243 43.9449C28.1318 43.6952 27.7323 43.5313 27.3258 43.4532C26.9124 43.3708 26.5108 43.3671 26.1208 43.4422C25.7308 43.5173 25.3726 43.6695 25.046 43.899C24.7126 44.1241 24.4254 44.4261 24.1843 44.805C23.8657 45.3058 23.6988 45.8221 23.6834 46.3542C23.6724 46.8795 23.7988 47.3829 24.0627 47.8645C24.3309 48.3393 24.7289 48.7446 25.2567 49.0804C25.6491 49.3301 26.0533 49.5017 26.4691 49.5952C26.8824 49.6776 27.2819 49.6846 27.6676 49.6163C28.0507 49.5369 28.409 49.3847 28.7424 49.1595C29.08 48.9276 29.3673 48.6256 29.6041 48.2535Z" fill="#363633"/>
<path d="M31.6193 41.4195L30.8683 40.7799L32.3424 39.0489C32.5452 38.8108 32.6758 38.5586 32.7341 38.2922C32.7976 38.0197 32.785 37.7562 32.6963 37.5016C32.6128 37.2409 32.449 37.0066 32.2048 36.7986C31.9605 36.5906 31.7031 36.4662 31.4324 36.4253C31.167 36.3783 30.9048 36.4078 30.6459 36.5139C30.3922 36.6139 30.164 36.7829 29.9612 37.0211L28.4871 38.752L27.7361 38.1125L29.257 36.3266C29.5898 35.9358 29.9655 35.6554 30.3843 35.4853C30.8082 35.3091 31.2421 35.2572 31.686 35.3298C32.1289 35.391 32.5488 35.5906 32.9457 35.9285C33.3365 36.2613 33.6004 36.6441 33.7375 37.0768C33.8737 37.4983 33.8916 37.9349 33.7913 38.3867C33.69 38.8272 33.473 39.2428 33.1402 39.6336L31.6193 41.4195ZM33.6008 44.1023L27.2447 38.6895L27.9779 37.8286L34.3339 43.2414L33.6008 44.1023Z" fill="#363633"/>
<path d="M38.0569 38.9834L32.3719 32.8695L33.2 32.0995L38.885 38.2134L38.0569 38.9834ZM38.6207 38.4591L37.9162 37.7015L41.4225 34.4413L42.1269 35.1989L38.6207 38.4591ZM36.0486 35.6929L35.3768 34.9705L38.5924 31.9806L39.2641 32.703L36.0486 35.6929ZM33.6402 33.1029L32.9358 32.3453L36.3979 29.126L37.1024 29.8836L33.6402 33.1029Z" fill="#363633"/>
<path d="M46.467 31.9506L41.7052 25.0932L42.6241 24.4551L47.3859 31.3125L46.467 31.9506ZM40.8784 26.8976L40.3021 26.0676L42.5253 24.5237L43.1017 25.3537L40.8784 26.8976Z" fill="#363633"/>
<path d="M51.1699 29.1344C50.6233 29.4385 50.0365 29.5632 49.4094 29.5083C48.7893 29.4495 48.1901 29.2139 47.6118 28.8015C47.0297 28.382 46.5261 27.7904 46.101 27.0265C45.676 26.2627 45.4371 25.5283 45.3844 24.8234C45.3388 24.1145 45.4564 23.4847 45.7372 22.9338C46.0141 22.3759 46.4224 21.9468 46.962 21.6465C47.5156 21.3384 48.1024 21.2138 48.7225 21.2726C49.3387 21.3243 49.9324 21.5584 50.5037 21.9747C51.0819 22.3872 51.5855 22.9788 52.0145 23.7497C52.4395 24.5136 52.6768 25.2534 52.7264 25.9692C52.7791 26.6741 52.667 27.3055 52.39 27.8634C52.1162 28.4105 51.7095 28.8341 51.1699 29.1344ZM50.6283 28.2105C51.0137 27.996 51.2916 27.7037 51.4619 27.3336C51.6354 26.9526 51.6892 26.5051 51.6234 25.991C51.5577 25.4769 51.3532 24.9116 51.01 24.2949C50.6669 23.6782 50.2961 23.2099 49.8979 22.89C49.4957 22.5631 49.089 22.3765 48.6777 22.33C48.2625 22.2766 47.8621 22.3571 47.4767 22.5715C47.0983 22.7821 46.8223 23.0779 46.6489 23.4589C46.4716 23.833 46.4158 24.277 46.4816 24.7911C46.5505 25.2942 46.7565 25.8541 47.0996 26.4708C47.4428 27.0875 47.812 27.5612 48.2071 27.892C48.6093 28.2189 49.018 28.4091 49.4332 28.4625C49.8445 28.509 50.2429 28.425 50.6283 28.2105Z" fill="#363633"/>
<path d="M59.6511 21.4872L54.9559 17.8397L56.1985 17.4208L60.0013 20.4171L59.4427 20.6054L60.667 15.9145L61.8868 15.5034L60.3351 21.2566L59.6511 21.4872ZM60.5523 24.7633L59.2305 20.8419L60.302 20.4807L61.6239 24.4021L60.5523 24.7633Z" fill="#363633"/>
<path d="M65.0826 23.3283L63.3934 15.1524L64.5007 14.9236L66.19 23.0995L65.0826 23.3283ZM65.8366 23.1725L65.6273 22.1594L70.316 21.1906L70.5254 22.2037L65.8366 23.1725ZM65.0723 19.4734L64.8727 18.5073L69.1727 17.6189L69.3723 18.5849L65.0723 19.4734ZM64.3567 16.0098L64.1473 14.9967L68.7772 14.04L68.9865 15.0532L64.3567 16.0098Z" fill="#363633"/>
<path d="M71.2381 22.0352L74.0009 13.4482L74.8165 13.3851L78.8541 21.4465L77.6308 21.541L74.292 14.7167L74.7118 14.6842L72.4374 21.9425L71.2381 22.0352ZM72.7117 20.027L72.6356 19.0435L77.0134 18.7051L77.0894 19.6886L72.7117 20.027Z" fill="#363633"/>
<path d="M80.7607 17.9L80.812 16.951L83.0703 17.0731C83.5587 17.0995 83.9418 16.9958 84.2195 16.7618C84.4972 16.5278 84.6475 16.1987 84.6705 15.7742C84.6921 15.3738 84.578 15.0343 84.328 14.7558C84.086 14.4777 83.7208 14.3254 83.2323 14.299L80.962 14.1762L81.0153 13.1912L83.3216 13.3159C83.8501 13.3445 84.305 13.4735 84.6861 13.703C85.0677 13.9244 85.353 14.2169 85.5422 14.5805C85.7394 14.9445 85.8256 15.3548 85.8009 15.8113C85.7754 16.2837 85.645 16.6903 85.4097 17.031C85.1824 17.3721 84.8672 17.6321 84.464 17.8111C84.0612 17.9821 83.5955 18.0533 83.067 18.0247L80.7607 17.9ZM79.8078 21.4867L80.2585 13.1503L81.3877 13.2114L80.9369 21.5477L79.8078 21.4867ZM84.6126 21.7465L81.7875 17.8471L82.8768 17.5325L86.042 21.8238L84.6126 21.7465Z" fill="#363633"/>
<path d="M92.0579 22.8215L91.6059 14.0493L92.6973 14.3451L93.0064 21.4832L92.6929 21.3982L96.5289 15.3834L97.3185 15.5974L97.5927 22.726L97.2908 22.6442L101.162 16.6389L102.241 16.9315L97.4337 24.2783L96.6558 24.0675L96.3668 16.9473L96.6687 17.0291L92.8359 23.0323L92.0579 22.8215Z" fill="#363633"/>
<path d="M99.9992 25.09L106.562 18.901L107.306 19.2392L106.954 28.2483L105.837 27.741L106.205 20.1526L106.588 20.3266L101.094 25.5874L99.9992 25.09ZM102.259 24.0418L102.667 23.1436L106.665 24.959L106.257 25.8572L102.259 24.0418Z" fill="#363633"/>
<path d="M110.131 25.9322L110.632 25.1249L112.553 26.3178C112.969 26.5759 113.355 26.6691 113.711 26.5975C114.067 26.5259 114.357 26.3095 114.581 25.9484C114.793 25.6078 114.856 25.2552 114.771 24.8908C114.692 24.5306 114.445 24.2214 114.029 23.9634L112.098 22.7641L112.618 21.926L114.58 23.1444C115.03 23.4236 115.367 23.7554 115.591 24.1398C115.819 24.5175 115.928 24.9111 115.919 25.3209C115.917 25.7349 115.796 26.1361 115.554 26.5245C115.305 26.9264 114.995 27.2202 114.625 27.4058C114.262 27.5956 113.86 27.672 113.421 27.635C112.985 27.5913 112.543 27.4298 112.093 27.1506L110.131 25.9322ZM107.571 28.6189L111.974 21.5263L112.935 22.1227L108.531 29.2153L107.571 28.6189ZM111.659 31.1571L111.057 26.3796L112.163 26.6276L112.875 31.9122L111.659 31.1571Z" fill="#363633"/>
<path d="M116.865 30.3783L117.465 29.6415L119.218 31.0698C119.598 31.3788 119.968 31.5205 120.331 31.4949C120.693 31.4693 121.008 31.2917 121.277 30.9622C121.53 30.6513 121.637 30.3097 121.599 29.9373C121.568 29.5701 121.362 29.2319 120.983 28.923L119.22 27.487L119.843 26.7222L121.634 28.181C122.044 28.5153 122.336 28.8873 122.509 29.2972C122.687 29.7008 122.745 30.1053 122.684 30.5106C122.629 30.9209 122.457 31.3033 122.169 31.6577C121.87 32.0245 121.525 32.2764 121.134 32.4132C120.75 32.5551 120.342 32.5797 119.91 32.4869C119.484 32.388 119.066 32.1713 118.655 31.837L116.865 30.3783ZM113.983 32.7163L119.255 26.2436L120.132 26.9577L114.859 33.4305L113.983 32.7163ZM117.713 35.7553L117.726 30.9401L118.792 31.3272L118.823 36.6595L117.713 35.7553Z" fill="#363633"/>
<path d="M119.041 36.8059L127.446 33.531L128.01 34.1239L124.303 42.3429L123.458 41.4535L126.646 34.5572L126.936 34.8624L119.87 37.6778L119.041 36.8059ZM121.529 36.682L122.244 36.0024L125.269 39.1851L124.554 39.8647L121.529 36.682Z" fill="#363633"/>
<path d="M124.838 43.0125L131.625 38.1509L132.087 38.7964L131.217 39.8337L125.496 43.9318L124.838 43.0125ZM128.2 47.7067L130.78 39.5546L132.087 38.7964L129.523 46.9511L128.2 47.7067ZM128.2 47.7067L129.011 46.7113L134.791 42.5713L135.449 43.4905L128.662 48.3521L128.2 47.7067Z" fill="#363633"/>
<path d="M130.551 51.6754L137.707 47.8644L138.239 48.8625L131.082 52.6734L130.551 51.6754ZM135.672 45.7318L136.585 45.2455L139.78 51.2447L138.867 51.7309L135.672 45.7318Z" fill="#363633"/>
<path d="M136.999 57.5174L140.468 52.6884L140.933 53.9143L138.082 57.8271L137.873 57.276L142.606 58.3231L143.063 59.5265L137.255 58.1922L136.999 57.5174ZM133.759 58.5411L137.628 57.0728L138.029 58.13L134.161 59.5983L133.759 58.5411Z" fill="#363633"/>
<path d="M140.058 69.3346C140.02 69.1053 140.038 68.895 140.112 68.7038C140.185 68.5126 140.301 68.351 140.458 68.2191C140.624 68.0938 140.813 68.0133 141.027 67.9776C141.241 67.9419 141.442 67.957 141.632 68.0229C141.823 68.0966 141.985 68.212 142.117 68.3688C142.257 68.5243 142.346 68.7168 142.384 68.9462C142.422 69.1756 142.4 69.3826 142.317 69.5672C142.243 69.7584 142.127 69.916 141.969 70.04C141.812 70.1719 141.627 70.2557 141.413 70.2913C141.2 70.327 140.994 70.3086 140.794 70.2362C140.605 70.1703 140.444 70.059 140.312 69.9021C140.181 69.7532 140.097 69.564 140.058 69.3346Z" fill="#363633"/>
<circle cx="79.7617" cy="79.7614" r="41.0576" fill="#363633"/>
<path d="M86.4421 62.4092C87.4779 67.4588 91.9578 75.5381 101.591 79.8885M101.591 79.8885C91.9578 84.2389 87.4779 91.5414 86.4421 96.591M101.591 79.8885H54.5908" stroke="white" stroke-width="3"/>
</svg>
