<svg width="103" height="33" viewBox="0 0 103 33" fill="none" xmlns="http://www.w3.org/2000/svg">
<path d="M17.256 4.184L18.1367 4.6577L18.6135 3.77119L17.7239 3.30021L17.256 4.184ZM10.44 16.856L10.6991 17.8218L11.1162 17.71L11.3207 17.3297L10.44 16.856ZM6.504 17.912L5.62353 17.4379L4.52482 19.4784L6.76313 18.8778L6.504 17.912ZM8.04 15.8L7.37104 15.0567L7.35149 15.0743L7.33289 15.0929L8.04 15.8ZM14.568 17.048L13.8446 17.7385L13.8527 17.7469L13.8609 17.7551L14.568 17.048ZM14.376 28.184L15.0974 28.8765L15.1042 28.8695L15.1108 28.8623L14.376 28.184ZM3.048 28.184L2.34089 28.8911H2.34089L3.048 28.184ZM1.224 19.16L2.17758 19.4611L2.17975 19.4543L2.18183 19.4473L1.224 19.16ZM3.336 14.36L2.4569 13.8833L2.45365 13.8894L3.336 14.36ZM10.728 0.727995L11.1959 -0.155793L10.3209 -0.619036L9.84892 0.251312L10.728 0.727995ZM37.896 4.184L38.7767 4.6577L39.2535 3.77119L38.3639 3.30021L37.896 4.184ZM31.08 16.856L31.3391 17.8218L31.7562 17.71L31.9607 17.3297L31.08 16.856ZM27.144 17.912L26.2635 17.4379L25.1648 19.4784L27.4031 18.8778L27.144 17.912ZM35.208 17.048L34.4846 17.7385L34.4927 17.7469L34.5009 17.7551L35.208 17.048ZM34.92 28.184L34.1992 27.4909L34.1986 27.4915L34.92 28.184ZM21.864 19.16L22.8176 19.4611L22.8198 19.4543L22.8218 19.4473L21.864 19.16ZM23.976 14.36L23.0969 13.8833L23.0936 13.8894L23.976 14.36ZM31.368 0.727995L31.8359 -0.155793L30.9609 -0.619036L30.4889 0.251312L31.368 0.727995ZM16.3753 3.71029L9.55931 16.3823L11.3207 17.3297L18.1367 4.6577L16.3753 3.71029ZM10.1809 15.8902L6.24487 16.9462L6.76313 18.8778L10.6991 17.8218L10.1809 15.8902ZM7.38447 18.3861C7.79353 17.6264 8.2499 17.0043 8.74711 16.5071L7.33289 15.0929C6.6781 15.7477 6.11047 16.5336 5.62353 17.4379L7.38447 18.3861ZM8.70897 16.5433C9.20823 16.094 9.65123 15.936 10.056 15.936V13.936C9.05277 13.936 8.15177 14.354 7.37104 15.0567L8.70897 16.5433ZM10.056 15.936C11.4001 15.936 12.6545 16.4917 13.8446 17.7385L15.2914 16.3575C13.7935 14.7883 12.0399 13.936 10.056 13.936V15.936ZM13.8609 17.7551C15.0691 18.9633 15.68 20.4634 15.68 22.328H17.68C17.68 19.9686 16.8829 17.9487 15.2751 16.3409L13.8609 17.7551ZM15.68 22.328C15.68 24.3136 15.0088 26.0242 13.6412 27.5057L15.1108 28.8623C16.8152 27.0158 17.68 24.8224 17.68 22.328H15.68ZM13.6546 27.4915C12.3093 28.8928 10.6828 29.584 8.712 29.584V31.584C11.2212 31.584 13.3707 30.6752 15.0974 28.8765L13.6546 27.4915ZM8.712 29.584C6.81278 29.584 5.17591 28.8977 3.75511 27.4769L2.34089 28.8911C4.12009 30.6703 6.25922 31.584 8.712 31.584V29.584ZM3.75511 27.4769C2.34645 26.0682 1.648 24.3722 1.648 22.328H-0.352C-0.352 24.8918 0.549555 27.0998 2.34089 28.8911L3.75511 27.4769ZM1.648 22.328C1.648 21.5673 1.81246 20.6174 2.17758 19.4611L0.270418 18.8589C-0.132459 20.1346 -0.352 21.2967 -0.352 22.328H1.648ZM2.18183 19.4473C2.53873 18.2577 3.20872 16.7237 4.21835 14.8306L2.45365 13.8894C1.41528 15.8363 0.67727 17.5023 0.266174 18.8727L2.18183 19.4473ZM4.21508 14.8367L11.6071 1.20468L9.84892 0.251312L2.45692 13.8833L4.21508 14.8367ZM10.2601 1.61178L16.7881 5.06778L17.7239 3.30021L11.1959 -0.155793L10.2601 1.61178ZM37.0153 3.71029L30.1993 16.3823L31.9607 17.3297L38.7767 4.6577L37.0153 3.71029ZM30.8209 15.8902L26.8849 16.9462L27.4031 18.8778L31.3391 17.8218L30.8209 15.8902ZM28.0245 18.3861C28.4335 17.6264 28.8899 17.0043 29.3871 16.5071L27.9729 15.0929C27.3181 15.7477 26.7505 16.5336 26.2635 17.4379L28.0245 18.3861ZM29.3871 16.5071C29.7882 16.106 30.2106 15.936 30.696 15.936V13.936C29.6454 13.936 28.7238 14.342 27.9729 15.0929L29.3871 16.5071ZM30.696 15.936C32.0401 15.936 33.2945 16.4917 34.4846 17.7385L35.9314 16.3575C34.4335 14.7883 32.6799 13.936 30.696 13.936V15.936ZM34.5009 17.7551C35.7091 18.9633 36.32 20.4634 36.32 22.328H38.32C38.32 19.9686 37.5229 17.9487 35.9151 16.3409L34.5009 17.7551ZM36.32 22.328C36.32 24.3009 35.6261 26.0068 34.1992 27.4909L35.6408 28.8771C37.4139 27.0331 38.32 24.8351 38.32 22.328H36.32ZM34.1986 27.4915C32.8533 28.8928 31.2268 29.584 29.256 29.584V31.584C31.7652 31.584 33.9147 30.6752 35.6414 28.8765L34.1986 27.4915ZM29.256 29.584C27.4295 29.584 25.8224 28.9042 24.3951 27.4769L22.9809 28.8911C24.7536 30.6638 26.8585 31.584 29.256 31.584V29.584ZM24.3951 27.4769C22.9864 26.0682 22.288 24.3722 22.288 22.328H20.288C20.288 24.8918 21.1896 27.0998 22.9809 28.8911L24.3951 27.4769ZM22.288 22.328C22.288 21.5673 22.4525 20.6174 22.8176 19.4611L20.9104 18.8589C20.5075 20.1346 20.288 21.2967 20.288 22.328H22.288ZM22.8218 19.4473C23.1787 18.2577 23.8487 16.7237 24.8584 14.8306L23.0936 13.8894C22.0553 15.8363 21.3173 17.5023 20.9062 18.8727L22.8218 19.4473ZM24.8551 14.8367L32.2471 1.20468L30.4889 0.251312L23.0969 13.8833L24.8551 14.8367ZM30.9001 1.61178L37.4281 5.06778L38.3639 3.30021L31.8359 -0.155793L30.9001 1.61178ZM85.9935 28.856L85.1115 28.3847L84.6467 29.2546L85.5101 29.7314L85.9935 28.856ZM92.7135 16.28L92.4326 15.3203L92.0295 15.4382L91.8315 15.8087L92.7135 16.28ZM96.6495 15.128L97.5686 15.5219L98.4041 13.5725L96.3686 14.1683L96.6495 15.128ZM95.2095 17.336L95.8739 18.0834L95.8958 18.0639L95.9166 18.0431L95.2095 17.336ZM88.5855 16.088L87.8784 16.7951L87.8866 16.8033L87.895 16.8114L88.5855 16.088ZM88.7775 4.952L88.0704 4.24489L88.0632 4.25211L88.0561 4.25947L88.7775 4.952ZM100.105 4.952L99.3984 5.6591L99.3984 5.65911L100.105 4.952ZM101.93 14.072L100.972 13.7846L100.967 13.801L100.962 13.8175L101.93 14.072ZM99.9135 18.776L100.79 19.2575L100.796 19.2466L99.9135 18.776ZM92.4255 32.408L91.9421 33.2834L92.8194 33.7679L93.302 32.8894L92.4255 32.408ZM65.3535 28.856L64.4715 28.3847L64.0038 29.26L64.8756 29.7344L65.3535 28.856ZM72.0735 16.28L71.7988 15.3185L71.3913 15.4349L71.1915 15.8087L72.0735 16.28ZM76.1055 15.128L76.9999 15.5752L78.0165 13.542L75.8308 14.1665L76.1055 15.128ZM74.5695 17.336L75.2339 18.0834L75.2558 18.0639L75.2766 18.0431L74.5695 17.336ZM67.9455 16.088L67.2221 16.7785L67.2382 16.7953L67.255 16.8114L67.9455 16.088ZM68.2335 4.952L68.9549 5.64453L68.2335 4.952ZM79.5615 4.952L78.8544 5.6591V5.65911L79.5615 4.952ZM81.3855 14.072L82.3391 14.3731L82.3413 14.3662L82.3433 14.3593L81.3855 14.072ZM79.2735 18.776L80.1526 19.2527L80.1559 19.2466L79.2735 18.776ZM71.8815 32.408L71.4036 33.2864L72.2832 33.765L72.7606 32.8847L71.8815 32.408ZM86.8755 29.3273L93.5955 16.7513L91.8315 15.8087L85.1115 28.3847L86.8755 29.3273ZM92.9944 17.2397L96.9304 16.0877L96.3686 14.1683L92.4326 15.3203L92.9944 17.2397ZM95.7304 14.7341C95.3868 15.5356 94.9726 16.1587 94.5024 16.6289L95.9166 18.0431C96.5984 17.3613 97.1442 16.5124 97.5686 15.5219L95.7304 14.7341ZM94.5451 16.5886C94.1515 16.9385 93.7157 17.104 93.1935 17.104V19.104C94.2074 19.104 95.1155 18.7575 95.8739 18.0834L94.5451 16.5886ZM93.1935 17.104C91.8299 17.104 90.5318 16.5634 89.276 15.3646L87.895 16.8114C89.4552 18.3006 91.2291 19.104 93.1935 19.104V17.104ZM89.2926 15.3809C88.0844 14.1727 87.4735 12.6726 87.4735 10.808H85.4735C85.4735 13.1674 86.2706 15.1873 87.8784 16.7951L89.2926 15.3809ZM87.4735 10.808C87.4735 8.75104 88.1492 7.05044 89.4989 5.64453L88.0561 4.25947C86.3338 6.05355 85.4735 8.25695 85.4735 10.808H87.4735ZM89.4846 5.6591C90.8992 4.2445 92.5657 3.55199 94.5375 3.55199V1.55199C92.0293 1.55199 89.8558 2.45949 88.0704 4.24489L89.4846 5.6591ZM94.5375 3.55199C96.364 3.55199 97.9711 4.23182 99.3984 5.6591L100.813 4.24489C99.0399 2.47217 96.935 1.55199 94.5375 1.55199V3.55199ZM99.3984 5.65911C100.807 7.06777 101.506 8.76379 101.506 10.808H103.506C103.506 8.2442 102.604 6.03623 100.813 4.24489L99.3984 5.65911ZM101.506 10.808C101.506 11.5715 101.34 12.5568 100.972 13.7846L102.887 14.3593C103.287 13.0272 103.506 11.8365 103.506 10.808H101.506ZM100.962 13.8175C100.671 14.9233 100.041 16.4119 99.0312 18.3054L100.796 19.2466C101.834 17.3 102.548 15.6527 102.897 14.3265L100.962 13.8175ZM99.037 18.2946L91.549 31.9266L93.302 32.8894L100.79 19.2574L99.037 18.2946ZM92.9089 31.5326L86.4769 27.9806L85.5101 29.7314L91.9421 33.2834L92.9089 31.5326ZM66.2355 29.3273L72.9555 16.7513L71.1915 15.8087L64.4715 28.3847L66.2355 29.3273ZM72.3482 17.2415L76.3802 16.0895L75.8308 14.1665L71.7988 15.3185L72.3482 17.2415ZM75.2111 14.6808C74.8005 15.5019 74.3472 16.144 73.8624 16.6289L75.2766 18.0431C75.9438 17.376 76.5145 16.5461 76.9999 15.5752L75.2111 14.6808ZM73.9051 16.5886C73.5115 16.9385 73.0756 17.104 72.5535 17.104V19.104C73.5674 19.104 74.4755 18.7575 75.2339 18.0834L73.9051 16.5886ZM72.5535 17.104C71.1899 17.104 69.8918 16.5634 68.636 15.3646L67.255 16.8114C68.8152 18.3006 70.5891 19.104 72.5535 19.104V17.104ZM68.6689 15.3975C67.5183 14.1922 66.9295 12.6868 66.9295 10.808H64.9295C64.9295 13.1532 65.6847 15.1678 67.2221 16.7785L68.6689 15.3975ZM66.9295 10.808C66.9295 8.75104 67.6052 7.05044 68.9549 5.64453L67.5121 4.25947C65.7898 6.05355 64.9295 8.25695 64.9295 10.808H66.9295ZM68.9549 5.64453C70.3002 4.24316 71.9267 3.55199 73.8975 3.55199V1.55199C71.3883 1.55199 69.2388 2.46083 67.5121 4.25947L68.9549 5.64453ZM73.8975 3.55199C75.7967 3.55199 77.4336 4.2383 78.8544 5.6591L80.2686 4.24489C78.4894 2.46569 76.3503 1.55199 73.8975 1.55199V3.55199ZM78.8544 5.65911C80.2631 7.06777 80.9615 8.76379 80.9615 10.808H82.9615C82.9615 8.2442 82.0599 6.03623 80.2686 4.24489L78.8544 5.65911ZM80.9615 10.808C80.9615 11.5715 80.796 12.5568 80.4277 13.7846L82.3433 14.3593C82.743 13.0272 82.9615 11.8365 82.9615 10.808H80.9615ZM80.4319 13.7709C80.0749 14.9016 79.4034 16.4074 78.3912 18.3054L80.1559 19.2466C81.1916 17.3046 81.9281 15.6744 82.3391 14.3731L80.4319 13.7709ZM78.3944 18.2993L71.0024 31.9313L72.7606 32.8847L80.1526 19.2527L78.3944 18.2993ZM72.3595 31.5296L65.8314 27.9776L64.8756 29.7344L71.4036 33.2864L72.3595 31.5296Z" fill="white"/>
</svg>
