<svg width="887" height="1248" viewBox="0 0 887 1248" fill="none" xmlns="http://www.w3.org/2000/svg">
<g clip-path="url(#clip0_446_1424)">
<path d="M468.496 2103.91L121.924 810.481C111.624 772.042 72.1125 749.23 33.6727 759.53L-1320.08 1122.27" stroke="white" stroke-opacity="0.2" stroke-width="2.40189"/>
<path d="M880.75 1396.66L534.178 103.228C523.878 64.7887 484.366 41.9767 445.927 52.2766L-907.822 415.012" stroke="white" stroke-opacity="0.2" stroke-width="2.40189"/>
<path d="M940.797 1302.98L594.225 9.55465C583.925 -28.8852 544.413 -51.6972 505.973 -41.3973L-847.775 321.338" stroke="white" stroke-opacity="0.2" stroke-width="2.40189"/>
<path d="M1000.84 1209.31L654.271 -84.1192C643.972 -122.559 604.46 -145.371 566.02 -135.071L-787.728 227.665" stroke="white" stroke-opacity="0.2" stroke-width="2.40189"/>
<path d="M1060.89 1115.63L714.318 -177.793C704.018 -216.233 664.507 -239.045 626.067 -228.745L-727.681 133.991" stroke="white" stroke-opacity="0.2" stroke-width="2.40189"/>
<path d="M262.371 2457.53L-84.2012 1164.11C-94.5011 1125.67 -134.013 1102.86 -172.452 1113.15L-1526.2 1475.89" stroke="white" stroke-opacity="0.2" stroke-width="2.40189"/>
<path d="M674.623 1750.28L328.051 456.854C317.751 418.415 278.239 395.603 239.8 405.903L-1113.95 768.638" stroke="white" stroke-opacity="0.2" stroke-width="2.40189"/>
<path d="M417.545 2192.16L70.9726 898.732C60.6727 860.292 21.1613 837.48 -17.2785 847.78L-1371.03 1210.52" stroke="white" stroke-opacity="0.2" stroke-width="2.40189"/>
<path d="M829.799 1484.91L483.227 191.48C472.927 153.041 433.415 130.229 394.975 140.529L-958.773 503.264" stroke="white" stroke-opacity="0.2" stroke-width="2.40189"/>
<path d="M211.42 2545.78L-135.152 1252.36C-145.452 1213.92 -184.964 1191.11 -223.404 1201.41L-1577.15 1564.14" stroke="white" stroke-opacity="0.2" stroke-width="2.40189"/>
<path d="M623.672 1838.53L277.1 545.106C266.8 506.667 227.288 483.855 188.848 494.155L-1164.9 856.89" stroke="white" stroke-opacity="0.2" stroke-width="2.40189"/>
<path d="M364.272 2281.03L17.6992 987.604C7.39928 949.165 -32.1121 926.353 -70.5519 936.653L-1424.3 1299.39" stroke="white" stroke-opacity="0.2" stroke-width="2.40189"/>
<path d="M776.53 1573.78L429.957 280.353C419.657 241.913 380.146 219.101 341.706 229.401L-1012.04 592.136" stroke="white" stroke-opacity="0.2" stroke-width="2.40189"/>
<path d="M570.399 1927.41L223.826 633.978C213.526 595.539 174.015 572.727 135.575 583.027L-1218.17 945.762" stroke="white" stroke-opacity="0.2" stroke-width="2.40189"/>
<path d="M313.323 2369.28L-33.25 1075.85C-43.5499 1037.42 -83.0613 1014.6 -121.501 1024.9L-1475.25 1387.64" stroke="white" stroke-opacity="0.2" stroke-width="2.40189"/>
<path d="M725.575 1662.03L379.002 368.603C368.702 330.164 329.191 307.352 290.751 317.652L-1063 680.387" stroke="white" stroke-opacity="0.2" stroke-width="2.40189"/>
<path d="M519.448 2015.66L172.875 722.229C162.575 683.79 123.064 660.978 84.6238 671.278L-1269.12 1034.01" stroke="white" stroke-opacity="0.2" stroke-width="2.40189"/>
</g>
<defs>
<clipPath id="clip0_446_1424">
<rect width="1072" height="1248" fill="white" transform="translate(-185)"/>
</clipPath>
</defs>
</svg>
