<svg width="1920" height="622" viewBox="0 0 1920 622" fill="none" xmlns="http://www.w3.org/2000/svg">
<g opacity="0.2">
<path d="M0 4.10303L34.0908 38.1938H149.841L183.932 4.10303H316.331L350.422 38.1938H485.992L520.083 4.10303H639.798" stroke="#E2E2E2" stroke-width="2"/>
<path d="M2.34473 1.17236V957.807" stroke="white" stroke-width="2"/>
<path d="M34.5845 36.9289V954.876M145.371 36.9289V954.876M182.3 0V917.947M317.706 0V917.947M355.807 38.1013V956.049M484.766 38.1013V956.049M520.522 2.34469V920.292" stroke="white" stroke-width="3"/>
<path d="M640.102 4.10303L674.192 38.1938H789.943L824.033 4.10303H956.433L990.524 38.1938H1126.09L1160.18 4.10303H1279.9" stroke="#E2E2E2" stroke-width="2"/>
<path d="M642.447 1.17236V957.807" stroke="white" stroke-width="2"/>
<path d="M674.686 36.9289V954.876M785.472 36.9289V954.876M822.401 0V917.947M957.807 0V917.947M995.908 38.1013V956.049M1124.87 38.1013V956.049M1160.62 2.34469V920.292" stroke="white" stroke-width="3"/>
<path d="M1280.2 4.10303L1314.29 38.1938H1430.04L1464.13 4.10303H1596.53L1630.62 38.1938H1766.19L1800.29 4.10303H1920" stroke="#E2E2E2" stroke-width="2"/>
<path d="M1282.55 1.17236V957.807" stroke="white" stroke-width="2"/>
<path d="M1314.79 36.9289V954.876M1425.57 36.9289V954.876M1462.5 0V917.947M1597.91 0V917.947M1636.01 38.1013V956.049M1764.97 38.1013V956.049M1800.72 2.34469V920.292" stroke="white" stroke-width="3"/>
</g>
</svg>
