<svg width="1920" height="774" viewBox="0 0 1920 774" fill="none" xmlns="http://www.w3.org/2000/svg">
<line x1="24.1328" y1="55.119" x2="24.1328" y2="718.481" stroke="white"/>
<line x1="65.6943" y1="55.119" x2="65.6943" y2="718.481" stroke="white"/>
<line x1="83.624" y1="55.119" x2="83.624" y2="718.481" stroke="white"/>
<line x1="101.553" y1="55.119" x2="101.553" y2="718.481" stroke="white"/>
<line x1="119.48" y1="55.119" x2="119.48" y2="718.481" stroke="white"/>
<line x1="161.043" y1="55.119" x2="161.043" y2="718.481" stroke="white"/>
<line x1="967.835" y1="55.119" x2="967.835" y2="718.481" stroke="white"/>
<line x1="1009.4" y1="55.119" x2="1009.4" y2="718.481" stroke="white"/>
<line x1="1027.33" y1="55.119" x2="1027.33" y2="718.481" stroke="white"/>
<line x1="1045.25" y1="55.119" x2="1045.25" y2="718.481" stroke="white"/>
<line x1="1063.18" y1="55.119" x2="1063.18" y2="718.481" stroke="white"/>
<line x1="1104.74" y1="55.119" x2="1104.74" y2="718.481" stroke="white"/>
<line x1="495.983" y1="55.119" x2="495.983" y2="718.481" stroke="white"/>
<line x1="537.545" y1="55.119" x2="537.545" y2="718.481" stroke="white"/>
<line x1="555.475" y1="55.119" x2="555.475" y2="718.481" stroke="white"/>
<line x1="573.403" y1="55.119" x2="573.403" y2="718.481" stroke="white"/>
<line x1="591.331" y1="55.119" x2="591.331" y2="718.481" stroke="white"/>
<line x1="632.893" y1="55.119" x2="632.893" y2="718.481" stroke="white"/>
<line x1="1439.68" y1="55.119" x2="1439.68" y2="718.481" stroke="white"/>
<line x1="1481.25" y1="55.119" x2="1481.25" y2="718.481" stroke="white"/>
<line x1="1499.17" y1="55.119" x2="1499.17" y2="718.481" stroke="white"/>
<line x1="1517.1" y1="55.119" x2="1517.1" y2="718.481" stroke="white"/>
<line x1="1535.03" y1="55.119" x2="1535.03" y2="718.481" stroke="white"/>
<line x1="1576.59" y1="55.119" x2="1576.59" y2="718.481" stroke="white"/>
<line x1="181.417" y1="55.119" x2="181.417" y2="718.481" stroke="white"/>
<line x1="222.979" y1="55.119" x2="222.978" y2="718.481" stroke="white"/>
<line x1="240.908" y1="55.119" x2="240.908" y2="718.481" stroke="white"/>
<line x1="258.837" y1="55.119" x2="258.837" y2="718.481" stroke="white"/>
<line x1="276.765" y1="55.119" x2="276.765" y2="718.481" stroke="white"/>
<line x1="318.326" y1="55.119" x2="318.326" y2="718.481" stroke="white"/>
<line x1="1125.12" y1="55.119" x2="1125.12" y2="718.481" stroke="white"/>
<line x1="1166.68" y1="55.119" x2="1166.68" y2="718.481" stroke="white"/>
<line x1="1184.61" y1="55.119" x2="1184.61" y2="718.481" stroke="white"/>
<line x1="1202.54" y1="55.119" x2="1202.54" y2="718.481" stroke="white"/>
<line x1="1220.47" y1="55.119" x2="1220.47" y2="718.481" stroke="white"/>
<line x1="1262.03" y1="55.119" x2="1262.03" y2="718.481" stroke="white"/>
<line x1="653.268" y1="55.119" x2="653.268" y2="718.481" stroke="white"/>
<line x1="694.829" y1="55.119" x2="694.829" y2="718.481" stroke="white"/>
<line x1="712.759" y1="55.119" x2="712.759" y2="718.481" stroke="white"/>
<line x1="730.688" y1="55.119" x2="730.688" y2="718.481" stroke="white"/>
<line x1="748.615" y1="55.119" x2="748.615" y2="718.481" stroke="white"/>
<line x1="790.178" y1="55.119" x2="790.178" y2="718.481" stroke="white"/>
<line x1="1596.97" y1="55.119" x2="1596.97" y2="718.481" stroke="white"/>
<line x1="1638.53" y1="55.119" x2="1638.53" y2="718.481" stroke="white"/>
<line x1="1656.46" y1="55.119" x2="1656.46" y2="718.481" stroke="white"/>
<line x1="1674.39" y1="55.119" x2="1674.39" y2="718.481" stroke="white"/>
<line x1="1692.32" y1="55.119" x2="1692.32" y2="718.481" stroke="white"/>
<line x1="1733.88" y1="55.119" x2="1733.88" y2="718.481" stroke="white"/>
<line x1="338.7" y1="55.119" x2="338.7" y2="718.481" stroke="white"/>
<line x1="380.262" y1="55.119" x2="380.262" y2="718.481" stroke="white"/>
<line x1="398.191" y1="55.119" x2="398.191" y2="718.481" stroke="white"/>
<line x1="416.12" y1="55.119" x2="416.12" y2="718.481" stroke="white"/>
<line x1="434.048" y1="55.119" x2="434.048" y2="718.481" stroke="white"/>
<line x1="475.609" y1="55.119" x2="475.609" y2="718.481" stroke="white"/>
<line x1="1282.4" y1="55.119" x2="1282.4" y2="718.481" stroke="white"/>
<line x1="1323.96" y1="55.119" x2="1323.96" y2="718.481" stroke="white"/>
<line x1="1341.89" y1="55.119" x2="1341.89" y2="718.481" stroke="white"/>
<line x1="1359.82" y1="55.119" x2="1359.82" y2="718.481" stroke="white"/>
<line x1="1377.75" y1="55.119" x2="1377.75" y2="718.481" stroke="white"/>
<line x1="1419.31" y1="55.119" x2="1419.31" y2="718.481" stroke="white"/>
<line x1="810.551" y1="55.119" x2="810.551" y2="718.481" stroke="white"/>
<line x1="852.112" y1="55.119" x2="852.112" y2="718.481" stroke="white"/>
<line x1="870.042" y1="55.119" x2="870.042" y2="718.481" stroke="white"/>
<line x1="887.971" y1="55.119" x2="887.971" y2="718.481" stroke="white"/>
<line x1="905.898" y1="55.119" x2="905.898" y2="718.481" stroke="white"/>
<line x1="947.46" y1="55.119" x2="947.46" y2="718.481" stroke="white"/>
<line x1="1754.25" y1="55.119" x2="1754.25" y2="718.481" stroke="white"/>
<line x1="1795.81" y1="55.119" x2="1795.81" y2="718.481" stroke="white"/>
<line x1="1813.74" y1="55.119" x2="1813.74" y2="718.481" stroke="white"/>
<line x1="1831.67" y1="55.119" x2="1831.67" y2="718.481" stroke="white"/>
<line x1="1849.6" y1="55.119" x2="1849.6" y2="718.481" stroke="white"/>
<line x1="1891.16" y1="55.119" x2="1891.16" y2="718.481" stroke="white"/>
<rect x="0.5" y="0.5" width="1919" height="55" stroke="white"/>
<rect x="0.5" y="718.5" width="1919" height="55" stroke="white"/>
</svg>
