<svg width="1016" height="1183" viewBox="0 0 1016 1183" fill="none" xmlns="http://www.w3.org/2000/svg">
<g clip-path="url(#clip0_409_1030)">
<path d="M653.497 2103.91L306.925 810.481C296.625 772.041 257.113 749.229 218.674 759.529L-1135.07 1122.26" stroke="white" stroke-width="2.40189"/>
<path d="M1065.75 1396.66L719.177 103.228C708.877 64.7887 669.365 41.9767 630.926 52.2766L-722.823 415.012" stroke="white" stroke-width="2.40189"/>
<path d="M1125.8 1302.98L779.225 9.55465C768.925 -28.8852 729.413 -51.6972 690.973 -41.3973L-662.775 321.338" stroke="white" stroke-width="2.40189"/>
<path d="M1185.84 1209.31L839.271 -84.1192C828.972 -122.559 789.46 -145.371 751.02 -135.071L-602.728 227.665" stroke="white" stroke-width="2.40189"/>
<path d="M1245.89 1115.63L899.319 -177.793C889.019 -216.233 849.508 -239.045 811.068 -228.745L-542.68 133.991" stroke="white" stroke-width="2.40189"/>
<path d="M447.37 2457.53L100.798 1164.11C90.4979 1125.67 50.9865 1102.85 12.5467 1113.15L-1341.2 1475.89" stroke="white" stroke-width="2.40189"/>
<path d="M859.623 1750.28L513.051 456.854C502.751 418.414 463.239 395.602 424.8 405.902L-928.949 768.638" stroke="white" stroke-width="2.40189"/>
<path d="M602.546 2192.16L255.974 898.731C245.674 860.292 206.162 837.48 167.722 847.78L-1186.03 1210.52" stroke="white" stroke-width="2.40189"/>
<path d="M1014.8 1484.91L668.227 191.48C657.927 153.041 618.415 130.229 579.975 140.529L-773.773 503.264" stroke="white" stroke-width="2.40189"/>
<path d="M396.419 2545.78L49.8467 1252.36C39.5467 1213.92 0.0353481 1191.11 -38.4045 1201.41L-1392.15 1564.14" stroke="white" stroke-width="2.40189"/>
<path d="M808.672 1838.53L462.1 545.106C451.8 506.666 412.288 483.854 373.848 494.154L-979.9 856.89" stroke="white" stroke-width="2.40189"/>
<path d="M549.273 2281.03L202.7 987.604C192.4 949.164 152.889 926.352 114.449 936.652L-1239.3 1299.39" stroke="white" stroke-width="2.40189"/>
<path d="M961.53 1573.78L614.957 280.353C604.657 241.913 565.146 219.101 526.706 229.401L-827.043 592.136" stroke="white" stroke-width="2.40189"/>
<path d="M755.399 1927.41L408.826 633.978C398.526 595.539 359.015 572.727 320.575 583.027L-1033.17 945.762" stroke="white" stroke-width="2.40189"/>
<path d="M498.322 2369.28L151.749 1075.85C141.449 1037.41 101.938 1014.6 63.4979 1024.9L-1290.25 1387.64" stroke="white" stroke-width="2.40189"/>
<path d="M910.575 1662.03L564.002 368.603C553.702 330.164 514.191 307.352 475.751 317.652L-877.998 680.387" stroke="white" stroke-width="2.40189"/>
<path d="M704.448 2015.66L357.875 722.229C347.575 683.789 308.064 660.977 269.624 671.277L-1084.12 1034.01" stroke="white" stroke-width="2.40189"/>
</g>
<defs>
<clipPath id="clip0_409_1030">
<rect width="1016" height="1183" fill="white"/>
</clipPath>
</defs>
</svg>
