<svg width="414" height="578" viewBox="0 0 414 578" fill="none" xmlns="http://www.w3.org/2000/svg">
<g clip-path="url(#clip0_409_956)">
<rect width="414" height="578" fill="#6B6358"/>
<path d="M272.076 875.938L127.784 337.434C123.496 321.43 107.046 311.933 91.0421 316.221L-472.576 467.242" stroke="#514B42"/>
<path d="M443.713 581.482L299.421 42.978C295.133 26.974 278.683 17.4765 262.679 21.7648L-300.939 172.786" stroke="#514B42"/>
<path d="M468.713 542.481L324.421 3.97773C320.133 -12.0263 303.683 -21.5237 287.679 -17.2355L-275.939 133.785" stroke="#514B42"/>
<path d="M493.713 503.481L349.421 -35.0223C345.133 -51.0263 328.683 -60.5237 312.679 -56.2355L-250.939 94.7854" stroke="#514B42"/>
<path d="M518.713 464.481L374.421 -74.0223C370.133 -90.0263 353.683 -99.5237 337.679 -95.2355L-225.939 55.7854" stroke="#514B42"/>
<path d="M186.258 1023.17L41.966 484.663C37.6778 468.659 21.2277 459.161 5.2237 463.449L-558.394 614.47" stroke="#514B42"/>
<path d="M357.894 728.71L213.603 190.206C209.315 174.202 192.864 164.705 176.86 168.993L-386.757 320.014" stroke="#514B42"/>
<path d="M250.863 912.68L106.572 374.177C102.283 358.173 85.8332 348.675 69.8292 352.963L-493.789 503.984" stroke="#514B42"/>
<path d="M422.5 618.224L278.208 79.7204C273.92 63.7164 257.47 54.2189 241.466 58.5072L-322.152 209.528" stroke="#514B42"/>
<path d="M165.045 1059.91L20.7532 521.405C16.4649 505.401 0.0147959 495.903 -15.9892 500.192L-579.607 651.212" stroke="#514B42"/>
<path d="M336.681 765.452L192.39 226.949C188.102 210.945 171.652 201.447 155.648 205.735L-407.97 356.756" stroke="#514B42"/>
<path d="M228.683 949.681L84.3918 411.178C80.1036 395.174 63.6535 385.676 47.6495 389.964L-515.968 540.985" stroke="#514B42"/>
<path d="M400.322 655.225L256.031 116.722C251.742 100.718 235.292 91.2202 219.288 95.5084L-344.33 246.529" stroke="#514B42"/>
<path d="M142.865 1096.91L-1.42653 558.406C-5.71478 542.402 -22.1649 532.904 -38.1689 537.193L-601.787 688.214" stroke="#514B42"/>
<path d="M314.502 802.453L170.21 263.95C165.922 247.946 149.472 238.448 133.468 242.736L-430.15 393.757" stroke="#514B42"/>
<path d="M207.471 986.424L63.1789 447.92C58.8907 431.916 42.4406 422.419 26.4366 426.707L-537.181 577.728" stroke="#514B42"/>
<path d="M379.107 691.968L234.816 153.464C230.527 137.46 214.077 127.963 198.073 132.251L-365.544 283.272" stroke="#514B42"/>
<path d="M121.652 1133.65L-22.6394 595.148C-26.9277 579.144 -43.3778 569.647 -59.3818 573.935L-623 724.956" stroke="#514B42"/>
<path d="M293.289 839.196L148.997 300.692C144.709 284.688 128.259 275.19 112.255 279.479L-451.363 430.5" stroke="#514B42"/>
</g>
<defs>
<clipPath id="clip0_409_956">
<rect width="414" height="578" fill="white"/>
</clipPath>
</defs>
</svg>
