<svg width="414" height="578" viewBox="0 0 414 578" fill="none" xmlns="http://www.w3.org/2000/svg">
<g clip-path="url(#clip0_409_979)">
<rect width="414" height="578" fill="#53514D"/>
<path d="M-41.8633 -0.0719604L-12.7841 29.0072H85.9497L115.029 -0.0719604H227.964L257.043 29.0072H372.683L401.763 -0.0719604H503.878L532.957 29.0072" stroke="#737373"/>
<path d="M-298.842 335.353L-269.763 364.432H-171.029L-141.95 335.353H-29.0145L0.0646728 364.432H115.705L144.784 335.353H246.899L275.978 364.432" stroke="#737373"/>
<path d="M246.223 335.353L275.302 364.432H374.036L403.115 335.353H516.05L545.129 364.432H660.769L689.849 335.353H791.964L821.043 364.432" stroke="#737373"/>
<path d="M-438.151 167.64L-409.072 196.719H-310.338L-281.259 167.64H-168.324L-139.245 196.719H-23.6046L5.47452 167.64H107.59L136.669 196.719" stroke="#737373"/>
<path d="M106.913 167.64L135.992 196.719H234.726L263.805 167.64H376.74L405.82 196.719H521.46L550.539 167.64H652.654L681.733 196.719" stroke="#737373"/>
<path d="M-150.065 503.065L-120.986 532.144H-22.2525L6.82665 503.065H119.762L148.841 532.144H264.481L293.56 503.065H395.676L424.755 532.144" stroke="#737373"/>
<path d="M395 503.065L424.079 532.144H522.813L551.892 503.065H664.827L693.906 532.144H809.547L838.626 503.065H940.741L969.82 532.144" stroke="#737373"/>
<path d="M-517.95 83.7842L-488.871 112.863H-390.137L-361.058 83.7842H-248.123L-219.044 112.863H-103.403L-74.3243 83.7842H27.7908L56.8699 112.863" stroke="#737373"/>
<path d="M27.1152 83.7842L56.1944 112.863H154.928L184.007 83.7842H296.943L326.022 112.863H441.662L470.741 83.7842H572.856L601.935 112.863" stroke="#737373"/>
<path d="M-229.863 419.209L-200.784 448.288H-102.05L-72.9712 419.209H39.9641L69.0432 448.288H184.683L213.763 419.209H315.878L344.957 448.288" stroke="#737373"/>
<path d="M315.201 419.209L344.28 448.288H443.014L472.093 419.209H585.029L614.108 448.288H729.748L758.827 419.209H860.942L890.021 448.288" stroke="#737373"/>
<path d="M-369.173 251.496L-340.094 280.575H-241.36L-212.281 251.496H-99.3455L-70.2664 280.575H45.3739L74.453 251.496H176.568L205.647 280.575" stroke="#737373"/>
<path d="M175.892 251.496L204.971 280.575H303.705L332.784 251.496H445.719L474.798 280.575H590.438L619.517 251.496H721.633L750.712 280.575" stroke="#737373"/>
<path d="M-336.713 293.424L-307.634 322.504H-208.9L-179.821 293.424H-66.8856L-37.8064 322.504H77.8339L106.913 293.424H209.028L238.107 322.504" stroke="#737373"/>
<path d="M208.353 293.424L237.432 322.504H336.165L365.245 293.424H478.18L507.259 322.504H622.899L651.978 293.424H754.094L783.173 322.504" stroke="#737373"/>
<path d="M-478.727 125.712L-449.647 154.791H-350.914L-321.834 125.712H-208.899L-179.82 154.791H-64.1798L-35.1007 125.712H67.0144L96.0936 154.791" stroke="#737373"/>
<path d="M66.3379 125.712L95.417 154.791H194.151L223.23 125.712H336.165L365.244 154.791H480.885L509.964 125.712H612.079L641.158 154.791" stroke="#737373"/>
<path d="M-187.936 461.137L-158.856 490.216H-60.1226L-31.0435 461.137H81.8918L110.971 490.216H226.611L255.69 461.137H357.805L386.885 490.216" stroke="#737373"/>
<path d="M357.129 461.137L386.208 490.216H484.942L514.021 461.137H626.956L656.035 490.216H771.676L800.755 461.137H902.87L931.949 490.216" stroke="#737373"/>
<path d="M-555.82 41.8561L-526.741 70.9353H-428.007L-398.928 41.8561H-285.993L-256.914 70.9353H-141.274L-112.194 41.8561H-10.0793L18.9998 70.9353" stroke="#737373"/>
<path d="M-10.7559 41.8561L18.3233 70.9353H117.057L146.136 41.8561H259.071L288.151 70.9353H403.791L432.87 41.8561H534.985L564.064 70.9353" stroke="#737373"/>
<path d="M-267.734 377.281L-238.655 406.36H-139.921L-110.842 377.281H2.09296L31.1721 406.36H146.812L175.892 377.281H278.007L307.086 406.36" stroke="#737373"/>
<path d="M277.331 377.281L306.41 406.36H405.144L434.223 377.281H547.158L576.238 406.36H691.878L720.957 377.281H823.072L852.151 406.36" stroke="#737373"/>
<path d="M-407.043 209.568L-377.964 238.647H-279.23L-250.151 209.568H-137.216L-108.136 238.647H7.50379L36.5829 209.568H138.698L167.777 238.647" stroke="#737373"/>
<path d="M138.021 209.568L167.101 238.647H265.834L294.914 209.568H407.849L436.928 238.647H552.568L581.647 209.568H683.762L712.842 238.647" stroke="#737373"/>
<path d="M-118.957 544.993L-89.8779 574.072H8.85592L37.9351 544.993H150.87L179.949 574.072H295.59L324.669 544.993H426.784L455.863 574.072" stroke="#737373"/>
</g>
<defs>
<clipPath id="clip0_409_979">
<rect width="414" height="578" fill="white"/>
</clipPath>
</defs>
</svg>
