<svg width="641" height="578" viewBox="0 0 641 578" fill="none" xmlns="http://www.w3.org/2000/svg">
<g clip-path="url(#clip0_409_1110)">
<path d="M-472.929 -0.0717773L-443.85 29.0074H-345.116L-316.037 -0.0717773H-203.101L-174.022 29.0074H-58.382L-29.3028 -0.0717773H72.8123L101.891 29.0074" stroke="#E2E2E2"/>
<path d="M72.1367 -0.0717773L101.216 29.0074H199.95L229.029 -0.0717773H341.964L371.043 29.0074H486.683L515.763 -0.0717773H617.878L646.957 29.0074" stroke="#E2E2E2"/>
<path d="M-184.842 335.353L-155.763 364.432H-57.0288L-27.9497 335.353H84.9855L114.065 364.432H229.705L258.784 335.353H360.899L389.978 364.432" stroke="#E2E2E2"/>
<path d="M360.223 335.353L389.302 364.432H488.036L517.115 335.353H630.05L659.129 364.432H774.769L803.849 335.353H905.964L935.043 364.432" stroke="#E2E2E2"/>
<path d="M-324.151 167.64L-295.072 196.719H-196.338L-167.259 167.64H-54.324L-25.2449 196.719H90.3954L119.475 167.64H221.59L250.669 196.719" stroke="#E2E2E2"/>
<path d="M220.913 167.64L249.992 196.719H348.726L377.805 167.64H490.74L519.82 196.719H635.46L664.539 167.64H766.654L795.733 196.719" stroke="#E2E2E2"/>
<path d="M-36.0654 503.065L-6.98629 532.144H91.7475L120.827 503.065H233.762L262.841 532.144H378.481L407.56 503.065H509.676L538.755 532.144" stroke="#E2E2E2"/>
<path d="M509 503.065L538.079 532.144H636.813L665.892 503.065H778.827L807.906 532.144H923.547L952.626 503.065H1054.74L1083.82 532.144" stroke="#E2E2E2"/>
<path d="M-403.95 83.7842L-374.871 112.863H-276.137L-247.058 83.7842H-134.123L-105.044 112.863H10.5966L39.6757 83.7842H141.791L170.87 112.863" stroke="#E2E2E2"/>
<path d="M141.115 83.7842L170.194 112.863H268.928L298.007 83.7842H410.943L440.022 112.863H555.662L584.741 83.7842H686.856L715.935 112.863" stroke="#E2E2E2"/>
<path d="M-115.863 419.208L-86.7841 448.288H11.9497L41.0288 419.208H153.964L183.043 448.288H298.683L327.763 419.208H429.878L458.957 448.288" stroke="#E2E2E2"/>
<path d="M429.201 419.208L458.28 448.288H557.014L586.093 419.208H699.029L728.108 448.288H843.748L872.827 419.208H974.942L1004.02 448.288" stroke="#E2E2E2"/>
<path d="M-255.173 251.497L-226.094 280.576H-127.36L-98.2808 251.497H14.6545L43.7336 280.576H159.374L188.453 251.497H290.568L319.647 280.576" stroke="#E2E2E2"/>
<path d="M289.892 251.497L318.971 280.576H417.705L446.784 251.497H559.719L588.798 280.576H704.438L733.517 251.497H835.633L864.712 280.576" stroke="#E2E2E2"/>
<path d="M-222.713 293.424L-193.634 322.503H-94.8999L-65.8208 293.424H47.1144L76.1936 322.503H191.834L220.913 293.424H323.028L352.107 322.503" stroke="#E2E2E2"/>
<path d="M322.353 293.424L351.432 322.503H450.165L479.245 293.424H592.18L621.259 322.503H736.899L765.978 293.424H868.094L897.173 322.503" stroke="#E2E2E2"/>
<path d="M-364.727 125.712L-335.647 154.792H-236.914L-207.834 125.712H-94.8992L-65.8201 154.792H49.8202L78.8993 125.712H181.014L210.094 154.792" stroke="#E2E2E2"/>
<path d="M180.338 125.712L209.417 154.792H308.151L337.23 125.712H450.165L479.244 154.792H594.885L623.964 125.712H726.079L755.158 154.792" stroke="#E2E2E2"/>
<path d="M-73.9355 461.137L-44.8564 490.216H53.8774L82.9565 461.137H195.892L224.971 490.216H340.611L369.69 461.137H471.805L500.885 490.216" stroke="#E2E2E2"/>
<path d="M471.129 461.137L500.208 490.216H598.942L628.021 461.137H740.956L770.035 490.216H885.676L914.755 461.137H1016.87L1045.95 490.216" stroke="#E2E2E2"/>
<path d="M-441.82 41.856L-412.741 70.9351H-314.007L-284.928 41.856H-171.993L-142.914 70.9351H-27.2736L1.80558 41.856H103.921L133 70.9351" stroke="#E2E2E2"/>
<path d="M103.244 41.856L132.323 70.9351H231.057L260.136 41.856H373.071L402.151 70.9351H517.791L546.87 41.856H648.985L678.064 70.9351" stroke="#E2E2E2"/>
<path d="M-153.734 377.281L-124.655 406.36H-25.9214L3.15771 377.281H116.093L145.172 406.36H260.812L289.892 377.281H392.007L421.086 406.36" stroke="#E2E2E2"/>
<path d="M391.331 377.281L420.41 406.36H519.144L548.223 377.281H661.158L690.238 406.36H805.878L834.957 377.281H937.072L966.151 406.36" stroke="#E2E2E2"/>
<path d="M-293.043 209.568L-263.964 238.647H-165.23L-136.151 209.568H-23.2156L5.8635 238.647H121.504L150.583 209.568H252.698L281.777 238.647" stroke="#E2E2E2"/>
<path d="M252.021 209.568L281.101 238.647H379.834L408.914 209.568H521.849L550.928 238.647H666.568L695.647 209.568H797.762L826.842 238.647" stroke="#E2E2E2"/>
<path d="M-4.95703 544.993L24.1221 574.072H122.856L151.935 544.993H264.87L293.949 574.072H409.59L438.669 544.993H540.784L569.863 574.072" stroke="#E2E2E2"/>
<path d="M540.107 544.993L569.187 574.072H667.92L697 544.993H809.935L839.014 574.072H954.654L983.733 544.993H1085.85L1114.93 574.072" stroke="#E2E2E2"/>
</g>
<defs>
<clipPath id="clip0_409_1110">
<rect width="641" height="578" fill="white"/>
</clipPath>
</defs>
</svg>
