<svg width="859" height="758" viewBox="0 0 859 758" fill="none" xmlns="http://www.w3.org/2000/svg">
<g clip-path="url(#clip0_446_1403)">
<path d="M496.496 2103.91L149.924 810.481C139.624 772.042 100.112 749.23 61.6727 759.53L-1292.08 1122.27" stroke="white" stroke-opacity="0.2" stroke-width="2.40189"/>
<path d="M908.75 1396.66L562.178 103.228C551.878 64.7887 512.366 41.9767 473.927 52.2766L-879.822 415.012" stroke="white" stroke-opacity="0.2" stroke-width="2.40189"/>
<path d="M968.797 1302.98L622.225 9.55465C611.925 -28.8852 572.413 -51.6972 533.973 -41.3973L-819.775 321.338" stroke="white" stroke-opacity="0.2" stroke-width="2.40189"/>
<path d="M1028.84 1209.31L682.271 -84.1192C671.972 -122.559 632.46 -145.371 594.02 -135.071L-759.728 227.665" stroke="white" stroke-opacity="0.2" stroke-width="2.40189"/>
<path d="M1088.89 1115.63L742.318 -177.793C732.018 -216.233 692.507 -239.045 654.067 -228.745L-699.681 133.991" stroke="white" stroke-opacity="0.2" stroke-width="2.40189"/>
<path d="M702.623 1750.28L356.051 456.854C345.751 418.415 306.239 395.603 267.8 405.903L-1085.95 768.638" stroke="white" stroke-opacity="0.2" stroke-width="2.40189"/>
<path d="M857.799 1484.91L511.227 191.48C500.927 153.041 461.415 130.229 422.975 140.529L-930.773 503.264" stroke="white" stroke-opacity="0.2" stroke-width="2.40189"/>
<path d="M651.672 1838.53L305.1 545.106C294.8 506.667 255.288 483.855 216.848 494.155L-1136.9 856.89" stroke="white" stroke-opacity="0.2" stroke-width="2.40189"/>
<path d="M804.53 1573.78L457.957 280.353C447.657 241.913 408.146 219.101 369.706 229.401L-984.043 592.136" stroke="white" stroke-opacity="0.2" stroke-width="2.40189"/>
<path d="M598.399 1927.41L251.826 633.978C241.526 595.539 202.015 572.727 163.575 583.027L-1190.17 945.762" stroke="white" stroke-opacity="0.2" stroke-width="2.40189"/>
<path d="M753.575 1662.03L407.002 368.603C396.702 330.164 357.191 307.352 318.751 317.652L-1035 680.387" stroke="white" stroke-opacity="0.2" stroke-width="2.40189"/>
<path d="M547.448 2015.66L200.875 722.229C190.575 683.79 151.064 660.978 112.624 671.278L-1241.12 1034.01" stroke="white" stroke-opacity="0.2" stroke-width="2.40189"/>
</g>
<defs>
<clipPath id="clip0_446_1403">
<rect width="1016" height="1183" fill="white" transform="translate(-157)"/>
</clipPath>
</defs>
</svg>
